<svg width="143" height="130" viewBox="0 0 143 130" fill="none" xmlns="http://www.w3.org/2000/svg">
<path d="M20.9311 119.063C48.8376 133.643 94.0893 133.643 121.996 119.063C149.902 104.482 149.906 80.8441 121.996 66.2635C94.086 51.683 48.8376 51.683 20.9311 66.2635C-6.97537 80.8441 -6.97869 104.482 20.9311 119.063Z" fill="#F5F5F5"/>
<path d="M93.2729 115.376C101.688 115.376 108.511 112.124 108.511 108.114C108.511 104.103 101.688 100.852 93.2729 100.852C84.8573 100.852 78.0352 104.103 78.0352 108.114C78.0352 112.124 84.8573 115.376 93.2729 115.376Z" fill="#EBEBEB"/>
<path d="M120.267 98.8144C126.759 98.8144 132.023 96.3061 132.023 93.2119C132.023 90.1177 126.759 87.6094 120.267 87.6094C113.774 87.6094 108.511 90.1177 108.511 93.2119C108.511 96.3061 113.774 98.8144 120.267 98.8144Z" fill="#EBEBEB"/>
<path d="M36.4775 91.6409C35.8137 88.136 33.3842 83.1409 30.4203 80.3562C27.5692 77.6811 23.3374 76.7484 21.6514 77.9831C19.9653 79.2178 21.0705 81.8863 24.3431 85.1389C28.0372 88.8065 35.13 98.9827 36.4775 104.748V91.6409Z" fill="#37ED81"/>
<g opacity="0.2">
<path d="M36.4775 91.6409C35.8137 88.136 33.3842 83.1409 30.4203 80.3562C27.5692 77.6811 23.3374 76.7484 21.6514 77.9831C19.9653 79.2178 21.0705 81.8863 24.3431 85.1389C28.0372 88.8065 35.13 98.9827 36.4775 104.748V91.6409Z" fill="black"/>
</g>
<path d="M36.4776 100.074C36.436 100.074 36.3961 100.058 36.3655 100.03C36.3349 100.001 36.3157 99.963 36.3116 99.9216C35.4752 91.0929 29.3018 81.169 23.3674 79.1013C23.3259 79.0862 23.292 79.0556 23.2728 79.0159C23.2536 78.9763 23.2506 78.9307 23.2645 78.8888C23.2795 78.8474 23.3101 78.8135 23.3498 78.7943C23.3895 78.7751 23.4351 78.7721 23.4769 78.786C29.6304 80.9267 35.7872 90.7909 36.6502 99.8917C36.6539 99.9356 36.6404 99.9792 36.6125 100.013C36.5846 100.047 36.5445 100.069 36.5008 100.074H36.4776Z" fill="white"/>
<path d="M36.4775 108.986C36.4775 108.986 35.3291 109.902 31.4989 109.543C27.6688 109.185 25.6939 106.447 25.6939 105.272C25.6939 104.097 29.2154 103.894 29.9788 100.98C29.2023 101.812 28.1693 102.36 27.0448 102.537C25.0534 102.912 23.4536 102.275 22.9989 98.6468C23.9804 98.7903 24.9817 98.7074 25.9263 98.4045C27.5028 97.8967 27.8779 97.0304 27.4663 96.8446C27.0547 96.6587 24.8575 96.8446 23.4503 96.3102C22.043 95.7758 23.1184 88.4474 24.041 87.9263C24.9637 87.4052 29.3283 88.6333 30.1779 89.2904C30.9347 89.8746 31.9968 90.8869 31.5056 93.0277C32.0874 92.4837 32.5409 91.8171 32.8332 91.0761C33.2447 90.0804 33.5435 90.3127 34.1608 90.6944C34.5315 90.9034 34.8533 91.1892 35.1046 91.5326C35.3558 91.8761 35.5309 92.2692 35.6178 92.6858C35.7672 93.6151 35.5249 96.8213 34.2172 97.8635C34.2172 97.8635 35.4718 98.0228 36.4974 95.9053C36.4974 95.9053 38.4888 96.7085 38.9402 98.0095C39.3916 99.3106 39.8828 105.68 36.4775 108.986Z" fill="#37ED81"/>
<path d="M36.8161 109.711C36.7755 109.711 36.7365 109.696 36.706 109.669C36.6755 109.642 36.6557 109.605 36.6502 109.565C35.7739 102.393 30.3207 92.97 24.9738 89.4319C24.9368 89.4073 24.9111 89.369 24.9024 89.3254C24.8937 89.2818 24.9027 89.2366 24.9273 89.1996C24.952 89.1626 24.9903 89.137 25.0339 89.1283C25.0774 89.1195 25.1227 89.1285 25.1596 89.1531C30.573 92.7543 36.1125 102.273 36.9787 109.525C36.9844 109.569 36.9725 109.613 36.9458 109.648C36.919 109.683 36.8796 109.705 36.836 109.711H36.8161Z" fill="white"/>
<path d="M37.1514 110.714C36.9533 110.577 36.7902 110.395 36.6749 110.184C36.5596 109.972 36.4955 109.737 36.4875 109.496V30.2007C36.5011 29.9512 36.5734 29.7084 36.6986 29.4921C36.8237 29.2758 36.9982 29.0921 37.2078 28.956L86.9934 0.206528C87.2014 0.0760061 87.4411 0.00467941 87.6867 0.000222483C87.9323 -0.00423444 88.1744 0.0583462 88.3871 0.181232C88.5997 0.304118 88.7749 0.48266 88.8936 0.697649C89.0124 0.912639 89.0703 1.15594 89.0611 1.40138L38.5454 110.687C38.3315 110.801 38.0937 110.863 37.8515 110.867C37.6093 110.872 37.3694 110.819 37.1514 110.714Z" fill="#E0E0E0"/>
<path d="M37.8252 31.7083L58.0481 18.4753L56.7006 17.6953L37.1979 28.9568C36.9883 29.0929 36.8138 29.2766 36.6887 29.4928C36.5635 29.7091 36.4912 29.9519 36.4777 30.2014V30.9283L37.8252 31.7083Z" fill="#37474F"/>
<path opacity="0.2" d="M37.8252 31.7083L58.0481 18.4753L56.7006 17.6953L37.1979 28.9568C36.9883 29.0929 36.8138 29.2766 36.6887 29.4928C36.5635 29.7091 36.4912 29.9519 36.4777 30.2014V30.9283L37.8252 31.7083Z" fill="#37474F"/>
<path d="M44.5794 34.0404L36.6867 29.5C36.5581 29.7141 36.4862 29.9574 36.4776 30.207V109.489C36.4691 109.734 36.5274 109.977 36.6465 110.191C36.7655 110.406 36.9407 110.584 37.1532 110.706C37.3658 110.829 37.6076 110.891 37.8529 110.887C38.0982 110.882 38.3376 110.811 38.5454 110.68L44.5794 107.212V34.0404Z" fill="#263238"/>
<path opacity="0.4" d="M44.5794 34.0404L36.6867 29.5C36.5581 29.7141 36.4862 29.9574 36.4776 30.207V109.489C36.4691 109.734 36.5274 109.977 36.6465 110.191C36.7655 110.406 36.9407 110.584 37.1532 110.706C37.3658 110.829 37.6076 110.891 37.8529 110.887C38.0982 110.882 38.3376 110.811 38.5454 110.68L44.5794 107.212V34.0404Z" fill="#263238"/>
<path d="M38.5453 110.686L88.3309 81.9361C88.5405 81.8 88.715 81.6164 88.8401 81.4001C88.9653 81.1838 89.0376 80.941 89.0511 80.6915V1.39965C89.0511 0.94162 88.7192 0.755754 88.3309 0.984767L38.5453 29.7343C38.3357 29.8704 38.1612 30.054 38.0361 30.2703C37.9109 30.4866 37.8386 30.7294 37.8251 30.9789V110.271C37.8251 110.729 38.147 110.915 38.5453 110.686Z" fill="#455A64"/>
<path opacity="0.1" d="M38.5453 110.686L88.3309 81.9361C88.5405 81.8 88.715 81.6164 88.8401 81.4001C88.9653 81.1838 89.0376 80.941 89.0511 80.6915V1.39965C89.0511 0.94162 88.7192 0.755754 88.3309 0.984767L38.5453 29.7343C38.3357 29.8704 38.1612 30.054 38.0361 30.2703C37.9109 30.4866 37.8386 30.7294 37.8251 30.9789V110.271C37.8251 110.729 38.147 110.915 38.5453 110.686Z" fill="#455A64"/>
<path d="M41.9606 49.2948L53.9091 42.3912C54.7024 41.9331 55.3463 42.2584 55.3463 43.118C55.3108 43.6007 55.1622 44.0682 54.9126 44.4828C54.6629 44.8974 54.3191 45.2473 53.9091 45.5044L41.9606 52.408C41.164 52.8661 40.5234 52.5408 40.5234 51.6812C40.5581 51.1983 40.7064 50.7305 40.9561 50.3158C41.2059 49.9011 41.55 49.5512 41.9606 49.2948Z" fill="#37ED81"/>
<path d="M41.9606 54.1925L49.8698 49.6255C50.6631 49.1675 51.307 49.4928 51.307 50.3524C51.2715 50.8351 51.123 51.3026 50.8733 51.7172C50.6236 52.1317 50.2799 52.4817 49.8698 52.7388L41.9606 57.3058C41.164 57.7638 40.5234 57.4386 40.5234 56.5789C40.5581 56.0961 40.7064 55.6283 40.9561 55.2136C41.2059 54.7989 41.55 54.449 41.9606 54.1925Z" fill="#37ED81"/>
<path d="M41.0976 62.5762L42.6443 61.6834C42.9762 61.5008 43.2185 61.6502 43.2185 62.0153V63.8009C43.2077 64.0003 43.1501 64.1944 43.0504 64.3674C42.9506 64.5404 42.8115 64.6874 42.6443 64.7966L41.0976 65.6762C40.7657 65.862 40.5234 65.7127 40.5234 65.3443V63.5586C40.5365 63.3616 40.5952 63.1703 40.6948 62.9998C40.7945 62.8293 40.9324 62.6843 41.0976 62.5762Z" fill="#37ED81"/>
<path opacity="0.2" d="M41.0976 62.5762L42.6443 61.6834C42.9762 61.5008 43.2185 61.6502 43.2185 62.0153V63.8009C43.2077 64.0003 43.1501 64.1944 43.0504 64.3674C42.9506 64.5404 42.8115 64.6874 42.6443 64.7966L41.0976 65.6762C40.7657 65.862 40.5234 65.7127 40.5234 65.3443V63.5586C40.5365 63.3616 40.5952 63.1703 40.6948 62.9998C40.7945 62.8293 40.9324 62.6843 41.0976 62.5762Z" fill="black"/>
<path d="M41.0976 68.8087L42.6443 67.9159C42.9762 67.73 43.2185 67.8794 43.2185 68.2478V70.0334C43.2069 70.2327 43.149 70.4264 43.0493 70.5993C42.9496 70.7722 42.8109 70.9194 42.6443 71.0292L41.0976 71.922C40.7657 72.1045 40.5234 71.9552 40.5234 71.5901V69.8044C40.5337 69.6049 40.5911 69.4106 40.6909 69.2376C40.7907 69.0645 40.9301 68.9175 41.0976 68.8087Z" fill="#37ED81"/>
<g opacity="0.2">
<path d="M41.0976 68.8087L42.6443 67.9159C42.9762 67.73 43.2185 67.8794 43.2185 68.2478V70.0334C43.2069 70.2327 43.149 70.4264 43.0493 70.5993C42.9496 70.7722 42.8109 70.9194 42.6443 71.0292L41.0976 71.922C40.7657 72.1045 40.5234 71.9552 40.5234 71.5901V69.8044C40.5337 69.6049 40.5911 69.4106 40.6909 69.2376C40.7907 69.0645 40.9301 68.9175 41.0976 68.8087Z" fill="black"/>
</g>
<path d="M45.2863 67.1679L54.6327 61.7678C55.031 61.5388 55.3529 61.7014 55.3529 62.1329C55.3349 62.3741 55.2603 62.6077 55.1351 62.8147C55.01 63.0217 54.8379 63.1963 54.6327 63.3244L45.2863 68.7245C44.888 68.9535 44.566 68.7909 44.566 68.3594C44.5841 68.1182 44.6587 67.8846 44.7838 67.6776C44.9089 67.4706 45.0811 67.296 45.2863 67.1679Z" fill="#37ED81"/>
<path opacity="0.2" d="M45.2863 67.1679L54.6327 61.7678C55.031 61.5388 55.3529 61.7014 55.3529 62.1329C55.3349 62.3741 55.2603 62.6077 55.1351 62.8147C55.01 63.0217 54.8379 63.1963 54.6327 63.3244L45.2863 68.7245C44.888 68.9535 44.566 68.7909 44.566 68.3594C44.5841 68.1182 44.6587 67.8846 44.7838 67.6776C44.9089 67.4706 45.0811 67.296 45.2863 67.1679Z" fill="black"/>
<path d="M41.0976 75.0353L42.6443 74.1425C42.9762 73.9566 43.2185 74.106 43.2185 74.4744V76.26C43.2072 76.4593 43.1494 76.6532 43.0497 76.8261C42.95 76.999 42.8111 77.1461 42.6443 77.2557L41.0976 78.1485C40.7657 78.3311 40.5234 78.1817 40.5234 77.8166V76.031C40.5337 75.8315 40.5911 75.6372 40.6909 75.4641C40.7907 75.2911 40.9301 75.1441 41.0976 75.0353Z" fill="#E0E0E0"/>
<path d="M45.2863 73.3956L54.6327 68.0022C55.031 67.7732 55.3529 67.9358 55.3529 68.3673C55.3354 68.6086 55.261 68.8424 55.1358 69.0495C55.0106 69.2566 54.8382 69.4311 54.6327 69.5588L45.2863 74.9589C44.888 75.1879 44.566 75.0253 44.566 74.5938C44.5831 74.3514 44.6572 74.1165 44.7824 73.9083C44.9075 73.7 45.0802 73.5244 45.2863 73.3956Z" fill="#F0F0F0"/>
<path d="M41.0976 81.2775L42.6443 80.3847C42.9762 80.1988 43.2185 80.3481 43.2185 80.7166V82.5022C43.2072 82.7015 43.1494 82.8954 43.0497 83.0683C42.95 83.2412 42.8111 83.3883 42.6443 83.4979L41.0976 84.3907C40.7657 84.5733 40.5234 84.4239 40.5234 84.0588V82.2732C40.5337 82.0737 40.5911 81.8794 40.6909 81.7063C40.7907 81.5332 40.9301 81.3863 41.0976 81.2775Z" fill="#E0E0E0"/>
<path d="M45.2863 79.6388L54.6327 74.242C55.031 74.0097 55.3529 74.1756 55.3529 74.6038C55.3354 74.8456 55.261 75.0798 55.1359 75.2875C55.0107 75.4951 54.8383 75.6702 54.6327 75.7986L45.2863 81.1954C44.888 81.4244 44.566 81.2618 44.566 80.8303C44.5841 80.5891 44.6587 80.3555 44.7838 80.1485C44.9089 79.9415 45.0811 79.7669 45.2863 79.6388Z" fill="#F0F0F0"/>
<path d="M41.0976 87.504L42.6443 86.6112C42.9762 86.4253 43.2185 86.5747 43.2185 86.9431V88.7288C43.2072 88.928 43.1494 89.1219 43.0497 89.2948C42.95 89.4677 42.8111 89.6149 42.6443 89.7245L41.0976 90.6173C40.7657 90.7998 40.5234 90.6505 40.5234 90.2854V88.4997C40.5337 88.3002 40.5911 88.106 40.6909 87.9329C40.7907 87.7598 40.9301 87.6128 41.0976 87.504Z" fill="#E0E0E0"/>
<path d="M45.2863 85.8653L54.6327 80.4686C55.031 80.2363 55.3529 80.4022 55.3529 80.8304C55.3354 81.0722 55.261 81.3064 55.1359 81.514C55.0107 81.7216 54.8383 81.8968 54.6327 82.0252L45.2863 87.422C44.888 87.651 44.566 87.4884 44.566 87.0569C44.5841 86.8157 44.6587 86.5821 44.7838 86.3751C44.9089 86.1681 45.0811 85.9934 45.2863 85.8653Z" fill="#F0F0F0"/>
<path d="M41.2404 93.6314L47.8784 89.7912C48.2767 89.5622 48.5987 89.7249 48.5987 90.1563C48.5806 90.3976 48.506 90.6311 48.3809 90.8381C48.2558 91.0452 48.0836 91.2198 47.8784 91.3479L41.2404 95.188C40.8454 95.417 40.5234 95.2544 40.5234 94.8262C40.5409 94.5848 40.6148 94.3508 40.7394 94.1433C40.8639 93.9357 41.0355 93.7604 41.2404 93.6314Z" fill="#37ED81"/>
<path d="M41.2404 96.744L54.6327 89.014C55.031 88.785 55.3529 88.9476 55.3529 89.3758C55.3354 89.6176 55.261 89.8518 55.1358 90.0594C55.0107 90.2671 54.8383 90.4422 54.6327 90.5706L41.2404 98.3007C40.8454 98.5297 40.5234 98.367 40.5234 97.9389C40.5409 97.6975 40.6148 97.4635 40.7394 97.2559C40.8639 97.0484 41.0355 96.873 41.2404 96.744Z" fill="#37ED81"/>
<path opacity="0.8" d="M41.2404 96.744L54.6327 89.014C55.031 88.785 55.3529 88.9476 55.3529 89.3758C55.3354 89.6176 55.261 89.8518 55.1358 90.0594C55.0107 90.2671 54.8383 90.4422 54.6327 90.5706L41.2404 98.3007C40.8454 98.5297 40.5234 98.367 40.5234 97.9389C40.5409 97.6975 40.6148 97.4635 40.7394 97.2559C40.8639 97.0484 41.0355 96.873 41.2404 96.744Z" fill="white"/>
<path d="M41.2404 96.7427L50.5901 91.3459C50.985 91.1169 51.307 91.2795 51.307 91.711C51.2891 91.9519 51.2149 92.1852 51.0903 92.3921C50.9658 92.5991 50.7945 92.7739 50.5901 92.9026L41.2404 98.2993C40.8454 98.5283 40.5234 98.3657 40.5234 97.9375C40.5409 97.6961 40.6148 97.4622 40.7394 97.2546C40.8639 97.047 41.0355 96.8717 41.2404 96.7427Z" fill="#37ED81"/>
<path d="M41.2404 99.8657L47.8784 96.0256C48.2767 95.7966 48.5987 95.9592 48.5987 96.3907C48.5806 96.6319 48.506 96.8655 48.3809 97.0725C48.2558 97.2795 48.0836 97.4542 47.8784 97.5822L41.2404 101.422C40.8454 101.651 40.5234 101.489 40.5234 101.061C40.5409 100.819 40.6148 100.585 40.7394 100.378C40.8639 100.17 41.0355 99.9947 41.2404 99.8657Z" fill="#37ED81"/>
<path d="M45.2863 60.938L54.6327 55.5412C55.031 55.3122 55.3529 55.4749 55.3529 55.9063C55.3349 56.1475 55.2603 56.3811 55.1351 56.5881C55.01 56.7951 54.8379 56.9698 54.6327 57.0979L45.2863 62.4946C44.888 62.7236 44.566 62.561 44.566 62.1328C44.5836 61.8911 44.6579 61.6568 44.7831 61.4492C44.9082 61.2416 45.0806 61.0664 45.2863 60.938Z" fill="#37ED81"/>
<path opacity="0.2" d="M45.2863 60.938L54.6327 55.5412C55.031 55.3122 55.3529 55.4749 55.3529 55.9063C55.3349 56.1475 55.2603 56.3811 55.1351 56.5881C55.01 56.7951 54.8379 56.9698 54.6327 57.0979L45.2863 62.4946C44.888 62.7236 44.566 62.561 44.566 62.1328C44.5836 61.8911 44.6579 61.6568 44.7831 61.4492C44.9082 61.2416 45.0806 61.0664 45.2863 60.938Z" fill="black"/>
<path d="M41.2404 99.8657L47.8784 96.0256C48.2767 95.7966 48.5987 95.9592 48.5987 96.3907C48.5806 96.6319 48.506 96.8655 48.3809 97.0725C48.2558 97.2795 48.0836 97.4542 47.8784 97.5822L41.2404 101.422C40.8454 101.651 40.5234 101.489 40.5234 101.061C40.5409 100.819 40.6148 100.585 40.7394 100.378C40.8639 100.17 41.0355 99.9947 41.2404 99.8657Z" fill="#37ED81"/>
<path d="M41.2404 102.967L54.6327 95.2366C55.031 95.0076 55.3529 95.1703 55.3529 95.5984C55.3354 95.8402 55.261 96.0745 55.1358 96.2821C55.0107 96.4897 54.8383 96.6649 54.6327 96.7933L41.2404 104.51C40.8454 104.742 40.5234 104.576 40.5234 104.148C40.5429 103.909 40.6178 103.678 40.7422 103.473C40.8667 103.268 41.0372 103.094 41.2404 102.967Z" fill="#37ED81"/>
<path opacity="0.8" d="M41.2404 102.967L54.6327 95.2366C55.031 95.0076 55.3529 95.1703 55.3529 95.5984C55.3354 95.8402 55.261 96.0745 55.1358 96.2821C55.0107 96.4897 54.8383 96.6649 54.6327 96.7933L41.2404 104.51C40.8454 104.742 40.5234 104.576 40.5234 104.148C40.5429 103.909 40.6178 103.678 40.7422 103.473C40.8667 103.268 41.0372 103.094 41.2404 102.967Z" fill="white"/>
<path d="M41.2404 102.968L53.2851 95.9983C53.6834 95.7693 54.0054 95.9319 54.0054 96.3634C53.9873 96.6046 53.9127 96.8382 53.7876 97.0452C53.6625 97.2522 53.4903 97.4268 53.2851 97.5549L41.2404 104.525C40.8454 104.757 40.5234 104.591 40.5234 104.163C40.5409 103.922 40.6148 103.688 40.7394 103.48C40.8639 103.273 41.0355 103.097 41.2404 102.968Z" fill="#37ED81"/>
<path d="M88.3376 0.986327L58.0481 18.4743V99.4257L88.3376 81.941C88.5472 81.8049 88.7217 81.6212 88.8469 81.4049C88.972 81.1887 89.0443 80.9459 89.0579 80.6963V1.40121C89.0546 0.956455 88.7226 0.757313 88.3376 0.986327Z" fill="#EBEBEB"/>
<path opacity="0.6" d="M88.3376 0.986327L58.0481 18.4743V99.4257L88.3376 81.941C88.5472 81.8049 88.7217 81.6212 88.8469 81.4049C88.972 81.1887 89.0443 80.9459 89.0579 80.6963V1.40121C89.0546 0.956455 88.7226 0.757313 88.3376 0.986327Z" fill="#FAFAFA"/>
<path d="M58.0481 21.5884V27.815L55.353 30.9282H58.0481V37.1547L86.3595 20.8085V5.24219L58.0481 21.5884Z" fill="#37ED81"/>
<g opacity="0.6">
<path d="M61.7521 21.8036L73.2227 15.1655C73.7769 14.8336 74.2184 15.1058 74.2184 15.7464C74.2001 16.0944 74.1005 16.4333 73.9276 16.7359C73.7547 17.0385 73.5132 17.2964 73.2227 17.4889L61.7521 24.1103C61.1945 24.4423 60.7563 24.1701 60.7563 23.5295C60.7764 23.1842 60.8769 22.8483 61.0497 22.5486C61.2226 22.249 61.4631 21.9938 61.7521 21.8036Z" fill="white"/>
</g>
<path d="M61.1049 26.8458L83.306 14.0277C83.5051 13.9148 83.6644 13.9945 83.6644 14.2102C83.6558 14.331 83.6189 14.448 83.5566 14.5518C83.4943 14.6556 83.4085 14.7433 83.306 14.8077L61.1049 27.6092C60.9058 27.722 60.7465 27.6424 60.7465 27.4267C60.7575 27.3088 60.7956 27.1951 60.8578 27.0943C60.92 26.9936 61.0045 26.9086 61.1049 26.8458Z" fill="#37ED81"/>
<path d="M61.1049 26.8458L83.306 14.0277C83.5051 13.9148 83.6644 13.9945 83.6644 14.2102C83.6558 14.331 83.6189 14.448 83.5566 14.5518C83.4943 14.6556 83.4085 14.7433 83.306 14.8077L61.1049 27.6092C60.9058 27.722 60.7465 27.6424 60.7465 27.4267C60.7575 27.3088 60.7956 27.1951 60.8578 27.0943C60.92 26.9936 61.0045 26.9086 61.1049 26.8458Z" fill="#37ED81"/>
<path opacity="0.6" d="M61.1049 26.8458L83.306 14.0277C83.5051 13.9148 83.6644 13.9945 83.6644 14.2102C83.6558 14.331 83.6189 14.448 83.5566 14.5518C83.4943 14.6556 83.4085 14.7433 83.306 14.8077L61.1049 27.6092C60.9058 27.722 60.7465 27.6424 60.7465 27.4267C60.7575 27.3088 60.7956 27.1951 60.8578 27.0943C60.92 26.9936 61.0045 26.9086 61.1049 26.8458Z" fill="white"/>
<path d="M61.1049 29.1676L83.306 16.3495C83.5051 16.2333 83.6644 16.3163 83.6644 16.532C83.6558 16.6523 83.6189 16.7689 83.5566 16.8722C83.4943 16.9754 83.4084 17.0625 83.306 17.1261L61.1049 29.9443C60.9058 30.0604 60.7465 29.9774 60.7465 29.7617C60.755 29.6414 60.792 29.5248 60.8543 29.4216C60.9166 29.3183 61.0025 29.2313 61.1049 29.1676Z" fill="#37ED81"/>
<path opacity="0.6" d="M61.1049 29.1676L83.306 16.3495C83.5051 16.2333 83.6644 16.3163 83.6644 16.532C83.6558 16.6523 83.6189 16.7689 83.5566 16.8722C83.4943 16.9754 83.4084 17.0625 83.306 17.1261L61.1049 29.9443C60.9058 30.0604 60.7465 29.9774 60.7465 29.7617C60.755 29.6414 60.792 29.5248 60.8543 29.4216C60.9166 29.3183 61.0025 29.2313 61.1049 29.1676Z" fill="white"/>
<path opacity="0.6" d="M61.1049 31.4904L83.306 18.6722C83.5051 18.5594 83.6644 18.639 83.6644 18.8548C83.6558 18.9755 83.6189 19.0925 83.5566 19.1964C83.4943 19.3002 83.4085 19.3878 83.306 19.4522L61.1049 32.2703C60.9058 32.3832 60.7465 32.3035 60.7465 32.0878C60.755 31.967 60.792 31.85 60.8543 31.7462C60.9165 31.6424 61.0024 31.5547 61.1049 31.4904Z" fill="white"/>
<path d="M61.9413 38.0308L63.4979 37.1347C63.8298 36.9488 64.0721 37.0981 64.0721 37.4666V39.2522C64.0611 39.4515 64.0034 39.6455 63.9037 39.8185C63.8039 39.9914 63.6649 40.1385 63.4979 40.2479L61.9513 41.1407C61.6194 41.3233 61.3771 41.1739 61.3771 40.8088V39.0265C61.3862 38.8279 61.4421 38.6342 61.5401 38.4612C61.6381 38.2882 61.7756 38.1407 61.9413 38.0308Z" fill="#37ED81"/>
<path opacity="0.2" d="M61.9413 38.0308L63.4979 37.1347C63.8298 36.9488 64.0721 37.0981 64.0721 37.4666V39.2522C64.0611 39.4515 64.0034 39.6455 63.9037 39.8185C63.8039 39.9914 63.6649 40.1385 63.4979 40.2479L61.9513 41.1407C61.6194 41.3233 61.3771 41.1739 61.3771 40.8088V39.0265C61.3862 38.8279 61.4421 38.6342 61.5401 38.4612C61.6381 38.2882 61.7756 38.1407 61.9413 38.0308Z" fill="white"/>
<path d="M66.1299 36.3905L75.4763 30.9905C75.8746 30.7614 76.1965 30.9241 76.1965 31.3555C76.1785 31.5968 76.1039 31.8303 75.9788 32.0374C75.8536 32.2444 75.6815 32.419 75.4763 32.5471L66.1299 37.9472C65.7316 38.1762 65.4097 38.0135 65.4097 37.5821C65.4277 37.3408 65.5023 37.1073 65.6274 36.9003C65.7526 36.6932 65.9247 36.5186 66.1299 36.3905Z" fill="#37ED81"/>
<path opacity="0.8" d="M66.1299 36.3905L75.4763 30.9905C75.8746 30.7614 76.1965 30.9241 76.1965 31.3555C76.1785 31.5968 76.1039 31.8303 75.9788 32.0374C75.8536 32.2444 75.6815 32.419 75.4763 32.5471L66.1299 37.9472C65.7316 38.1762 65.4097 38.0135 65.4097 37.5821C65.4277 37.3408 65.5023 37.1073 65.6274 36.9003C65.7526 36.6932 65.9247 36.5186 66.1299 36.3905Z" fill="white"/>
<path d="M61.7255 43.6061L85.2907 29.998C85.4898 29.8818 85.6491 29.9648 85.6491 30.1772C85.6408 30.2981 85.604 30.4152 85.5417 30.519C85.4794 30.6229 85.3934 30.7105 85.2907 30.7747L61.7255 44.3827C61.5264 44.4989 61.3671 44.4159 61.3671 44.2002C61.3756 44.0799 61.4126 43.9633 61.4749 43.86C61.5372 43.7568 61.6231 43.6697 61.7255 43.6061Z" fill="#37ED81"/>
<path d="M61.7255 45.9404L85.2907 32.3324C85.4898 32.2195 85.6491 32.2992 85.6491 32.5149C85.6406 32.6357 85.6036 32.7527 85.5414 32.8565C85.4791 32.9603 85.3932 33.048 85.2907 33.1124L61.7255 46.7204C61.5264 46.8333 61.3671 46.7536 61.3671 46.5379C61.3756 46.4171 61.4126 46.3001 61.4749 46.1963C61.5371 46.0925 61.623 46.0048 61.7255 45.9404Z" fill="#37ED81"/>
<path d="M61.7255 48.2779L85.2907 34.6699C85.4898 34.5537 85.6491 34.6367 85.6491 34.8491C85.6408 34.9699 85.604 35.0871 85.5417 35.1909C85.4794 35.2947 85.3934 35.3823 85.2907 35.4465L61.7255 49.0546C61.5264 49.1708 61.3671 49.0878 61.3671 48.8754C61.3754 48.7546 61.4122 48.6374 61.4745 48.5336C61.5368 48.4297 61.6228 48.3421 61.7255 48.2779Z" fill="#37ED81"/>
<path d="M61.7255 50.6162L85.2907 37.0082C85.4898 36.8953 85.6491 36.975 85.6491 37.1907C85.6406 37.3115 85.6036 37.4285 85.5414 37.5323C85.4791 37.6361 85.3932 37.7237 85.2907 37.7881L61.7255 51.3962C61.5264 51.509 61.3671 51.4294 61.3671 51.2136C61.3756 51.0929 61.4126 50.9759 61.4749 50.8721C61.5371 50.7683 61.623 50.6806 61.7255 50.6162Z" fill="#37ED81"/>
<path d="M61.7255 43.6061L85.2907 29.998C85.4898 29.8818 85.6491 29.9648 85.6491 30.1772C85.6408 30.2981 85.604 30.4152 85.5417 30.519C85.4794 30.6229 85.3934 30.7105 85.2907 30.7747L61.7255 44.3827C61.5264 44.4989 61.3671 44.4159 61.3671 44.2002C61.3756 44.0799 61.4126 43.9633 61.4749 43.86C61.5372 43.7568 61.6231 43.6697 61.7255 43.6061Z" fill="#E0E0E0"/>
<path d="M61.7255 45.9404L85.2907 32.3324C85.4898 32.2195 85.6491 32.2992 85.6491 32.5149C85.6406 32.6357 85.6036 32.7527 85.5414 32.8565C85.4791 32.9603 85.3932 33.048 85.2907 33.1124L61.7255 46.7204C61.5264 46.8333 61.3671 46.7536 61.3671 46.5379C61.3756 46.4171 61.4126 46.3001 61.4749 46.1963C61.5371 46.0925 61.623 46.0048 61.7255 45.9404Z" fill="#E0E0E0"/>
<path d="M61.7255 48.2779L85.2907 34.6699C85.4898 34.5537 85.6491 34.6367 85.6491 34.8491C85.6408 34.9699 85.604 35.0871 85.5417 35.1909C85.4794 35.2947 85.3934 35.3823 85.2907 35.4465L61.7255 49.0546C61.5264 49.1708 61.3671 49.0878 61.3671 48.8754C61.3754 48.7546 61.4122 48.6374 61.4745 48.5336C61.5368 48.4297 61.6228 48.3421 61.7255 48.2779Z" fill="#E0E0E0"/>
<path d="M61.7255 50.6162L85.2907 37.0082C85.4898 36.8953 85.6491 36.975 85.6491 37.1907C85.6406 37.3115 85.6036 37.4285 85.5414 37.5323C85.4791 37.6361 85.3932 37.7237 85.2907 37.7881L61.7255 51.3962C61.5264 51.509 61.3671 51.4294 61.3671 51.2136C61.3756 51.0929 61.4126 50.9759 61.4749 50.8721C61.5371 50.7683 61.623 50.6806 61.7255 50.6162Z" fill="#E0E0E0"/>
<path opacity="0.8" d="M61.7255 43.6061L85.2907 29.998C85.4898 29.8818 85.6491 29.9648 85.6491 30.1772C85.6408 30.2981 85.604 30.4152 85.5417 30.519C85.4794 30.6229 85.3934 30.7105 85.2907 30.7747L61.7255 44.3827C61.5264 44.4989 61.3671 44.4159 61.3671 44.2002C61.3756 44.0799 61.4126 43.9633 61.4749 43.86C61.5372 43.7568 61.6231 43.6697 61.7255 43.6061Z" fill="#E0E0E0"/>
<path opacity="0.8" d="M61.7255 45.9404L85.2907 32.3324C85.4898 32.2195 85.6491 32.2992 85.6491 32.5149C85.6406 32.6357 85.6036 32.7527 85.5414 32.8565C85.4791 32.9603 85.3932 33.048 85.2907 33.1124L61.7255 46.7204C61.5264 46.8333 61.3671 46.7536 61.3671 46.5379C61.3756 46.4171 61.4126 46.3001 61.4749 46.1963C61.5371 46.0925 61.623 46.0048 61.7255 45.9404Z" fill="#E0E0E0"/>
<path opacity="0.8" d="M61.7255 48.2779L85.2907 34.6699C85.4898 34.5537 85.6491 34.6367 85.6491 34.8491C85.6408 34.9699 85.604 35.0871 85.5417 35.1909C85.4794 35.2947 85.3934 35.3823 85.2907 35.4465L61.7255 49.0546C61.5264 49.1708 61.3671 49.0878 61.3671 48.8754C61.3754 48.7546 61.4122 48.6374 61.4745 48.5336C61.5368 48.4297 61.6228 48.3421 61.7255 48.2779Z" fill="#E0E0E0"/>
<path opacity="0.8" d="M61.7255 50.6162L85.2907 37.0082C85.4898 36.8953 85.6491 36.975 85.6491 37.1907C85.6406 37.3115 85.6036 37.4285 85.5414 37.5323C85.4791 37.6361 85.3932 37.7237 85.2907 37.7881L61.7255 51.3962C61.5264 51.509 61.3671 51.4294 61.3671 51.2136C61.3756 51.0929 61.4126 50.9759 61.4749 50.8721C61.5371 50.7683 61.623 50.6806 61.7255 50.6162Z" fill="#E0E0E0"/>
<path d="M61.7255 60.5318L85.2907 46.9238C85.4898 46.8076 85.6491 46.8906 85.6491 47.103C85.6408 47.2238 85.604 47.341 85.5417 47.4448C85.4794 47.5486 85.3934 47.6363 85.2907 47.7004L61.7255 61.3085C61.5264 61.4247 61.3671 61.3417 61.3671 61.126C61.3756 61.0057 61.4126 60.8891 61.4749 60.7858C61.5372 60.6826 61.6231 60.5955 61.7255 60.5318Z" fill="#E0E0E0"/>
<path d="M61.7255 62.8662L85.2907 49.2582C85.4898 49.1453 85.6491 49.225 85.6491 49.4407C85.6406 49.5615 85.6036 49.6785 85.5414 49.7823C85.4791 49.8861 85.3932 49.9737 85.2907 50.0381L61.7255 63.6462C61.5264 63.759 61.3671 63.6794 61.3671 63.4636C61.3756 63.3429 61.4126 63.2259 61.4749 63.1221C61.5371 63.0183 61.623 62.9306 61.7255 62.8662Z" fill="#E0E0E0"/>
<path d="M61.7255 65.2037L85.2907 51.5957C85.4898 51.4795 85.6491 51.5625 85.6491 51.7749C85.6408 51.8957 85.604 52.0128 85.5417 52.1167C85.4794 52.2205 85.3934 52.3081 85.2907 52.3723L61.7255 65.9804C61.5264 66.0965 61.3671 66.0136 61.3671 65.8011C61.3754 65.6803 61.4122 65.5632 61.4745 65.4594C61.5368 65.3555 61.6228 65.2679 61.7255 65.2037Z" fill="#E0E0E0"/>
<path d="M61.7255 67.542L85.2907 53.9339C85.4898 53.8211 85.6491 53.9008 85.6491 54.1165C85.6406 54.2372 85.6036 54.3543 85.5414 54.4581C85.4791 54.5619 85.3932 54.6495 85.2907 54.7139L61.7255 68.322C61.5264 68.4348 61.3671 68.3552 61.3671 68.1394C61.3756 68.0187 61.4126 67.9017 61.4749 67.7979C61.5371 67.6941 61.623 67.6064 61.7255 67.542Z" fill="#E0E0E0"/>
<path opacity="0.8" d="M61.7255 60.5318L85.2907 46.9238C85.4898 46.8076 85.6491 46.8906 85.6491 47.103C85.6408 47.2238 85.604 47.341 85.5417 47.4448C85.4794 47.5486 85.3934 47.6363 85.2907 47.7004L61.7255 61.3085C61.5264 61.4247 61.3671 61.3417 61.3671 61.126C61.3756 61.0057 61.4126 60.8891 61.4749 60.7858C61.5372 60.6826 61.6231 60.5955 61.7255 60.5318Z" fill="#E0E0E0"/>
<path opacity="0.8" d="M61.7255 62.8662L85.2907 49.2582C85.4898 49.1453 85.6491 49.225 85.6491 49.4407C85.6406 49.5615 85.6036 49.6785 85.5414 49.7823C85.4791 49.8861 85.3932 49.9737 85.2907 50.0381L61.7255 63.6462C61.5264 63.759 61.3671 63.6794 61.3671 63.4636C61.3756 63.3429 61.4126 63.2259 61.4749 63.1221C61.5371 63.0183 61.623 62.9306 61.7255 62.8662Z" fill="#E0E0E0"/>
<path opacity="0.8" d="M61.7255 65.2037L85.2907 51.5957C85.4898 51.4795 85.6491 51.5625 85.6491 51.7749C85.6408 51.8957 85.604 52.0128 85.5417 52.1167C85.4794 52.2205 85.3934 52.3081 85.2907 52.3723L61.7255 65.9804C61.5264 66.0965 61.3671 66.0136 61.3671 65.8011C61.3754 65.6803 61.4122 65.5632 61.4745 65.4594C61.5368 65.3555 61.6228 65.2679 61.7255 65.2037Z" fill="#E0E0E0"/>
<path opacity="0.8" d="M61.7255 67.542L85.2907 53.9339C85.4898 53.8211 85.6491 53.9008 85.6491 54.1165C85.6406 54.2372 85.6036 54.3543 85.5414 54.4581C85.4791 54.5619 85.3932 54.6495 85.2907 54.7139L61.7255 68.322C61.5264 68.4348 61.3671 68.3552 61.3671 68.1394C61.3756 68.0187 61.4126 67.9017 61.4749 67.7979C61.5371 67.6941 61.623 67.6064 61.7255 67.542Z" fill="#E0E0E0"/>
<path d="M61.7255 77.7936L85.2907 64.1855C85.4898 64.0693 85.6491 64.1523 85.6491 64.3647C85.6408 64.4856 85.604 64.6027 85.5417 64.7065C85.4794 64.8104 85.3934 64.898 85.2907 64.9622L61.7255 78.5702C61.5264 78.6864 61.3671 78.6034 61.3671 78.3877C61.3756 78.2674 61.4126 78.1508 61.4749 78.0475C61.5372 77.9443 61.6231 77.8572 61.7255 77.7936Z" fill="#E0E0E0"/>
<path d="M61.7255 80.124L85.2907 66.516C85.4898 66.4031 85.6491 66.4828 85.6491 66.6985C85.6406 66.8193 85.6036 66.9363 85.5414 67.0401C85.4791 67.1439 85.3932 67.2316 85.2907 67.296L61.7255 80.904C61.5264 81.0169 61.3671 80.9372 61.3671 80.7215C61.3756 80.6007 61.4126 80.4837 61.4749 80.3799C61.5371 80.2761 61.623 80.1884 61.7255 80.124Z" fill="#E0E0E0"/>
<path d="M61.7255 82.4615L85.2907 68.8535C85.4898 68.7373 85.6491 68.8203 85.6491 69.0327C85.6408 69.1535 85.604 69.2707 85.5417 69.3745C85.4794 69.4783 85.3934 69.5659 85.2907 69.6301L61.7255 83.2382C61.5264 83.3544 61.3671 83.2714 61.3671 83.059C61.3754 82.9381 61.4122 82.821 61.4745 82.7172C61.5368 82.6133 61.6228 82.5257 61.7255 82.4615Z" fill="#E0E0E0"/>
<path d="M61.7255 84.8037L85.2907 71.1957C85.4898 71.0828 85.6491 71.1625 85.6491 71.3782C85.6406 71.499 85.6036 71.616 85.5414 71.7198C85.4791 71.8236 85.3932 71.9112 85.2907 71.9756L61.7255 85.5837C61.5264 85.6965 61.3671 85.6169 61.3671 85.4012C61.3756 85.2804 61.4126 85.1634 61.4749 85.0596C61.5371 84.9558 61.623 84.8681 61.7255 84.8037Z" fill="#E0E0E0"/>
<path opacity="0.8" d="M61.7255 77.7936L85.2907 64.1855C85.4898 64.0693 85.6491 64.1523 85.6491 64.3647C85.6408 64.4856 85.604 64.6027 85.5417 64.7065C85.4794 64.8104 85.3934 64.898 85.2907 64.9622L61.7255 78.5702C61.5264 78.6864 61.3671 78.6034 61.3671 78.3877C61.3756 78.2674 61.4126 78.1508 61.4749 78.0475C61.5372 77.9443 61.6231 77.8572 61.7255 77.7936Z" fill="#E0E0E0"/>
<path opacity="0.8" d="M61.7255 80.124L85.2907 66.516C85.4898 66.4031 85.6491 66.4828 85.6491 66.6985C85.6406 66.8193 85.6036 66.9363 85.5414 67.0401C85.4791 67.1439 85.3932 67.2316 85.2907 67.296L61.7255 80.904C61.5264 81.0169 61.3671 80.9372 61.3671 80.7215C61.3756 80.6007 61.4126 80.4837 61.4749 80.3799C61.5371 80.2761 61.623 80.1884 61.7255 80.124Z" fill="#E0E0E0"/>
<path opacity="0.8" d="M61.7255 82.4615L85.2907 68.8535C85.4898 68.7373 85.6491 68.8203 85.6491 69.0327C85.6408 69.1535 85.604 69.2707 85.5417 69.3745C85.4794 69.4783 85.3934 69.5659 85.2907 69.6301L61.7255 83.2382C61.5264 83.3544 61.3671 83.2714 61.3671 83.059C61.3754 82.9381 61.4122 82.821 61.4745 82.7172C61.5368 82.6133 61.6228 82.5257 61.7255 82.4615Z" fill="#E0E0E0"/>
<path opacity="0.8" d="M61.7255 84.8037L85.2907 71.1957C85.4898 71.0828 85.6491 71.1625 85.6491 71.3782C85.6406 71.499 85.6036 71.616 85.5414 71.7198C85.4791 71.8236 85.3932 71.9112 85.2907 71.9756L61.7255 85.5837C61.5264 85.6965 61.3671 85.6169 61.3671 85.4012C61.3756 85.2804 61.4126 85.1634 61.4749 85.0596C61.5371 84.9558 61.623 84.8681 61.7255 84.8037Z" fill="#E0E0E0"/>
<path d="M61.9413 55.1543L63.4979 54.2615C63.8298 54.079 64.0721 54.2283 64.0721 54.5934V56.3857C64.0619 56.5852 64.0045 56.7795 63.9047 56.9525C63.8049 57.1256 63.6655 57.2726 63.4979 57.3814L61.9513 58.2742C61.6194 58.4568 61.3771 58.3107 61.3771 57.9423V56.1567C61.3854 55.9569 61.4409 55.762 61.539 55.5878C61.637 55.4136 61.7749 55.2651 61.9413 55.1543Z" fill="#37ED81"/>
<path opacity="0.2" d="M61.9413 55.1543L63.4979 54.2615C63.8298 54.079 64.0721 54.2283 64.0721 54.5934V56.3857C64.0619 56.5852 64.0045 56.7795 63.9047 56.9525C63.8049 57.1256 63.6655 57.2726 63.4979 57.3814L61.9513 58.2742C61.6194 58.4568 61.3771 58.3107 61.3771 57.9423V56.1567C61.3854 55.9569 61.4409 55.762 61.539 55.5878C61.637 55.4136 61.7749 55.2651 61.9413 55.1543Z" fill="white"/>
<path d="M66.1299 53.5123L75.4763 48.1156C75.8746 47.8865 76.1965 48.0492 76.1965 48.4773C76.179 48.7191 76.1046 48.9534 75.9795 49.161C75.8543 49.3686 75.6819 49.5438 75.4763 49.6722L66.1299 55.0557C65.7316 55.2847 65.4097 55.122 65.4097 54.6939C65.4292 54.4544 65.5045 54.2228 65.6296 54.0176C65.7547 53.8125 65.926 53.6394 66.1299 53.5123Z" fill="#37ED81"/>
<path opacity="0.8" d="M66.1299 53.5123L75.4763 48.1156C75.8746 47.8865 76.1965 48.0492 76.1965 48.4773C76.179 48.7191 76.1046 48.9534 75.9795 49.161C75.8543 49.3686 75.6819 49.5438 75.4763 49.6722L66.1299 55.0557C65.7316 55.2847 65.4097 55.122 65.4097 54.6939C65.4292 54.4544 65.5045 54.2228 65.6296 54.0176C65.7547 53.8125 65.926 53.6394 66.1299 53.5123Z" fill="white"/>
<path d="M61.9413 72.2814L63.4979 71.3886C63.8298 71.2027 64.0721 71.352 64.0721 71.7205V73.5061C64.0616 73.7056 64.0041 73.8997 63.9044 74.0728C63.8046 74.2458 63.6653 74.3928 63.4979 74.5018L61.9513 75.3946C61.6194 75.5772 61.3771 75.4278 61.3771 75.0627V73.2771C61.3862 73.0784 61.4421 72.8848 61.5401 72.7117C61.6381 72.5387 61.7756 72.3913 61.9413 72.2814Z" fill="#37ED81"/>
<path opacity="0.2" d="M61.9413 72.2814L63.4979 71.3886C63.8298 71.2027 64.0721 71.352 64.0721 71.7205V73.5061C64.0616 73.7056 64.0041 73.8997 63.9044 74.0728C63.8046 74.2458 63.6653 74.3928 63.4979 74.5018L61.9513 75.3946C61.6194 75.5772 61.3771 75.4278 61.3771 75.0627V73.2771C61.3862 73.0784 61.4421 72.8848 61.5401 72.7117C61.6381 72.5387 61.7756 72.3913 61.9413 72.2814Z" fill="white"/>
<path d="M66.1299 70.6562L75.4763 65.2561C75.8746 65.0271 76.1965 65.1897 76.1965 65.6212C76.1788 65.8629 76.1043 66.097 75.9792 66.3046C75.854 66.5122 75.6818 66.6874 75.4763 66.816L66.1299 72.2128C65.7316 72.4418 65.4097 72.2792 65.4097 71.8477C65.4277 71.6065 65.5023 71.3729 65.6274 71.1659C65.7526 70.9589 65.9247 70.7842 66.1299 70.6562Z" fill="#37ED81"/>
<path opacity="0.8" d="M66.1299 70.6562L75.4763 65.2561C75.8746 65.0271 76.1965 65.1897 76.1965 65.6212C76.1788 65.8629 76.1043 66.097 75.9792 66.3046C75.854 66.5122 75.6818 66.6874 75.4763 66.816L66.1299 72.2128C65.7316 72.4418 65.4097 72.2792 65.4097 71.8477C65.4277 71.6065 65.5023 71.3729 65.6274 71.1659C65.7526 70.9589 65.9247 70.7842 66.1299 70.6562Z" fill="white"/>
<path d="M64.1417 87.3535L65.6884 86.4607C66.0203 86.2782 66.2659 86.4275 66.2659 86.7926V88.5783C66.255 88.778 66.197 88.9724 66.0966 89.1454C65.9963 89.3185 65.8564 89.4653 65.6884 89.574L64.1417 90.4668C63.8264 90.6527 63.5675 90.5033 63.5675 90.1349V88.3493C63.5791 88.15 63.637 87.9563 63.7367 87.7834C63.8364 87.6105 63.9751 87.4633 64.1417 87.3535Z" fill="#37ED81"/>
<path d="M61.7255 93.4228L68.108 89.7386C68.3072 89.6258 68.4665 89.7054 68.4665 89.9212C68.4579 90.0419 68.421 90.159 68.3587 90.2628C68.2964 90.3666 68.2105 90.4542 68.108 90.5186L61.7255 94.2027C61.5264 94.3156 61.3671 94.2359 61.3671 94.0202C61.3756 93.8995 61.4126 93.7824 61.4749 93.6786C61.5371 93.5748 61.623 93.4872 61.7255 93.4228Z" fill="#E0E0E0"/>
<path d="M72.7281 82.3965L74.2748 81.5037C74.5901 81.3211 74.849 81.4705 74.849 81.8356V83.6212C74.8382 83.8206 74.7806 84.0147 74.6809 84.1877C74.5811 84.3607 74.442 84.5077 74.2748 84.617L72.7281 85.5098C72.3962 85.6923 72.1506 85.5463 72.1506 85.1779V83.3922C72.1618 83.1925 72.2199 82.9983 72.3202 82.8253C72.4206 82.6522 72.5603 82.5053 72.7281 82.3965Z" fill="#37ED81"/>
<path d="M70.3085 88.4633L76.691 84.7792C76.8902 84.663 77.0495 84.746 77.0495 84.9617C77.0409 85.082 77.004 85.1986 76.9417 85.3018C76.8794 85.4051 76.7935 85.4922 76.691 85.5558L70.3085 89.2433C70.1094 89.3594 69.9501 89.2765 69.9501 89.064C69.9579 88.9427 69.9945 88.8249 70.0568 88.7204C70.1191 88.616 70.2054 88.5278 70.3085 88.4633Z" fill="#E0E0E0"/>
<path d="M81.3111 77.4376L82.8578 76.5448C83.1731 76.3589 83.432 76.5083 83.432 76.8767V78.6624C83.4207 78.8616 83.3629 79.0555 83.2632 79.2284C83.1635 79.4013 83.0246 79.5485 82.8578 79.6581L81.3111 80.5509C80.9792 80.7334 80.7369 80.5841 80.7369 80.219V78.4333C80.7472 78.2338 80.8046 78.0396 80.9044 77.8665C81.0042 77.6934 81.1436 77.5464 81.3111 77.4376Z" fill="#37ED81"/>
<path opacity="0.2" d="M64.1417 87.3535L65.6884 86.4607C66.0203 86.2782 66.2659 86.4275 66.2659 86.7926V88.5783C66.255 88.778 66.197 88.9724 66.0966 89.1454C65.9963 89.3185 65.8564 89.4653 65.6884 89.574L64.1417 90.4668C63.8264 90.6527 63.5675 90.5033 63.5675 90.1349V88.3493C63.5791 88.15 63.637 87.9563 63.7367 87.7834C63.8364 87.6105 63.9751 87.4633 64.1417 87.3535Z" fill="white"/>
<path opacity="0.2" d="M72.7281 82.3965L74.2748 81.5037C74.5901 81.3211 74.849 81.4705 74.849 81.8356V83.6212C74.8382 83.8206 74.7806 84.0147 74.6809 84.1877C74.5811 84.3607 74.442 84.5077 74.2748 84.617L72.7281 85.5098C72.3962 85.6923 72.1506 85.5463 72.1506 85.1779V83.3922C72.1618 83.1925 72.2199 82.9983 72.3202 82.8253C72.4206 82.6522 72.5603 82.5053 72.7281 82.3965Z" fill="white"/>
<path opacity="0.2" d="M81.3111 77.4376L82.8578 76.5448C83.1731 76.3589 83.432 76.5083 83.432 76.8767V78.6624C83.4207 78.8616 83.3629 79.0555 83.2632 79.2284C83.1635 79.4013 83.0246 79.5485 82.8578 79.6581L81.3111 80.5509C80.9792 80.7334 80.7369 80.5841 80.7369 80.219V78.4333C80.7472 78.2338 80.8046 78.0396 80.9044 77.8665C81.0042 77.6934 81.1436 77.5464 81.3111 77.4376Z" fill="white"/>
<path d="M78.8915 83.5064L85.274 79.8222C85.4732 79.7061 85.6325 79.789 85.6325 80.0015C85.6242 80.1223 85.5874 80.2394 85.5251 80.3432C85.4628 80.4471 85.3767 80.5347 85.274 80.5989L78.8915 84.283C78.6957 84.3992 78.5331 84.3162 78.5331 84.1005C78.5424 83.9804 78.5797 83.8641 78.6419 83.761C78.7042 83.6578 78.7896 83.5706 78.8915 83.5064Z" fill="#E0E0E0"/>
<mask id="mask0_714_6780" style="mask-type:luminance" maskUnits="userSpaceOnUse" x="40" y="27" width="15" height="18">
<path d="M47.2644 28.1245C43.5404 30.2221 40.5234 35.4496 40.5234 39.7975C40.5234 44.1455 43.5404 45.9311 47.2644 43.7804C50.9884 41.6296 54.0054 36.4055 54.0054 32.104C54.0054 27.8025 50.985 26.0235 47.2644 28.1245Z" fill="white"/>
</mask>
<g mask="url(#mask0_714_6780)">
<path d="M47.2644 28.1245C43.5404 30.2221 40.5234 35.4496 40.5234 39.7975C40.5234 44.1455 43.5404 45.9311 47.2644 43.7804C50.9884 41.6296 54.0054 36.4055 54.0054 32.104C54.0054 27.8025 50.985 26.0235 47.2644 28.1245Z" fill="#FAFAFA"/>
<path d="M50.5303 41.5242L45.1335 42.9713C45.0406 43.0016 44.9416 43.0083 44.8454 42.9907C44.7493 42.973 44.6591 42.9317 44.5829 42.8704C44.5068 42.8091 44.4472 42.7298 44.4094 42.6396C44.3717 42.5494 44.3571 42.4512 44.3668 42.354V33.1669C44.3859 32.4065 44.6399 31.6706 45.0939 31.0602C45.5479 30.4499 46.1797 29.9951 46.9026 29.7582L48.748 29.2637C50.1519 28.8886 51.2904 29.8047 51.2904 31.3082V40.4986C51.2843 40.727 51.2082 40.9479 51.0722 41.1314C50.9362 41.3149 50.747 41.452 50.5303 41.5242Z" fill="#37474F"/>
<path d="M50.7891 43.8998L50.2216 41.3939C50.2216 41.3939 50.2216 38.0118 49.7403 37.6999C49.259 37.3879 49.1196 37.3281 49.1196 37.3281C49.737 37.1157 51.038 36.9564 51.443 38.1446C51.8313 39.2664 52.4121 42.0312 52.6876 43.392L50.7891 43.8998Z" fill="#F28F8F"/>
<path d="M50.7427 43.9124L48.8176 37.3573C49.6706 37.0254 50.7659 36.7499 51.2969 37.6294C51.7749 38.4194 52.5383 42.5582 52.6876 43.3913L50.7427 43.9124Z" fill="#37ED81"/>
<g opacity="0.4">
<path d="M50.7427 43.9124L48.8176 37.3573C49.6706 37.0254 50.7659 36.7499 51.2969 37.6294C51.7749 38.4194 52.5383 42.5582 52.6876 43.3913L50.7427 43.9124Z" fill="black"/>
</g>
<path d="M51.0016 43.8451L49.1097 44.3529C49.1859 43.8095 49.365 43.2857 49.6375 42.8095C50.0161 42.2639 50.561 41.8552 51.1908 41.6445C51.0544 42.3699 50.9911 43.1071 51.0016 43.8451Z" fill="#37ED81"/>
<path d="M51.0016 43.8451L49.1097 44.3529C49.1859 43.8095 49.365 43.2857 49.6375 42.8095C50.0161 42.2639 50.561 41.8552 51.1908 41.6445C51.0544 42.3699 50.9911 43.1071 51.0016 43.8451Z" fill="#37ED81"/>
<g opacity="0.7">
<path d="M51.0016 43.8451L49.1097 44.3529C49.1859 43.8095 49.365 43.2857 49.6375 42.8095C50.0161 42.2639 50.561 41.8552 51.1908 41.6445C51.0544 42.3699 50.9911 43.1071 51.0016 43.8451Z" fill="black"/>
</g>
<path d="M50.5966 43.9536L45.2862 45.3709L44.702 43.562C44.702 43.562 46.252 39.9343 44.3369 39.0016C44.5792 38.8191 46.6204 38.0225 46.6204 38.0225L48.8143 37.3587C49.2325 37.2459 50.9219 37.996 51.35 39.6588C51.5027 40.2463 51.4496 40.774 50.59 43.8342C50.5999 43.874 50.5966 43.9138 50.5966 43.9536Z" fill="#37ED81"/>
<path d="M50.1585 30.3906C50.5236 30.5234 50.975 31.3863 50.9319 33.4674C50.8954 35.2331 50.3643 35.7907 50.0988 36.0031C49.7011 36.2022 49.2624 36.3057 48.8177 36.3051V37.3573C48.8177 37.3573 49.508 38.0211 49.4649 38.5256C49.4217 39.0301 48.4692 39.3885 47.8253 39.0898C47.3549 38.8247 46.9483 38.4599 46.6337 38.0211V35.5982C46.5852 35.6541 46.5261 35.6997 46.4598 35.7325C46.3935 35.7653 46.3214 35.7846 46.2475 35.7892C46.1737 35.7939 46.0997 35.7838 46.0298 35.7595C45.9599 35.7353 45.8956 35.6973 45.8405 35.648C45.7368 35.577 45.6485 35.486 45.5806 35.3803C45.5127 35.2746 45.4668 35.1563 45.4454 35.0326C45.4241 34.9088 45.4278 34.782 45.4563 34.6596C45.4848 34.5373 45.5376 34.4219 45.6115 34.3204C45.9434 33.8856 46.5242 33.8225 46.7499 34.2573C47.0308 33.5754 47.5337 33.0082 48.1771 32.6476C49.2259 32.0103 49.7968 31.4428 50.1585 30.3906Z" fill="#FFA8A7"/>
<path d="M49.1064 33.5198C49.1078 33.5828 49.0898 33.6446 49.0547 33.6969C49.0197 33.7492 48.9693 33.7893 48.9105 33.8119C48.8856 33.8205 48.8589 33.823 48.8328 33.819C48.8067 33.815 48.782 33.8047 48.7607 33.789C48.7395 33.7734 48.7224 33.7527 48.7109 33.729C48.6994 33.7052 48.6939 33.679 48.6948 33.6526C48.6934 33.5897 48.7114 33.5278 48.7464 33.4755C48.7815 33.4232 48.8319 33.3831 48.8906 33.3605C48.9156 33.3519 48.9423 33.3494 48.9684 33.3534C48.9945 33.3574 49.0192 33.3677 49.0404 33.3834C49.0617 33.3991 49.0788 33.4197 49.0903 33.4434C49.1018 33.4672 49.1073 33.4934 49.1064 33.5198Z" fill="#37474F"/>
<path d="M49.1595 34.9922L49.6374 35.0254C49.6234 35.0982 49.5854 35.1643 49.5295 35.213C49.4735 35.2618 49.4029 35.2904 49.3288 35.2942C49.196 35.2843 49.1197 35.1415 49.1595 34.9922Z" fill="#F28F8F"/>
<path d="M50.7924 32.3901L50.3776 32.1943C50.4023 32.1301 50.4498 32.0773 50.5111 32.0461C50.5724 32.0148 50.643 32.0073 50.7095 32.025C50.7391 32.0433 50.7649 32.0673 50.7852 32.0957C50.8055 32.124 50.8199 32.1561 50.8276 32.1901C50.8353 32.2241 50.8362 32.2593 50.8302 32.2937C50.8241 32.328 50.8113 32.3608 50.7924 32.3901Z" fill="#37474F"/>
<path d="M48.509 33.1677L48.9239 32.7462C48.9019 32.7238 48.8754 32.7063 48.8461 32.6949C48.8169 32.6835 48.7856 32.6784 48.7542 32.68C48.7229 32.6815 48.6922 32.6897 48.6642 32.704C48.6363 32.7183 48.6117 32.7383 48.592 32.7628C48.5344 32.8109 48.4949 32.8772 48.4798 32.9507C48.4647 33.0243 48.475 33.1007 48.509 33.1677Z" fill="#37474F"/>
<path d="M50.6961 32.9334C50.698 32.9964 50.6802 33.0584 50.6451 33.1108C50.61 33.1632 50.5593 33.2033 50.5003 33.2254C50.4751 33.2342 50.4481 33.2366 50.4217 33.2325C50.3953 33.2283 50.3704 33.2177 50.349 33.2017C50.3277 33.1856 50.3107 33.1645 50.2994 33.1403C50.2882 33.1161 50.2831 33.0895 50.2846 33.0628C50.2836 33 50.3018 32.9383 50.3368 32.8861C50.3718 32.834 50.4219 32.7937 50.4804 32.7707C50.5056 32.762 50.5326 32.7595 50.559 32.7637C50.5854 32.7678 50.6103 32.7784 50.6316 32.7945C50.653 32.8106 50.67 32.8316 50.6812 32.8559C50.6925 32.8801 50.6976 32.9067 50.6961 32.9334Z" fill="#37474F"/>
<path d="M49.7271 33.0664L49.7569 34.3841L50.4108 33.9924L49.7271 33.0664Z" fill="#F28F8F"/>
<path d="M48.8177 36.3063C48.2933 36.3727 47.2113 36.3295 47.042 35.918C47.1034 36.1201 47.2384 36.2919 47.4204 36.3992C47.7523 36.6116 48.8177 36.6581 48.8177 36.6581V36.3063Z" fill="#F28F8F"/>
<path d="M45.316 45.3681L45.0936 44.5781L45.6778 45.2718L45.316 45.3681Z" fill="#37ED81"/>
<path d="M44.8813 45.4846C44.6429 44.3492 44.3201 43.2331 43.9154 42.1457C43.3578 40.6156 43.9818 39.2946 44.3569 39.0026C44.7319 38.7105 46.6404 38.0234 46.6404 38.0234C47.3307 39.9883 47.5199 42.6203 47.5365 44.7744L44.8813 45.4846Z" fill="#37ED81"/>
<path opacity="0.4" d="M44.8813 45.4846C44.6429 44.3492 44.3201 43.2331 43.9154 42.1457C43.3578 40.6156 43.9818 39.2946 44.3569 39.0026C44.7319 38.7105 46.6404 38.0234 46.6404 38.0234C47.3307 39.9883 47.5199 42.6203 47.5365 44.7744L44.8813 45.4846Z" fill="black"/>
<path d="M43.9386 45.7343L42.0434 46.2421C41.9904 46.2065 41.9405 46.1665 41.894 46.1227C41.894 46.1227 42.7902 42.6642 43.0756 41.5158C43.3611 40.3674 43.5801 39.5775 44.3501 39C45.7342 39.8995 45.0936 42.3987 45.0936 42.3987L43.9386 45.7343Z" fill="#37ED81"/>
<path opacity="0.4" d="M43.9386 45.7343L42.0434 46.2421C41.9904 46.2065 41.9405 46.1665 41.894 46.1227C41.894 46.1227 42.7902 42.6642 43.0756 41.5158C43.3611 40.3674 43.5801 39.5775 44.3501 39C45.7342 39.8995 45.0936 42.3987 45.0936 42.3987L43.9386 45.7343Z" fill="black"/>
</g>
<path d="M16.344 23.6355V17.0604C16.3241 15.7859 17.1538 14.5081 18.8366 13.5389C22.1556 11.6172 27.5524 11.6172 30.878 13.5389C32.5608 14.5081 33.3906 15.7859 33.3706 17.0604V23.6122C33.3706 24.8801 32.5542 27.147 30.878 28.1128C27.559 30.0346 22.1623 30.0346 18.8366 28.1128C17.1771 27.157 16.3473 24.9067 16.344 23.6487V23.6355Z" fill="#EBEBEB"/>
<path d="M24.8575 8.90234L38.907 17.0141L24.8575 25.1258L10.808 17.0141L24.8575 8.90234Z" fill="#F5F5F5"/>
<path d="M17.8276 21.0648L24.7478 17.1151C24.7764 17.0988 24.8079 17.0882 24.8405 17.0841C24.8731 17.0799 24.9063 17.0822 24.938 17.0908C24.9698 17.0994 24.9995 17.1142 25.0255 17.1344C25.0515 17.1545 25.0733 17.1795 25.0897 17.2081C25.106 17.2366 25.1166 17.2681 25.1208 17.3007C25.1249 17.3334 25.1227 17.3665 25.114 17.3983C25.1054 17.43 25.0906 17.4597 25.0705 17.4858C25.0504 17.5118 25.0253 17.5336 24.9968 17.5499L18.3222 21.3502L17.8276 21.0648Z" fill="#E0E0E0"/>
<path d="M38.9069 17.0156V17.5965L24.8574 25.7049V25.1274L38.9069 17.0156Z" fill="#E6E6E6"/>
<path d="M10.8079 17.0156V17.5965L24.8573 25.7049V25.1274L10.8079 17.0156Z" fill="#F0F0F0"/>
<path d="M17.4791 21.4454L17.9073 21.691C17.972 21.5853 18.0621 21.4974 18.1695 21.4354L18.3188 21.3491L17.8309 21.0703C17.6868 21.1671 17.5665 21.2954 17.4791 21.4454Z" fill="#E0E0E0"/>
<path d="M33.3873 20.7812L24.8574 26.573L16.3507 20.7945L24.8574 25.7034L33.3873 20.7812Z" fill="#E0E0E0"/>
<path d="M16.9316 28.2773C17.0506 28.3388 17.1826 28.3708 17.3166 28.3708C17.4505 28.3708 17.5826 28.3388 17.7016 28.2773L18.3355 32.3697C18.3355 33.1431 16.3275 33.1431 16.3275 32.3697L16.9316 28.2773Z" fill="#F5F5F5"/>
<path d="M16.895 30.6133L16.7689 32.8569C16.7275 32.8444 16.6875 32.8277 16.6494 32.8072L16.895 30.6133Z" fill="#EBEBEB"/>
<path d="M17.8443 32.8736L17.5787 29.2227L17.9737 32.8205C17.9316 32.8407 17.8884 32.8585 17.8443 32.8736Z" fill="#EBEBEB"/>
<path d="M17.3928 32.9444H17.2667L17.3331 30.0469L17.3928 32.9444Z" fill="#EBEBEB"/>
<path d="M17.3132 28.6169C17.4603 28.6132 17.6028 28.5646 17.7215 28.4775C17.7719 28.4403 17.8062 28.3851 17.8173 28.3234C17.8284 28.2617 17.8155 28.1981 17.7812 28.1456C17.745 28.0939 17.69 28.0585 17.6281 28.0467C17.5661 28.0349 17.5019 28.0478 17.4493 28.0825C17.4177 28.1132 17.3755 28.1303 17.3315 28.1303C17.2875 28.1303 17.2452 28.1132 17.2137 28.0825C17.1878 28.0596 17.1575 28.0422 17.1246 28.0316C17.0917 28.021 17.057 28.0173 17.0226 28.0208C16.9882 28.0244 16.955 28.035 16.9249 28.0521C16.8949 28.0692 16.8688 28.0924 16.8482 28.1202C16.8276 28.1479 16.813 28.1797 16.8054 28.2134C16.7977 28.2471 16.7972 28.282 16.8038 28.3159C16.8104 28.3499 16.8239 28.382 16.8437 28.4104C16.8634 28.4388 16.8888 28.4628 16.9183 28.4808C17.0325 28.5663 17.1706 28.6139 17.3132 28.6169Z" fill="#E0E0E0"/>
<path d="M17.3298 27.9803C17.3623 27.9807 17.3946 27.9747 17.4248 27.9625C17.455 27.9504 17.4824 27.9324 17.5056 27.9095C17.5288 27.8867 17.5472 27.8595 17.5597 27.8294C17.5723 27.7994 17.5787 27.7672 17.5787 27.7347V21.933C17.579 21.8025 17.6135 21.6745 17.6788 21.5615C17.744 21.4485 17.8376 21.3546 17.9504 21.2891L24.9968 17.2731C25.0527 17.241 25.0938 17.1883 25.1112 17.1262C25.1286 17.0641 25.1209 16.9976 25.0897 16.9412C25.0741 16.9131 25.0532 16.8885 25.028 16.8686C25.0029 16.8487 24.974 16.834 24.9432 16.8254C24.9123 16.8167 24.88 16.8143 24.8482 16.8182C24.8164 16.8221 24.7856 16.8323 24.7578 16.8482L17.6949 20.8709C17.5066 20.9796 17.3502 21.1358 17.2413 21.324C17.1323 21.5121 17.0747 21.7256 17.0742 21.943V27.7446C17.0755 27.7769 17.0831 27.8086 17.0967 27.8379C17.1102 27.8672 17.1294 27.8936 17.1531 27.9154C17.1769 27.9373 17.2047 27.9543 17.235 27.9655C17.2653 27.9766 17.2975 27.9816 17.3298 27.9803Z" fill="#FAFAFA"/>
<path d="M17.8742 27.7351C17.8748 27.6273 17.8435 27.5218 17.784 27.4318C17.7246 27.3419 17.6399 27.2716 17.5404 27.2299C17.441 27.1882 17.3315 27.1769 17.2257 27.1976C17.1199 27.2182 17.0226 27.2698 16.9461 27.3458C16.8697 27.4217 16.8175 27.5187 16.7962 27.6244C16.775 27.7301 16.7855 27.8397 16.8266 27.9394C16.8677 28.039 16.9375 28.1242 17.0271 28.1842C17.1167 28.2441 17.222 28.2761 17.3298 28.2761C17.4012 28.2766 17.4719 28.2629 17.5379 28.2359C17.6039 28.2089 17.6639 28.1691 17.7145 28.1189C17.7651 28.0686 17.8053 28.0088 17.8327 27.9429C17.8601 27.8771 17.8742 27.8065 17.8742 27.7351Z" fill="#F5F5F5"/>
<path d="M16.7921 27.7629C16.8147 27.819 16.8492 27.8696 16.8932 27.9112C16.9372 27.9529 16.9897 27.9845 17.047 28.004C17.1043 28.0236 17.1652 28.0305 17.2254 28.0244C17.2857 28.0183 17.3439 27.9993 17.3961 27.9686C17.4628 27.9285 17.5179 27.8718 17.5562 27.804C17.5945 27.7363 17.6146 27.6598 17.6146 27.582C17.6146 27.5042 17.5945 27.4277 17.5562 27.3599C17.5179 27.2922 17.4628 27.2355 17.3961 27.1953C17.4977 27.2093 17.5931 27.2519 17.6714 27.3181C17.7497 27.3842 17.8076 27.4713 17.8383 27.569C17.869 27.6668 17.8713 27.7713 17.845 27.8704C17.8186 27.9694 17.7647 28.059 17.6894 28.1285C17.6141 28.1981 17.5206 28.2449 17.4198 28.2634C17.319 28.2819 17.215 28.2713 17.12 28.233C17.0249 28.1947 16.9427 28.1302 16.8828 28.0469C16.823 27.9637 16.7881 27.8652 16.7821 27.7629H16.7921Z" fill="#EBEBEB"/>
<path d="M113.486 24.5335L110.92 23.0565L112.331 22.7578L113.735 23.7369L113.486 24.5335Z" fill="#E0E0E0"/>
<path d="M108.995 11.3137C108.995 7.33082 106.556 5.48211 103.559 7.21133L99.1309 9.76699C96.1438 11.4962 93.6976 16.1561 93.6976 20.1523C93.6976 20.3149 93.6976 20.4842 93.6976 20.6269C93.6976 20.7165 93.6976 20.7928 93.6976 20.8791C93.6976 20.9654 93.7142 21.0351 93.7209 21.1115C93.7275 21.1878 93.7408 21.2874 93.7541 21.3737C93.8208 21.8453 93.9388 22.3083 94.1059 22.7544C94.1756 22.9203 94.2486 23.0863 94.3283 23.2257C94.3651 23.3027 94.4072 23.377 94.4544 23.4481L94.4975 23.5178C94.5714 23.6367 94.657 23.7479 94.7531 23.8497C94.8062 23.9094 94.856 23.9725 94.9124 24.0289L95.085 24.1948C95.1447 24.2413 95.2012 24.2977 95.2642 24.3442C95.3238 24.3922 95.3871 24.4355 95.4534 24.4736L95.6492 24.5865C95.9029 24.7234 96.1778 24.8165 96.4624 24.862C96.4842 24.8566 96.507 24.8566 96.5288 24.862C96.6051 24.862 96.6748 24.8786 96.7512 24.8786C96.8318 24.8852 96.9128 24.8852 96.9934 24.8786C97.2068 24.8809 97.4196 24.8575 97.6274 24.8089C97.7517 24.7842 97.8746 24.7531 97.9958 24.7159C98.3836 24.5971 98.7558 24.4322 99.1043 24.2247L103.532 21.6691C103.835 21.4929 104.126 21.2954 104.402 21.0783C104.402 21.0252 104.402 20.9787 104.402 20.9289C104.402 20.8791 104.402 20.7729 104.402 20.7132C104.402 20.5804 104.402 20.4443 104.402 20.3083C104.392 16.9129 106.436 12.9068 108.995 11.3137Z" fill="#E0E0E0"/>
<path d="M109.742 8.44123L107.17 6.96094C107.186 6.96094 107.432 8.7499 107.432 8.7499L109.34 8.9756L109.742 8.44123Z" fill="#E0E0E0"/>
<path d="M97.8563 25.8366L95.4799 24.489L96.9104 23.875L97.8563 25.8366Z" fill="#E0E0E0"/>
<path d="M99.1308 24.2661C99.1139 25.2497 98.7979 26.2048 98.2247 27.0043C98.1185 27.1437 98.2811 27.2665 98.4006 27.2035C98.9431 26.922 99.4238 26.5349 99.8145 26.065C100.565 25.1778 101.09 24.1222 101.345 22.9883L99.1308 24.2661Z" fill="#E0E0E0"/>
<path d="M98.2512 27.1938L100.823 28.6741C100.823 28.6741 102.267 27.456 102.267 24.99L99.4759 24.8008C99.4759 24.8008 99.4096 26.4072 98.2512 27.1938Z" fill="#E0E0E0"/>
<path d="M105.102 19.9396C105.102 20.0636 105.102 20.183 105.102 20.2981C105.102 20.3645 105.102 20.4209 105.102 20.484C105.102 20.547 105.102 20.6001 105.122 20.6599C105.142 20.7196 105.122 20.7926 105.145 20.859C105.183 21.153 105.252 21.4422 105.351 21.722C105.365 21.7729 105.383 21.8228 105.404 21.8713C105.428 21.938 105.456 22.0034 105.487 22.0672C105.513 22.1288 105.543 22.1887 105.576 22.2464C105.603 22.3042 105.634 22.3597 105.669 22.4123L105.703 22.4654C105.761 22.5569 105.825 22.6444 105.895 22.7276C105.931 22.776 105.971 22.8215 106.015 22.8637L106.141 22.9865C106.184 23.0269 106.229 23.0646 106.277 23.0994C106.322 23.1345 106.37 23.1667 106.419 23.1956C106.469 23.2255 106.516 23.2554 106.569 23.2819L106.721 23.3549L106.881 23.4114C106.978 23.4408 107.077 23.4651 107.176 23.4844H107.226C107.281 23.4894 107.337 23.4894 107.392 23.4844C107.451 23.4911 107.512 23.4911 107.571 23.4844C107.714 23.4843 107.856 23.4699 107.996 23.4412C108.108 23.4222 108.219 23.3967 108.328 23.3649C108.619 23.2756 108.899 23.1519 109.161 22.9965L112.48 21.0781C112.776 20.9072 113.055 20.7083 113.313 20.484C113.406 20.4043 113.499 20.318 113.592 20.2317C113.759 20.0759 113.918 19.9108 114.067 19.7372L114.279 19.5447C114.335 19.4783 114.388 19.4086 114.445 19.3389C114.459 19.3148 114.475 19.2925 114.495 19.2725C114.716 18.9803 114.92 18.6756 115.105 18.3598C115.155 18.2768 115.202 18.1905 115.251 18.1042C115.301 18.0179 115.348 17.9316 115.394 17.842C115.441 17.7524 115.484 17.6628 115.53 17.5765L115.656 17.3043C115.699 17.2147 115.739 17.1185 115.779 17.0322C115.849 16.8729 115.912 16.7003 115.968 16.5476C115.968 16.5177 115.992 16.4878 116.002 16.458C116.038 16.365 116.068 16.2721 116.098 16.1792C116.158 16 116.211 15.8207 116.264 15.6349C116.381 15.1986 116.468 14.7551 116.526 14.3072C116.526 14.2309 116.543 14.1579 116.552 14.0815C116.562 14.0052 116.552 13.9521 116.569 13.8857C116.586 13.8193 116.569 13.753 116.569 13.6866C116.569 13.5627 116.569 13.4399 116.569 13.3182C116.569 10.331 114.74 8.93372 112.49 10.2315L109.171 12.1532C106.931 13.4443 105.102 16.9392 105.102 19.9396Z" fill="#E0E0E0"/>
<path d="M117.767 11.5061L115.215 10.0391L114.252 10.7195L117.229 12.5217L117.767 11.5061Z" fill="#E0E0E0"/>
<path d="M109.005 24.6715L106.439 23.1945L108.451 22.5938L109.005 24.6715Z" fill="#E0E0E0"/>
<path d="M111.999 21.3984C111.999 21.9295 112.662 22.653 113.423 22.7891C113.525 22.809 113.499 23.0347 113.376 23.121C112.923 23.3671 112.401 23.4536 111.892 23.3666C111.562 23.3568 111.241 23.2594 110.961 23.0844C110.681 22.9095 110.453 22.6632 110.299 22.3709L111.999 21.3984Z" fill="#37ED81"/>
<path d="M106.127 8.68633L101.696 11.2453C98.7093 12.9745 96.2665 17.6345 96.2665 21.6273C96.2665 21.7932 96.2665 21.9592 96.2665 22.1052C96.2665 22.1948 96.2665 22.2711 96.2665 22.3574C96.2665 22.4437 96.2831 22.5101 96.293 22.5865C96.303 22.6628 96.3129 22.769 96.3262 22.852C96.3861 23.3219 96.4974 23.7838 96.6581 24.2294C96.7278 24.3987 96.8008 24.5613 96.8805 24.704C96.9171 24.78 96.9593 24.8532 97.0066 24.9231C97.0206 24.9473 97.0361 24.9706 97.0531 24.9928C97.1252 25.1182 97.2097 25.236 97.3053 25.3446C97.3584 25.4043 97.4115 25.4707 97.468 25.5238L97.6372 25.6898C97.697 25.7362 97.7567 25.7926 97.8165 25.8391C97.8766 25.8864 97.9398 25.9296 98.0057 25.9686L98.2048 26.0814C98.4575 26.2178 98.7312 26.3109 99.0146 26.3569C99.0362 26.3496 99.0595 26.3496 99.081 26.3569C99.1574 26.3569 99.2304 26.3569 99.3034 26.3569C99.3841 26.3618 99.465 26.3618 99.5457 26.3569C99.759 26.3578 99.9716 26.3344 100.18 26.2872C100.304 26.2625 100.427 26.2314 100.548 26.1942C100.935 26.0744 101.307 25.9107 101.657 25.7064C101.64 26.6895 101.323 27.644 100.747 28.4412C100.641 28.584 100.804 28.7068 100.926 28.6437C101.47 28.3619 101.95 27.9736 102.34 27.502C103.089 26.6147 103.614 25.5607 103.87 24.4285L103.538 24.6111L106.071 23.1507C106.316 23.0095 106.552 22.8532 106.778 22.6827C106.758 22.5985 106.744 22.5131 106.735 22.4271C106.735 22.3707 106.715 22.2877 106.708 22.2014C106.696 22.1278 106.688 22.0536 106.685 21.9791V21.9392C106.682 21.884 106.682 21.8286 106.685 21.7733C106.685 21.6472 106.685 21.5144 106.685 21.3816C106.685 18.0228 108.676 14.2358 111.239 12.7521L111.521 12.5862C111.494 8.74607 109.081 6.98034 106.127 8.68633Z" fill="#F0F0F0"/>
<path d="M115.072 11.7025L111.753 13.6209C109.506 14.922 107.674 18.4169 107.674 21.4173C107.674 21.5401 107.674 21.6596 107.674 21.7758C107.674 21.892 107.674 21.8986 107.674 21.9617C107.674 22.0247 107.674 22.0778 107.691 22.1376C107.696 22.2033 107.705 22.2686 107.717 22.3334C107.754 22.6289 107.823 22.9194 107.923 23.1997C107.936 23.2511 107.953 23.3011 107.976 23.349C107.998 23.4148 108.025 23.4791 108.056 23.5415C108.082 23.604 108.112 23.6649 108.145 23.7241C108.173 23.782 108.205 23.8375 108.242 23.89C108.249 23.9089 108.259 23.9267 108.271 23.9431C108.334 24.0361 108.398 24.1224 108.464 24.2053C108.502 24.253 108.543 24.2984 108.587 24.3414L108.713 24.4642C108.756 24.5046 108.801 24.5423 108.849 24.5771C108.893 24.6129 108.939 24.6451 108.988 24.6733C109.038 24.7032 109.085 24.7331 109.138 24.7596L109.29 24.8326L109.45 24.8891C109.547 24.9185 109.645 24.9428 109.745 24.9621H109.795C109.85 24.9671 109.906 24.9671 109.961 24.9621C110.021 24.9705 110.083 24.9705 110.143 24.9621C110.286 24.9629 110.428 24.9496 110.568 24.9222C110.68 24.903 110.791 24.8775 110.9 24.8459C111.192 24.7579 111.472 24.6341 111.733 24.4775L112.855 23.8336C113.011 24.1228 113.24 24.3657 113.52 24.5377C113.8 24.7096 114.12 24.8045 114.448 24.8127C114.957 24.8984 115.479 24.8107 115.932 24.5638C116.051 24.4875 116.081 24.2618 115.975 24.2319C115.215 24.0958 114.554 23.3723 114.554 22.8412L115.059 22.5491C115.354 22.3775 115.633 22.1786 115.892 21.955C115.985 21.8754 116.078 21.7891 116.167 21.7028C116.336 21.547 116.495 21.3819 116.645 21.2082C116.705 21.1385 116.765 21.0722 116.825 20.9925C116.884 20.9128 116.934 20.8597 116.99 20.79L117.04 20.7237C117.261 20.4315 117.465 20.1267 117.651 19.8109L117.8 19.5554C117.85 19.4691 117.897 19.3828 117.943 19.2932C117.99 19.2035 118.029 19.1139 118.076 19.0276L118.205 18.7555C118.248 18.6625 118.285 18.5696 118.325 18.4833C118.394 18.324 118.461 18.1514 118.517 17.9987L118.547 17.9091C118.584 17.8162 118.617 17.7233 118.643 17.6303C118.706 17.4478 118.756 17.2719 118.813 17.086C118.929 16.6498 119.017 16.2063 119.075 15.7584C119.075 15.682 119.091 15.609 119.098 15.5327C119.105 15.4564 119.098 15.3999 119.115 15.3369C119.131 15.2738 119.115 15.2041 119.115 15.1377C119.115 15.0149 119.115 14.8888 119.115 14.766C119.151 11.7888 117.319 10.4048 115.072 11.7025Z" fill="#F0F0F0"/>
<path d="M88.4071 55.6062C87.1525 55.2146 85.8647 56.2302 85.0216 58.2814C84.1786 60.3325 82.4096 65.5501 82.1474 66.9407C81.8852 68.3314 87.8196 71.3584 87.6536 71.2787C87.4877 71.1991 88.4071 55.6062 88.4071 55.6062Z" fill="#263238"/>
<path d="M85.6489 103.885C85.4697 103.952 85.4265 104.29 85.4 104.961C85.3801 105.468 85.2706 106.355 85.8647 106.531C86.4588 106.706 87.3317 106.617 87.7134 106.139C88.188 105.541 88.5099 105.017 89.187 104.287C89.7778 103.656 90.4117 103.065 90.6507 102.179C90.8665 101.376 90.6872 101.031 90.1396 100.799C89.3895 100.467 88.2079 101.522 87.6204 101.688C87.1126 101.831 85.8248 103.819 85.6489 103.885Z" fill="#263238"/>
<path d="M85.6489 103.264V104.087C85.9579 104.284 86.3149 104.394 86.6816 104.404C87.0483 104.414 87.4107 104.324 87.73 104.143C87.7665 104.063 87.9457 102.965 87.9457 102.965L85.6489 103.264Z" fill="#FFA8A7"/>
<path d="M92.3168 108.629C92.3168 108.629 92.0812 109.346 91.9551 109.957C91.8522 110.454 91.7095 111.284 91.882 111.663C92.0546 112.041 92.7384 112.28 93.7905 112.27C94.4742 112.27 95.5396 112.731 96.2665 113.136C96.9934 113.541 98.5898 113.724 99.3831 113.631C100.319 113.521 101.292 112.967 101.444 112.589C101.597 112.21 101.394 111.795 99.1839 110.853C99.164 110.853 96.1105 109.857 95.0385 108.672L92.3168 108.629Z" fill="#263238"/>
<path d="M92.3169 107.742C92.3169 107.742 92.3169 108.353 92.3169 108.701C92.3169 109.05 92.7285 109.571 93.7972 109.534C94.5473 109.508 95.0684 109.305 95.0385 108.688V107.795L92.3169 107.742Z" fill="#FFA8A7"/>
<path d="M85.1112 92.3333C85.2947 90.8745 85.6204 89.4372 86.0837 88.0418C86.0837 88.0418 85.7916 84.3411 85.6489 80.8328C85.4962 77.0425 85.6489 72.2764 85.5858 71.3338C85.5858 71.3338 97.8165 68.8578 98.0355 73.2389C98.2546 77.62 97.551 88.772 97.4083 90.697C97.2655 92.6221 96.9303 94.3247 96.532 97.4446C96.1337 100.565 95.0385 107.793 95.0385 107.793C94.6154 108.009 94.1457 108.117 93.671 108.108C93.1963 108.098 92.7312 107.972 92.3168 107.74C92.3168 107.74 91.4572 98.978 91.5468 96.7576C91.6168 95.1083 91.9001 93.475 92.3899 91.8985L91.9551 85.1443C91.7493 82.0011 91.5336 80.4976 91.4838 79.1269L91.2216 78.9941C91.2216 78.9941 90.9527 84.4174 90.81 86.3424C90.6673 88.2675 90.3586 90.1129 89.8143 93.6875C89.3297 96.7875 87.8926 103.349 87.8926 103.349C86.4953 104.106 85.6622 103.253 85.6622 103.253C85.6622 103.253 84.7395 95.0217 85.1112 92.3333Z" fill="#455A64"/>
<path d="M91.4838 79.1368C91.4838 79.1368 88.5166 77.6731 87.033 76.3555C87.033 76.3555 88.4104 78.2971 90.2225 79.16C90.2225 79.16 90.8665 85.8944 90.8631 85.7616L91.2349 79.1235L91.4838 79.1368Z" fill="#37474F"/>
<path d="M94.1258 54.2184L93.4023 58.2013L89.8044 57.9391L90.5579 53.4219L94.1258 54.2184Z" fill="#FFA8A7"/>
<path d="M86.0041 57.6474C86.3592 56.5654 87.7333 55.3871 89.1074 55.656C91.1511 56.0017 93.165 56.5044 95.1315 57.1595C96.3894 57.6076 97.5344 58.6962 97.6407 62.8384L98.2779 75.1719L96.7545 75.5038L96.2234 72.7092L95.9778 75.5038C94.3847 75.9021 91.6199 75.5735 89.8044 75.1719C86.0207 74.3455 85.566 72.7756 85.566 72.7756C85.566 72.7756 85.5162 65.8355 85.6291 62.8384C85.7353 60.2761 85.7585 58.3776 86.0041 57.6474Z" fill="#37474F"/>
<path d="M96.7876 49.5C96.7876 49.5 97.6605 50.7911 97.5477 50.9272C97.3459 51.0632 97.1209 51.1611 96.8839 51.2159L96.7876 49.5Z" fill="#FFA8A7"/>
<path d="M94.1258 45.4114C94.9655 45.8362 96.4159 46.6195 96.8142 49.6896C97.2258 52.8427 96.6848 53.8583 96.2599 54.2765C95.9712 54.5586 94.4046 54.5752 93.6213 54.3396C92.6256 54.0442 90.4284 53.2045 89.4194 51.5848C88.2312 49.6797 87.9657 47.1273 89.3066 46.1117C91.1885 44.6845 93.4155 45.0529 94.1258 45.4114Z" fill="#FFA8A7"/>
<path d="M96.9902 46.4633C96.7147 47.2201 96.25 49.0721 94.3183 49.8454C94.3183 49.8454 94.0428 48.6639 93.0505 48.79C92.0581 48.9161 91.8888 50.1807 92.4995 50.9673C93.1102 51.7539 93.701 51.4685 93.701 51.4685C93.701 51.4685 93.8337 53.1612 92.7053 53.9279C92.7053 53.9279 91.3412 54.7908 89.8974 54.127C89.2336 53.8283 88.3275 52.2717 87.7898 50.9938C86.648 48.2921 86.4854 46.1248 88.208 45.4411C88.4204 44.213 88.9747 43.7517 90.0865 43.5227C92.4796 43.0281 94.2884 44.6014 96.2998 44.3259C97.3519 44.1798 97.3055 45.6004 96.9902 46.4633Z" fill="#37474F"/>
<path d="M88.1681 45.8532L87.0397 45.1562C87.0834 45.078 87.1425 45.0095 87.2134 44.9547C87.2844 44.9 87.3656 44.8602 87.4524 44.8377C87.5391 44.8152 87.6295 44.8105 87.7181 44.8238C87.8067 44.8372 87.8916 44.8684 87.9678 44.9154C88.0441 44.9625 88.11 45.0246 88.1616 45.0978C88.2132 45.171 88.2495 45.2539 88.2682 45.3415C88.2869 45.4292 88.2877 45.5197 88.2705 45.6076C88.2533 45.6955 88.2185 45.7791 88.1681 45.8532Z" fill="#37474F"/>
<path d="M93.8602 55.6697L94.2718 56.8613C94.2718 56.8613 93.9698 57.3923 92.6853 57.4189C91.4008 57.4454 90.0301 57.0372 89.6052 56.4896C89.5085 56.3823 89.4369 56.2549 89.3955 56.1166C89.3542 55.9782 89.3442 55.8324 89.3663 55.6897C89.3663 55.6897 89.8774 54.5612 90.362 54.611L90.2823 55.1022C90.2823 55.1022 90.3919 55.5038 91.5568 55.8125C93.369 56.2937 93.8602 55.6697 93.8602 55.6697Z" fill="#455A64"/>
<path d="M104.182 63.588C104.7 62.9939 104.899 61.6762 105.59 60.7734C106.28 59.8707 106.536 59.2102 106.808 59.6051C107.17 60.1262 106.353 61.1717 106.536 61.2647C106.718 61.3576 107.392 62.7449 107.462 63.5083C107.531 64.2717 105.507 66.1967 105.507 66.1967L104.182 63.588Z" fill="#FFA8A7"/>
<path d="M93.8602 55.6681C93.9437 55.6664 94.0261 55.6875 94.0986 55.729C94.1711 55.7705 94.2309 55.8309 94.2718 55.9037C94.4748 56.2702 94.6565 56.6481 94.8161 57.0355L94.2718 56.8596L93.8602 55.6681Z" fill="#455A64"/>
<path d="M106.479 61.1569C106.479 61.1569 108.925 60.9445 109.281 61.1569C109.636 61.3693 109.529 62.4281 109.281 63.0786C109.032 63.7292 107.784 64.1507 106.625 64.934C106.625 64.8145 106.479 61.1569 106.479 61.1569Z" fill="#FFA8A7"/>
<path d="M94.8162 57.0508C95.8683 57.4192 96.7877 57.8407 97.7702 59.6861C99.0314 62.0559 101.421 65.8462 101.421 65.8462L104.173 63.42C104.173 63.42 104.587 63.0184 105.361 64.2962C105.587 64.6402 105.731 65.0322 105.78 65.4412C105.829 65.8502 105.782 66.265 105.643 66.6528C105.643 66.6528 102.467 70.38 101.859 70.9476C101.252 71.5151 100.246 71.0737 99.5923 70.1809C98.9385 69.2881 94.8063 64.127 94.8063 64.127C94.8063 64.127 92.5626 61.1465 94.8162 57.0508Z" fill="#37474F"/>
<path d="M123.197 50.8516H115.361C115.065 50.8516 114.782 50.7341 114.572 50.5249C114.363 50.3158 114.246 50.0321 114.246 49.7364V37.2867C114.246 36.3069 114.635 35.3673 115.328 34.6745C116.02 33.9818 116.96 33.5926 117.94 33.5926H120.628C121.606 33.5952 122.543 33.9856 123.234 34.6781C123.925 35.3705 124.312 36.3086 124.312 37.2867V49.7364C124.312 50.0321 124.195 50.3158 123.986 50.5249C123.777 50.7341 123.493 50.8516 123.197 50.8516Z" fill="#37474F"/>
<path d="M114.04 46.6054C113.28 48.8457 112.005 55.2913 112.005 55.2913C112.005 55.2913 109.35 58.5373 108.484 59.3239C108.009 59.762 106.941 60.5486 106.941 60.5486L108.882 61.9758C110.635 60.6274 112.282 59.1461 113.808 57.5449C114.147 57.1838 114.385 56.7396 114.498 56.2571L115.826 50.5617C115.826 50.5617 115.826 45.9814 116.526 45.3806C117.226 44.7799 117.429 44.6538 117.429 44.6538C116.529 44.5874 114.637 44.843 114.04 46.6054Z" fill="#F28F8F"/>
<path d="M117.844 44.5845C116.606 44.4418 115.019 44.4683 114.246 45.8524C113.472 47.2364 112.185 54.3923 112.185 54.3923C112.185 54.3923 113.403 55.3382 114.717 55.3216L117.844 44.5845Z" fill="#37ED81"/>
<path d="M114.402 51.2539C114.625 52.3206 114.711 53.4115 114.657 54.4999C114.561 55.9338 113.572 58.4363 113.572 58.4363C113.572 58.4363 114.345 59.286 116.526 58.9441C118.302 58.6686 117.674 53.3018 116.655 52.2729C116.061 51.6589 115.255 51.2946 114.402 51.2539Z" fill="#37ED81"/>
<path opacity="0.3" d="M114.402 51.2539C114.625 52.3206 114.711 53.4115 114.657 54.4999C114.561 55.9338 113.572 58.4363 113.572 58.4363C113.572 58.4363 114.345 59.286 116.526 58.9441C118.302 58.6686 117.674 53.3018 116.655 52.2729C116.061 51.6589 115.255 51.2946 114.402 51.2539Z" fill="black"/>
<path d="M118.504 89.1571C118.518 89.4019 118.457 89.6452 118.328 89.8541C118 90.3965 117.614 90.9018 117.177 91.3609C116.562 92.0247 115.643 92.8047 114.983 93.3789C114.618 93.7108 114.604 94.1821 115.129 94.3514C116.106 94.5894 117.138 94.4458 118.013 93.9498C118.677 93.5979 119.599 91.9584 120.144 91.726C120.771 91.4439 121.12 91.3045 121.332 91.0157C121.493 90.8516 121.593 90.6378 121.616 90.4094C121.64 90.1809 121.585 89.9512 121.461 89.7578C121.166 89.2069 120.721 88.3605 120.539 88.4568L120.595 88.6294C120.452 89.0774 119.231 89.5985 118.604 89.4757L118.504 89.1571Z" fill="#37474F"/>
<path d="M124.9 70.4331C125.182 67.446 125.992 62.64 125.162 59.082L114.143 59.6662C113.838 63.1744 113.479 74.1272 113.864 75.3818C114.309 76.8621 118.282 87.108 118.511 89.1691C118.527 89.411 118.465 89.6516 118.335 89.8562C118.007 90.3999 117.621 90.9063 117.183 91.3663C116.884 91.6982 116.519 92.0301 116.134 92.362C116.102 92.4094 116.083 92.4643 116.078 92.5213C116.078 92.8532 116.914 92.9561 117.406 92.8134C118.018 92.5972 118.546 92.1915 118.912 91.6551C119.194 91.28 119.828 90.5598 120.24 90.0188C120.377 89.8518 120.494 89.6691 120.588 89.4745C120.698 89.2314 120.717 88.9569 120.642 88.7011L120.615 88.6181C120.4 87.9463 120.266 87.2509 120.217 86.5471C120.064 84.2868 119.676 79.066 119.317 77.6753C119.068 76.6619 118.69 75.6847 118.192 74.7678L119.45 64.98C119.45 64.98 119.583 73.6095 119.974 75.81C120.283 77.5724 120.403 79.7762 120.764 82.7999C121.096 85.6941 121.481 90.7921 121.481 90.7921C121.491 90.7939 121.501 90.7939 121.511 90.7921V93.2283H123.572V91.8144C123.572 91.176 123.626 90.5388 123.732 89.9093C124.064 87.9842 124.754 83.5799 124.897 82.0896C125.122 79.7264 124.269 76.7559 124.269 76.7559C124.269 76.7559 124.624 73.3473 124.9 70.4331Z" fill="#FFA8A7"/>
<path d="M121.017 44.69C121.017 44.69 123.98 45.0219 124.336 45.1912C121.554 47.1461 123.808 51.4974 123.808 51.4974L122.742 54.8396C123.927 56.3564 124.95 57.2592 125.584 58.922C126.287 60.7807 126.911 63.5455 126.745 69.2111C124.09 71.2025 116.011 70.9867 112.865 69.2111C112.865 69.2111 113.396 64.2093 114.023 60.3227C114.438 57.7571 115.417 54.9624 115.251 54.0165C114.003 50.1797 113.924 49.4893 114.149 48.633C114.77 46.2234 117.226 44.5938 117.83 44.5938L121.017 44.69Z" fill="#37ED81"/>
<path opacity="0.6" d="M121.017 44.69C121.017 44.69 123.98 45.0219 124.336 45.1912C121.554 47.1461 123.808 51.4974 123.808 51.4974L122.742 54.8396C123.927 56.3564 124.95 57.2592 125.584 58.922C126.287 60.7807 126.911 63.5455 126.745 69.2111C124.09 71.2025 116.011 70.9867 112.865 69.2111C112.865 69.2111 113.396 64.2093 114.023 60.3227C114.438 57.7571 115.417 54.9624 115.251 54.0165C114.003 50.1797 113.924 49.4893 114.149 48.633C114.77 46.2234 117.226 44.5938 117.83 44.5938L121.017 44.69Z" fill="white"/>
<path d="M121.491 92.1957V91.9003C121.232 92.8928 120.715 93.7988 119.991 94.5257C119.327 95.1264 118.431 95.8234 118.199 96.4972C117.966 97.171 119.264 97.473 120.121 97.3867C120.95 97.2853 121.715 96.8853 122.271 96.2616C122.816 95.6376 122.806 95.2127 123.058 94.8676C123.31 94.5224 123.898 94.144 124.034 93.7457C124.076 93.3741 124.035 92.9977 123.914 92.6438C123.818 92.2754 123.712 91.8671 123.582 91.9003V92.1293C123.284 92.3643 122.913 92.4897 122.533 92.4845C122.245 92.4911 121.488 92.4281 121.491 92.1957Z" fill="#37474F"/>
<path d="M123.572 92.1208C123.274 92.3558 122.903 92.4811 122.524 92.4759C122.218 92.4759 121.475 92.4262 121.478 92.1938V91.8984C121.219 92.8909 120.701 93.7969 119.978 94.5238L119.477 94.9719C119.125 95.3635 119.224 95.7054 120.051 95.7751C120.877 95.8448 121.604 95.3469 122.228 94.5802C122.76 93.8092 123.211 92.9849 123.572 92.1208Z" fill="#FFA8A7"/>
<path d="M115.899 35.6289C115.368 35.9442 114.71 37.2884 114.774 40.0831C114.83 42.4595 115.6 43.047 115.988 43.2162C116.377 43.3855 117.12 43.2826 117.844 43.1631V44.587C117.844 44.587 116.848 45.752 116.904 46.4058C116.961 47.0597 118.351 47.2123 119.291 46.5751C119.969 46.0492 120.553 45.4117 121.017 44.6899L121 41.414C121 41.414 121.428 41.8255 122.152 41.1949C122.749 40.6738 122.948 39.791 122.484 39.3197C122.363 39.2062 122.217 39.1233 122.058 39.0778C121.899 39.0322 121.731 39.0254 121.568 39.0579C121.406 39.0904 121.254 39.1612 121.124 39.2645C120.995 39.3677 120.892 39.5005 120.824 39.6516C120.824 39.6516 120.423 38.5331 118.753 37.9921C117.246 37.4909 116.426 36.9233 115.899 35.6289Z" fill="#FFA8A7"/>
<path d="M117.429 39.4902C117.429 39.5487 117.446 39.6059 117.478 39.6547C117.511 39.7035 117.556 39.7417 117.61 39.7647C117.664 39.7876 117.723 39.7943 117.781 39.7838C117.839 39.7733 117.892 39.7461 117.934 39.7057C117.976 39.6652 118.006 39.6132 118.019 39.5562C118.032 39.4991 118.028 39.4395 118.007 39.3848C117.986 39.33 117.95 39.2825 117.903 39.2481C117.856 39.2138 117.799 39.1941 117.741 39.1915C117.701 39.1906 117.661 39.1976 117.623 39.2122C117.586 39.2267 117.552 39.2485 117.523 39.2762C117.494 39.3039 117.471 39.3371 117.454 39.3738C117.438 39.4106 117.43 39.4501 117.429 39.4902Z" fill="#37474F"/>
<path d="M117.349 41.5L116.655 41.7224C116.668 41.7687 116.689 41.812 116.718 41.8498C116.748 41.8876 116.784 41.9191 116.826 41.9424C116.868 41.9656 116.914 41.9802 116.962 41.9852C117.01 41.9901 117.058 41.9854 117.103 41.9713C117.197 41.9394 117.275 41.8726 117.321 41.7848C117.366 41.6971 117.377 41.5951 117.349 41.5Z" fill="#F28F8F"/>
<path d="M114.979 38.5695L115.583 38.1513C115.558 38.1104 115.524 38.0752 115.485 38.0477C115.445 38.0203 115.4 38.0012 115.353 37.9915C115.306 37.9819 115.257 37.982 115.21 37.9918C115.163 38.0015 115.118 38.0208 115.079 38.0484C114.998 38.1054 114.942 38.1916 114.924 38.2888C114.905 38.386 114.925 38.4866 114.979 38.5695Z" fill="#37474F"/>
<path d="M118.298 38.7931L117.691 38.3749C117.717 38.3341 117.75 38.2989 117.789 38.2714C117.829 38.2439 117.874 38.2246 117.921 38.2147C117.968 38.2048 118.016 38.2045 118.064 38.2137C118.111 38.223 118.156 38.2417 118.195 38.2686C118.276 38.3268 118.331 38.4132 118.35 38.5106C118.369 38.6079 118.351 38.7089 118.298 38.7931Z" fill="#37474F"/>
<path d="M115.119 39.2681C115.118 39.3268 115.135 39.3843 115.167 39.4335C115.199 39.4827 115.244 39.5215 115.298 39.5449C115.352 39.5684 115.411 39.5755 115.469 39.5654C115.527 39.5553 115.58 39.5284 115.623 39.4881C115.665 39.4477 115.695 39.3958 115.708 39.3387C115.722 39.2815 115.718 39.2218 115.697 39.1668C115.677 39.1119 115.641 39.0642 115.593 39.0297C115.546 38.9951 115.489 38.9753 115.431 38.9727C115.35 38.9709 115.272 39.001 115.214 39.0563C115.156 39.1116 115.121 39.1877 115.119 39.2681Z" fill="#37474F"/>
<path d="M116.526 39.1016L116.479 40.9005L115.534 40.6084L116.526 39.1016Z" fill="#F28F8F"/>
<path d="M117.844 43.1632C118.607 43.0603 120.167 42.6089 120.426 41.9883C120.327 42.3027 120.135 42.5794 119.875 42.7815C119.404 43.1831 117.844 43.6378 117.844 43.6378V43.1632Z" fill="#F28F8F"/>
<path d="M123.257 53.0156L121.163 55.8501L122.742 54.8378L123.257 53.0156Z" fill="#37ED81"/>
<path d="M106.758 60.5488C106.31 61.1263 106.034 62.2481 105.799 62.6265C105.563 63.0049 105.281 63.3334 105.799 63.4031C106.317 63.4728 107.073 62.4605 107.355 61.8465C107.498 61.5002 107.768 61.2213 108.109 61.0665C107.867 60.9836 107.993 60.0111 107.823 59.875C107.823 59.875 106.941 60.2368 106.758 60.5488Z" fill="#F28F8F"/>
<path d="M106.625 64.9297C107.093 64.5812 107.11 64.1531 107.199 63.4727C107.289 62.7923 109.164 62.0554 109.224 62.5632C109.284 63.0711 109.453 63.4959 108.892 64.1132C108.331 64.7306 107.482 65.3877 106.625 64.9297Z" fill="#F28F8F"/>
<path d="M121.017 44.6875C121.017 44.6875 123.791 44.9298 124.336 45.1887C124.88 45.4476 125.786 47.0141 124.976 49.2877C124.166 51.5612 123.43 54.2364 123.513 54.7741C123.596 55.3117 125.531 58.0931 125.531 58.0931C124.997 58.4871 124.393 58.7766 123.752 58.9461L122.756 56.7821L122.988 59.0822C121.988 59.3254 120.96 59.4369 119.931 59.4141C119.931 59.4141 118.992 50.5788 121.017 44.6875Z" fill="#37ED81"/>
<path d="M127.854 55.5248C128.076 54.2171 127.854 53.789 127.396 52.5078L125.072 54.0113C125.263 54.4949 125.375 55.0059 125.404 55.5248C125.384 55.9032 124.87 59.6537 124.389 60.9614C124.302 61.1939 124.132 61.3857 123.911 61.4991C123.432 61.7913 122.998 62.1513 122.623 62.5678C122.268 62.8997 121.982 62.9595 122.019 63.0723C122.074 63.1947 122.172 63.2925 122.294 63.347C122.417 63.4015 122.555 63.4089 122.683 63.3677C122.972 63.2738 123.249 63.1468 123.509 62.9893C123.279 63.4775 122.972 63.9257 122.6 64.3169C121.747 65.2264 121.67 65.8171 123.264 65.94C124.259 66.0163 125.092 65.4587 125.992 63.3179C126.271 62.5331 126.5 61.7317 126.679 60.9183C127.163 59.0629 127.635 56.8425 127.854 55.5248Z" fill="#FFA8A7"/>
<path d="M124.336 45.1914C125.454 45.6926 125.773 46.6817 126.188 48.1354C126.603 49.5891 127.904 53.9503 127.904 53.9503C127.904 53.9503 126.788 55.278 125.248 54.9062L123.257 50.0704C123.257 50.0704 122.328 46.914 124.336 45.1914Z" fill="#37ED81"/>
</svg>
