<svg width="175" height="130" viewBox="0 0 175 130" fill="none" xmlns="http://www.w3.org/2000/svg">
<path d="M175 114.242H0V114.329H175V114.242Z" fill="#EBEBEB"/>
<path d="M157.465 119.855H145.873V119.943H157.465V119.855Z" fill="#EBEBEB"/>
<path d="M115.927 120.805H112.885V120.892H115.927V120.805Z" fill="#EBEBEB"/>
<path d="M145.523 116.617H138.806V116.704H145.523V116.617Z" fill="#EBEBEB"/>
<path d="M33.4775 117.203H18.361V117.29H33.4775V117.203Z" fill="#EBEBEB"/>
<path d="M38.8116 117.203H36.5961V117.29H38.8116V117.203Z" fill="#EBEBEB"/>
<path d="M78.8025 118.676H46.0145V118.763H78.8025V118.676Z" fill="#EBEBEB"/>
<path d="M82.95 98.6794H15.3685C14.8391 98.6785 14.3317 98.4682 13.9576 98.0946C13.5836 97.7211 13.3735 97.2148 13.3735 96.687V1.97498C13.3781 1.45019 13.5903 0.948404 13.9638 0.578614C14.3373 0.208824 14.8421 0.000898997 15.3685 0H82.95C83.4801 0 83.9884 0.209916 84.3632 0.58357C84.738 0.957223 84.9485 1.464 84.9485 1.99243V96.687C84.9485 97.2154 84.738 97.7222 84.3632 98.0958C83.9884 98.4695 83.4801 98.6794 82.95 98.6794ZM15.3685 0.0697877C14.8623 0.070712 14.3771 0.271845 14.0195 0.629038C13.6619 0.986232 13.461 1.4703 13.461 1.97498V96.687C13.461 97.1917 13.6619 97.6757 14.0195 98.0329C14.3771 98.3901 14.8623 98.5912 15.3685 98.5922H82.95C83.4566 98.5912 83.9421 98.3902 84.3003 98.0331C84.6585 97.676 84.8601 97.192 84.861 96.687V1.97498C84.8601 1.46998 84.6585 0.985919 84.3003 0.628825C83.9421 0.271731 83.4566 0.0707101 82.95 0.0697877H15.3685Z" fill="#EBEBEB"/>
<path d="M158.659 98.6794H91.0736C90.5438 98.6785 90.036 98.4683 89.6614 98.0948C89.2869 97.7214 89.076 97.2151 89.0751 96.687V1.97498C89.0806 1.44987 89.2935 0.948089 89.6676 0.578396C90.0417 0.208702 90.5468 0.000889193 91.0736 0H158.659C159.184 0.00181604 159.688 0.210147 160.061 0.579839C160.434 0.94953 160.645 1.45079 160.65 1.97498V96.687C160.65 97.2142 160.44 97.7199 160.067 98.0934C159.694 98.4668 159.187 98.6776 158.659 98.6794ZM91.0736 0.0697877C90.567 0.0707101 90.0815 0.271731 89.7233 0.628825C89.3651 0.985919 89.1635 1.46998 89.1626 1.97498V96.687C89.1635 97.192 89.3651 97.676 89.7233 98.0331C90.0815 98.3902 90.567 98.5912 91.0736 98.5922H158.659C159.165 98.5912 159.651 98.3902 160.009 98.0331C160.367 97.676 160.569 97.192 160.57 96.687V1.97498C160.569 1.46998 160.367 0.985919 160.009 0.628825C159.651 0.271731 159.165 0.0707101 158.659 0.0697877H91.0736Z" fill="#EBEBEB"/>
<path d="M151.893 12.7891H19.3236V58.9465H151.893V12.7891Z" fill="#E6E6E6"/>
<path d="M153.671 12.7891H20.1531V58.9465H153.671V12.7891Z" fill="#F0F0F0"/>
<path d="M151.893 58.9453H19.3236V60.5888H151.893V58.9453Z" fill="#E6E6E6"/>
<path d="M154.735 58.9453H21.217V60.5888H154.735V58.9453Z" fill="#F0F0F0"/>
<path d="M151.182 56.4681V15.2656L22.638 15.2656V56.4681L151.182 56.4681Z" fill="#FAFAFA"/>
<path d="M104.391 56.4681L108.37 15.2656H115.258L111.275 56.4681H104.391Z" fill="white"/>
<path d="M63.7419 56.4681L67.7214 15.2656H74.6059L70.6264 56.4681H63.7419Z" fill="white"/>
<path d="M24.332 49.8474C24.2671 49.8474 24.2047 49.8217 24.1588 49.7759C24.1128 49.7301 24.087 49.6679 24.087 49.6031V16.9357C24.087 16.8709 24.1128 16.8088 24.1588 16.7629C24.2047 16.7171 24.2671 16.6914 24.332 16.6914C24.397 16.6914 24.4593 16.7171 24.5053 16.7629C24.5512 16.8088 24.577 16.8709 24.577 16.9357V49.6031C24.577 49.6679 24.5512 49.7301 24.5053 49.7759C24.4593 49.8217 24.397 49.8474 24.332 49.8474Z" fill="#F0F0F0"/>
<path d="M112.756 56.4681L116.735 15.2656H119.42L115.44 56.4681H112.756Z" fill="white"/>
<path d="M151.186 56.472V15.2695H150.871V56.472H151.186Z" fill="#E6E6E6"/>
<path opacity="0.5" d="M154.259 18.2543H21.6896L21.4586 16.2305H154.028L154.259 18.2543Z" fill="#E0E0E0"/>
<path opacity="0.5" d="M154.259 21.575H21.6896L21.4586 19.5547H154.028L154.259 21.575Z" fill="#E0E0E0"/>
<path opacity="0.5" d="M154.259 24.8988H21.6896L21.4586 22.875H154.028L154.259 24.8988Z" fill="#E0E0E0"/>
<path opacity="0.5" d="M154.259 28.2235H21.6896L21.4586 26.2031H154.028L154.259 28.2235Z" fill="#E0E0E0"/>
<path opacity="0.5" d="M154.259 31.5438H21.6896L21.4586 29.5234H154.028L154.259 31.5438Z" fill="#E0E0E0"/>
<path opacity="0.5" d="M154.259 34.8676H21.6896L21.4586 32.8438H154.028L154.259 34.8676Z" fill="#E0E0E0"/>
<path d="M102.616 100.062H122.566C122.879 100.061 123.179 99.9374 123.401 99.7171C123.622 99.4969 123.748 99.1983 123.749 98.8864C123.749 98.5739 123.624 98.2745 123.402 98.0535C123.18 97.8325 122.88 97.708 122.566 97.707H102.616C102.303 97.708 102.003 97.8325 101.781 98.0535C101.559 98.2745 101.434 98.5739 101.433 98.8864C101.435 99.1983 101.561 99.4969 101.782 99.7171C102.004 99.9374 102.304 100.061 102.616 100.062Z" fill="#EBEBEB"/>
<path d="M125.59 97.7055H126.255L128.786 81.2461H128.121L125.59 97.7055Z" fill="#E0E0E0"/>
<path d="M115.468 97.7055H116.13L118.66 81.2461H117.999L115.468 97.7055Z" fill="#E0E0E0"/>
<path d="M115.441 94.3981H128.45C128.885 94.384 129.302 94.2203 129.63 93.9348C129.958 93.6492 130.177 93.2594 130.249 92.8314L132.234 79.0867C132.27 78.8924 132.262 78.6925 132.21 78.5017C132.159 78.3108 132.065 78.1339 131.936 77.9837C131.808 77.8335 131.647 77.7139 131.466 77.6337C131.285 77.5535 131.088 77.5146 130.89 77.52H117.877C117.441 77.5341 117.025 77.6978 116.697 77.9834C116.369 78.2689 116.15 78.6587 116.078 79.0867L114.1 92.8174C114.062 93.0124 114.069 93.2132 114.119 93.4053C114.17 93.5974 114.263 93.7758 114.391 93.9274C114.52 94.079 114.681 94.1999 114.862 94.2814C115.044 94.3629 115.241 94.4027 115.441 94.3981Z" fill="#EBEBEB"/>
<path d="M117.362 100.062H126.487C126.799 100.061 127.099 99.9372 127.32 99.7169C127.541 99.4966 127.665 99.198 127.666 98.8864C127.665 98.5745 127.541 98.2756 127.32 98.0547C127.099 97.8338 126.799 97.7089 126.487 97.707H117.362C117.049 97.708 116.749 97.8326 116.528 98.0537C116.307 98.2748 116.182 98.5742 116.182 98.8864C116.183 99.198 116.308 99.4966 116.529 99.7169C116.75 99.9372 117.049 100.061 117.362 100.062Z" fill="#F5F5F5"/>
<path d="M112.396 114.243H113.061L115.591 100.062H114.926L112.396 114.243Z" fill="#E0E0E0"/>
<path d="M100.895 114.243H101.556L104.087 100.062H103.425L100.895 114.243Z" fill="#E0E0E0"/>
<path d="M116.847 114.243H116.186L113.655 100.062H114.317L116.847 114.243Z" fill="#E0E0E0"/>
<path d="M128.352 114.243H127.687L125.157 100.062H125.822L128.352 114.243Z" fill="#E0E0E0"/>
<path d="M43.3685 100.062H23.45C23.1371 100.061 22.8373 99.937 22.6157 99.7167C22.3942 99.4965 22.2688 99.1979 22.267 98.886C22.267 98.5729 22.3915 98.2726 22.6132 98.0508C22.835 97.8291 23.1359 97.704 23.45 97.7031H43.4C43.7134 97.704 44.0138 97.8286 44.2355 98.0496C44.4571 98.2706 44.582 98.57 44.583 98.8825C44.5825 99.04 44.5506 99.1957 44.489 99.3407C44.4275 99.4856 44.3375 99.6169 44.2244 99.7267C44.1112 99.8366 43.9773 99.9228 43.8303 99.9804C43.6833 100.038 43.5263 100.066 43.3685 100.062Z" fill="#EBEBEB"/>
<path d="M20.3945 97.7055H19.7295L17.199 81.2461H17.864L20.3945 97.7055Z" fill="#E0E0E0"/>
<path d="M30.5165 97.7055H29.855L27.3245 81.2461H27.986L30.5165 97.7055Z" fill="#E0E0E0"/>
<path d="M30.5479 94.3964H17.5454C17.1088 94.381 16.6911 94.2149 16.3637 93.9267C16.0362 93.6384 15.8193 93.2457 15.7499 92.8158L13.7654 79.0711C13.7293 78.8768 13.7373 78.6769 13.7886 78.4861C13.84 78.2952 13.9336 78.1182 14.0624 77.9681C14.1912 77.8179 14.3521 77.6983 14.5332 77.6181C14.7144 77.5379 14.9112 77.499 15.1094 77.5044H28.1084C28.5435 77.5185 28.9604 77.6822 29.2883 77.9677C29.6162 78.2533 29.8349 78.6431 29.9074 79.0711L31.8919 92.8158C31.9296 93.011 31.923 93.2122 31.8724 93.4045C31.8218 93.5968 31.7286 93.7754 31.5997 93.9271C31.4707 94.0788 31.3093 94.1997 31.1273 94.2809C30.9452 94.3621 30.7472 94.4016 30.5479 94.3964Z" fill="#EBEBEB"/>
<path d="M28.623 100.062H19.4985C19.1859 100.061 18.8865 99.9368 18.6655 99.7165C18.4445 99.4962 18.3199 99.1976 18.319 98.886C18.319 98.5735 18.443 98.2737 18.664 98.052C18.885 97.8304 19.185 97.705 19.4985 97.7031H28.623C28.9361 97.704 29.2361 97.8287 29.4572 98.0498C29.6783 98.2709 29.8025 98.5703 29.8025 98.8825C29.8025 99.1947 29.6783 99.4942 29.4572 99.7153C29.2361 99.9363 28.9361 100.061 28.623 100.062Z" fill="#F5F5F5"/>
<path d="M33.5894 114.243H32.9244L30.3939 100.062H31.0589L33.5894 114.243Z" fill="#E0E0E0"/>
<path d="M45.0904 114.243H44.4289L41.8949 100.062H42.5599L45.0904 114.243Z" fill="#E0E0E0"/>
<path d="M29.1375 114.243H29.799L32.3295 100.062H31.668L29.1375 114.243Z" fill="#E0E0E0"/>
<path d="M17.6331 114.243H18.2981L20.8286 100.062H20.1636L17.6331 114.243Z" fill="#E0E0E0"/>
<path d="M124.226 100.062H104.3C103.987 100.061 103.687 99.937 103.466 99.7167C103.244 99.4965 103.119 99.1979 103.117 98.886C103.117 98.5729 103.242 98.2726 103.463 98.0508C103.685 97.8291 103.986 97.704 104.3 97.7031H124.25C124.564 97.704 124.864 97.8286 125.086 98.0496C125.307 98.2706 125.432 98.57 125.433 98.8825C125.433 99.0394 125.401 99.1945 125.34 99.339C125.279 99.4835 125.189 99.6144 125.077 99.7242C124.965 99.8339 124.831 99.9203 124.685 99.9783C124.539 100.036 124.383 100.065 124.226 100.062Z" fill="#EBEBEB"/>
<path d="M101.248 97.7055H100.587L98.056 81.2461H98.7175L101.248 97.7055Z" fill="#E0E0E0"/>
<path d="M111.373 97.7055H110.708L108.178 81.2461H108.843L111.373 97.7055Z" fill="#E0E0E0"/>
<path d="M111.401 94.3964H98.4025C97.9645 94.3832 97.5448 94.2181 97.2158 93.9296C96.8868 93.6411 96.669 93.2472 96.6 92.8158L94.6155 79.0711C94.5794 78.8768 94.5874 78.6769 94.6387 78.4861C94.6901 78.2952 94.7837 78.1182 94.9125 77.9681C95.0413 77.8179 95.2022 77.6983 95.3833 77.6181C95.5645 77.5379 95.7613 77.499 95.9595 77.5044H108.958C109.394 77.5178 109.811 77.6813 110.139 77.967C110.467 78.2526 110.686 78.6428 110.757 79.0711L112.745 92.8158C112.784 93.0111 112.778 93.2125 112.727 93.4051C112.677 93.5978 112.584 93.7766 112.455 93.9284C112.326 94.0803 112.164 94.2012 111.982 94.2822C111.799 94.3632 111.601 94.4023 111.401 94.3964Z" fill="#EBEBEB"/>
<path d="M109.48 100.062H100.355C100.043 100.061 99.7427 99.9374 99.5211 99.7171C99.2995 99.4969 99.1742 99.1983 99.1724 98.8864C99.1733 98.5739 99.2982 98.2745 99.5199 98.0535C99.7415 97.8325 100.042 97.708 100.355 97.707H109.48C109.793 97.7089 110.092 97.8338 110.313 98.0547C110.534 98.2756 110.658 98.5745 110.659 98.8864C110.658 99.198 110.534 99.4966 110.313 99.7169C110.092 99.9372 109.792 100.061 109.48 100.062Z" fill="#F5F5F5"/>
<path d="M114.446 114.243H113.781L111.251 100.062H111.912L114.446 114.243Z" fill="#E0E0E0"/>
<path d="M125.947 114.243H125.282L122.752 100.062H123.417L125.947 114.243Z" fill="#E0E0E0"/>
<path d="M109.991 114.243H110.656L113.187 100.062H112.522L109.991 114.243Z" fill="#E0E0E0"/>
<path d="M98.49 114.243H99.1515L101.685 100.062H101.02L98.49 114.243Z" fill="#E0E0E0"/>
<path d="M132.496 100.062H152.446C152.759 100.061 153.059 99.9374 153.28 99.7171C153.502 99.4969 153.627 99.1983 153.629 98.8864C153.628 98.5739 153.503 98.2745 153.281 98.0535C153.06 97.8325 152.759 97.708 152.446 97.707H132.496C132.183 97.708 131.882 97.8325 131.66 98.0535C131.439 98.2745 131.314 98.5739 131.313 98.8864C131.315 99.1983 131.44 99.4969 131.662 99.7171C131.883 99.9374 132.183 100.061 132.496 100.062Z" fill="#EBEBEB"/>
<path d="M155.47 97.7055H156.135L158.665 81.2461H158.004L155.47 97.7055Z" fill="#E0E0E0"/>
<path d="M145.348 97.7055H146.01L148.544 81.2461H147.879L145.348 97.7055Z" fill="#E0E0E0"/>
<path d="M145.32 94.3981H158.319C158.754 94.384 159.171 94.2203 159.499 93.9348C159.827 93.6492 160.045 93.2594 160.118 92.8314L162.102 79.0867C162.138 78.8924 162.13 78.6925 162.079 78.5017C162.028 78.3108 161.934 78.1339 161.805 77.9837C161.677 77.8335 161.516 77.7139 161.334 77.6337C161.153 77.5535 160.957 77.5146 160.758 77.52H147.756C147.321 77.5336 146.904 77.6972 146.577 77.9829C146.249 78.2686 146.031 78.6588 145.96 79.0867L143.972 92.8174C143.935 93.013 143.941 93.2145 143.992 93.4071C144.043 93.5996 144.136 93.7784 144.266 93.9301C144.395 94.0819 144.557 94.2027 144.739 94.2837C144.922 94.3647 145.12 94.4038 145.32 94.3981Z" fill="#EBEBEB"/>
<path d="M147.242 100.062H156.366C156.679 100.061 156.978 99.9372 157.199 99.7169C157.42 99.4966 157.545 99.198 157.546 98.8864C157.546 98.5742 157.421 98.2748 157.2 98.0537C156.979 97.8326 156.679 97.708 156.366 97.707H147.242C146.929 97.7089 146.629 97.8338 146.408 98.0547C146.188 98.2756 146.063 98.5745 146.062 98.8864C146.063 99.198 146.188 99.4966 146.409 99.7169C146.63 99.9372 146.929 100.061 147.242 100.062Z" fill="#F5F5F5"/>
<path d="M142.275 114.243H142.94L145.471 100.062H144.809L142.275 114.243Z" fill="#E0E0E0"/>
<path d="M130.774 114.243H131.439L133.97 100.062H133.305L130.774 114.243Z" fill="#E0E0E0"/>
<path d="M146.731 114.243H146.066L143.535 100.062H144.2L146.731 114.243Z" fill="#E0E0E0"/>
<path d="M158.232 114.243H157.567L155.036 100.062H155.701L158.232 114.243Z" fill="#E0E0E0"/>
<path d="M54.1975 100.062H74.1475C74.4604 100.061 74.7602 99.9374 74.9818 99.7171C75.2033 99.4969 75.3287 99.1983 75.3305 98.8864C75.3296 98.5739 75.2047 98.2745 74.983 98.0535C74.7614 97.8325 74.461 97.708 74.1475 97.707H54.1975C53.8841 97.708 53.5837 97.8325 53.362 98.0535C53.1404 98.2745 53.0154 98.5739 53.0145 98.8864C53.0164 99.1983 53.1417 99.4969 53.3633 99.7171C53.5848 99.9374 53.8847 100.061 54.1975 100.062Z" fill="#EBEBEB"/>
<path d="M77.175 97.7055H77.8365L80.3671 81.2461H79.7055L77.175 97.7055Z" fill="#E0E0E0"/>
<path d="M67.0496 97.7055H67.7146L70.2451 81.2461H69.5801L67.0496 97.7055Z" fill="#E0E0E0"/>
<path d="M67.0215 94.3981H80.0205C80.4557 94.384 80.8726 94.2203 81.2004 93.9348C81.5283 93.6492 81.7471 93.2594 81.8195 92.8314L83.804 79.0867C83.8401 78.8924 83.8321 78.6925 83.7808 78.5017C83.7294 78.3108 83.6358 78.1339 83.507 77.9837C83.3782 77.8335 83.2173 77.7139 83.0362 77.6337C82.855 77.5535 82.6582 77.5146 82.46 77.52H69.4575C69.0226 77.5336 68.6059 77.6972 68.2784 77.9829C67.951 78.2686 67.7331 78.6588 67.662 79.0867L65.674 92.8174C65.6362 93.013 65.6429 93.2145 65.6937 93.4071C65.7444 93.5996 65.8379 93.7784 65.9673 93.9301C66.0967 94.0819 66.2585 94.2027 66.441 94.2837C66.6235 94.3647 66.8219 94.4038 67.0215 94.3981Z" fill="#EBEBEB"/>
<path d="M68.95 100.062H78.0745C78.3874 100.061 78.6872 99.9374 78.9088 99.7171C79.1303 99.4969 79.2557 99.1983 79.2575 98.8864C79.2566 98.5739 79.1316 98.2745 78.91 98.0535C78.6883 97.8325 78.388 97.708 78.0745 97.707H68.95C68.6371 97.7089 68.3377 97.8338 68.1168 98.0547C67.8959 98.2756 67.7714 98.5745 67.7705 98.8864C67.7714 99.198 67.896 99.4966 68.117 99.7169C68.338 99.9372 68.6375 100.061 68.95 100.062Z" fill="#F5F5F5"/>
<path d="M63.9764 114.243H64.6414L67.1719 100.062H66.5104L63.9764 114.243Z" fill="#E0E0E0"/>
<path d="M52.4755 114.243H53.1405L55.671 100.062H55.006L52.4755 114.243Z" fill="#E0E0E0"/>
<path d="M68.4321 114.243H67.7671L65.2366 100.062H65.9016L68.4321 114.243Z" fill="#E0E0E0"/>
<path d="M79.9331 114.243H79.2716L76.7375 100.062H77.4025L79.9331 114.243Z" fill="#E0E0E0"/>
<path d="M87.5 130.001C124.979 130.001 155.362 128.233 155.362 126.052C155.362 123.87 124.979 122.102 87.5 122.102C50.0212 122.102 19.6385 123.87 19.6385 126.052C19.6385 128.233 50.0212 130.001 87.5 130.001Z" fill="#F5F5F5"/>
<path d="M78.0498 65.536C78.1198 67.497 74.7108 71.8796 74.7108 71.8796C74.7108 71.8796 70.9973 67.7517 70.9273 65.7907C70.8573 63.8297 71.9318 62.2001 74.3608 62.1129C76.7898 62.0257 77.9903 63.5749 78.0498 65.536Z" fill="#37ED81"/>
<path d="M74.8437 65.6562H74.6057V117.704H74.8437V65.6562Z" fill="#263238"/>
<path d="M68.7012 116.137C68.5906 116.136 68.4812 116.16 68.3808 116.206C68.2803 116.252 68.1913 116.32 68.1198 116.404C68.0484 116.488 67.9964 116.587 67.9674 116.693C67.9385 116.799 67.9333 116.911 67.9522 117.02C68.4597 119.762 71.2982 121.863 74.7247 121.863C78.1512 121.863 80.9862 119.769 81.4937 117.02C81.5133 116.911 81.5086 116.8 81.4801 116.693C81.4516 116.587 81.3999 116.488 81.3287 116.404C81.2576 116.32 81.1687 116.252 81.0683 116.206C80.968 116.16 80.8587 116.136 80.7482 116.137H68.7012Z" fill="#37ED81"/>
<path d="M72.8346 76.1665C71.5755 74.8839 70.0224 73.9258 68.3091 73.375C66.8811 74.837 68.2496 76.8434 72.8346 76.1665Z" fill="#37ED81"/>
<path d="M74.6547 78.6557C73.5557 76.6807 71.1547 74.3045 68.2882 73.4426L68.3337 73.2891C71.2527 74.1614 73.6817 76.5761 74.7947 78.5789L74.6547 78.6557Z" fill="#263238"/>
<path d="M72.1452 89.7209C72.1452 85.0103 68.7047 83.7018 65.9678 85.9001C64.0218 87.9064 65.8628 90.6421 72.1452 89.7209Z" fill="#37ED81"/>
<path d="M74.6547 93.1065C73.1532 90.4058 69.8772 87.1537 65.9467 85.9778L65.9922 85.8242C69.9682 87.0141 73.2792 90.2976 74.7947 93.0298L74.6547 93.1065Z" fill="#263238"/>
<path d="M77.1467 82.0675C78.7586 80.4178 80.7508 79.1863 82.9497 78.4805C84.7662 80.3647 83.0372 82.9329 77.1467 82.0675Z" fill="#37ED81"/>
<path d="M74.7948 85.2489L74.6548 85.1721C76.0793 82.6074 79.1838 79.5228 82.9183 78.4062L82.9638 78.5598C79.2748 79.6659 76.2018 82.7156 74.7948 85.2489Z" fill="#263238"/>
<path d="M77.2727 95.751C79.0398 93.3673 81.3649 91.4506 84.0452 90.168C86.6982 92.2755 84.9377 95.8452 77.2727 95.751Z" fill="#37ED81"/>
<path d="M74.7982 100.201L74.6477 100.145C76.0232 96.6349 79.4497 92.1755 84.0102 90.1133L84.0767 90.2598C79.5582 92.3011 76.1597 96.7256 74.7982 100.201Z" fill="#263238"/>
<path d="M57.1548 108.624H33.4143C33.043 108.624 32.6869 108.476 32.4243 108.215C32.1618 107.953 32.0143 107.598 32.0143 107.228C32.0143 106.858 32.1618 106.503 32.4243 106.241C32.6869 105.979 33.043 105.832 33.4143 105.832H57.1548C57.5261 105.832 57.8822 105.979 58.1447 106.241C58.4073 106.503 58.5548 106.858 58.5548 107.228C58.5548 107.598 58.4073 107.953 58.1447 108.215C57.8822 108.476 57.5261 108.624 57.1548 108.624Z" fill="#37ED81"/>
<path d="M29.7953 105.818H29.0078L25.9943 86.2148H26.7818L29.7953 105.818Z" fill="#263238"/>
<path d="M41.8528 105.818H41.0618L38.0483 86.2148H38.8393L41.8528 105.818Z" fill="#263238"/>
<path d="M41.8844 101.892H26.4039C25.8858 101.876 25.3895 101.681 24.9996 101.34C24.6096 101 24.3501 100.535 24.2654 100.025L21.8994 83.6603C21.8572 83.4287 21.8673 83.1907 21.9289 82.9635C21.9905 82.7363 22.1022 82.5257 22.2557 82.3469C22.4092 82.1681 22.6007 82.0257 22.8164 81.93C23.032 81.8342 23.2664 81.7876 23.5024 81.7935H38.9829C39.5011 81.8104 39.9976 82.0056 40.388 82.3458C40.7784 82.6861 41.0387 83.1505 41.1249 83.6603L43.4874 100.025C43.5296 100.257 43.5195 100.495 43.4578 100.722C43.3962 100.949 43.2846 101.16 43.131 101.339C42.9775 101.518 42.786 101.66 42.5703 101.756C42.3547 101.851 42.1204 101.898 41.8844 101.892Z" fill="#37ED81"/>
<path opacity="0.4" d="M21.8993 83.6468L24.2653 100.012C24.3248 100.408 24.496 100.78 24.7588 101.083C25.3258 101.75 26.3338 101.387 26.2148 100.574L23.6913 83.085C23.5723 82.2719 22.4593 81.9125 22.0848 82.5755C21.9077 82.903 21.8426 83.2791 21.8993 83.6468Z" fill="white"/>
<path d="M39.5953 108.624H28.7453C28.374 108.624 28.0179 108.476 27.7554 108.215C27.4928 107.953 27.3453 107.598 27.3453 107.228C27.3453 106.858 27.4928 106.503 27.7554 106.241C28.0179 105.979 28.374 105.832 28.7453 105.832H39.5953C39.9666 105.832 40.3227 105.979 40.5853 106.241C40.8478 106.503 40.9953 106.858 40.9953 107.228C40.9953 107.598 40.8478 107.953 40.5853 108.215C40.3227 108.476 39.9666 108.624 39.5953 108.624Z" fill="#37ED81"/>
<path opacity="0.4" d="M39.5953 108.624H28.7453C28.374 108.624 28.0179 108.476 27.7554 108.215C27.4928 107.953 27.3453 107.598 27.3453 107.228C27.3453 106.858 27.4928 106.503 27.7554 106.241C28.0179 105.979 28.374 105.832 28.7453 105.832H39.5953C39.9666 105.832 40.3227 105.979 40.5853 106.241C40.8478 106.503 40.9953 106.858 40.9953 107.228C40.9953 107.598 40.8478 107.953 40.5853 108.215C40.3227 108.476 39.9666 108.624 39.5953 108.624Z" fill="white"/>
<path d="M45.5103 125.503H44.7193L41.7058 108.621H42.4933L45.5103 125.503Z" fill="#263238"/>
<path d="M59.2059 125.503H58.4149L55.4014 108.621H56.1924L59.2059 125.503Z" fill="#263238"/>
<path d="M40.2079 125.503H40.9954L44.0089 108.621H43.2214L40.2079 125.503Z" fill="#263238"/>
<path d="M26.5088 125.503H27.2998L30.3133 108.621H29.5258L26.5088 125.503Z" fill="#263238"/>
<path d="M67.1193 109.285L63.2168 110.978L65.4533 113.581L68.7188 112.171L67.1193 109.285Z" fill="#7F3E3B"/>
<path opacity="0.2" d="M67.1194 109.289L63.2134 110.981L64.4699 112.44L68.0154 110.905L67.1194 109.289Z" fill="black"/>
<path d="M64.7673 114.837L65.2118 114.753C65.3422 114.728 65.4642 114.671 65.5668 114.587C65.6695 114.503 65.7495 114.394 65.7998 114.272L66.0798 114.415C66.2401 114.494 66.4218 114.52 66.5978 114.488L72.6668 113.309C72.6182 112.891 72.46 112.494 72.2083 112.157C72.2083 112.157 69.5168 112.531 68.7608 111.871C68.7332 111.845 68.6989 111.828 68.6618 111.82C68.6247 111.813 68.5863 111.816 68.5508 111.829C68.0573 112.039 66.1008 112.81 64.8898 112.653C64.8521 112.649 64.814 112.654 64.7785 112.667C64.743 112.681 64.7111 112.702 64.6853 112.73C64.6595 112.757 64.6405 112.791 64.6299 112.827C64.6192 112.863 64.6171 112.902 64.6238 112.939C64.717 113.567 64.765 114.202 64.7673 114.837Z" fill="#37ED81"/>
<path d="M68.6489 112.028H68.6279C68.6161 112.024 68.6059 112.016 68.5984 112.006C68.5909 111.996 68.5866 111.984 68.5859 111.972C68.5614 111.578 68.7504 110.852 69.0164 110.726C69.0572 110.708 69.1028 110.702 69.1468 110.711C69.1908 110.72 69.2309 110.742 69.2614 110.775C69.2893 110.8 69.3114 110.831 69.3259 110.865C69.3404 110.899 69.3471 110.937 69.3454 110.974C69.3454 111.354 68.7224 111.986 68.6944 112.021C68.6805 112.028 68.6644 112.031 68.6489 112.028ZM69.1074 110.831H69.0724C68.9044 110.911 68.7399 111.417 68.7224 111.794C68.9254 111.571 69.2299 111.187 69.2264 110.963C69.2262 110.944 69.2221 110.925 69.2143 110.907C69.2064 110.889 69.1951 110.872 69.1809 110.859C69.1714 110.849 69.1599 110.842 69.1472 110.837C69.1345 110.832 69.1209 110.83 69.1074 110.831Z" fill="#37ED81"/>
<path d="M69.2264 112.072C69.0296 112.07 68.8331 112.055 68.6384 112.026C68.6259 112.024 68.6143 112.018 68.605 112.009C68.5957 112.001 68.5891 111.99 68.5859 111.977C68.5837 111.965 68.5848 111.953 68.5892 111.941C68.5935 111.929 68.6008 111.919 68.6104 111.911C68.9114 111.663 69.6149 111.384 69.8704 111.527C69.9096 111.549 69.941 111.583 69.9604 111.624C69.9798 111.664 69.9863 111.71 69.9789 111.754C69.9676 111.828 69.9274 111.895 69.8669 111.939C69.67 112.042 69.4482 112.088 69.2264 112.072ZM68.8204 111.918C69.1452 111.979 69.4806 111.95 69.7899 111.834C69.8062 111.823 69.8199 111.809 69.8302 111.792C69.8404 111.775 69.847 111.756 69.8494 111.737C69.8494 111.674 69.8494 111.653 69.8109 111.639C69.6499 111.552 69.1389 111.716 68.8204 111.918Z" fill="#37ED81"/>
<path d="M32.0388 97.0342L33.7118 100.524C36.1793 105.677 42.2623 108.27 47.1168 106.243C49.9518 105.053 53.0458 102.551 55.1668 101.406C56.9693 105.339 60.3398 109.683 62.9193 112.701L68.1413 110.084C66.1918 105.622 63.1538 98.6568 61.2288 94.1311C60.8835 93.3332 60.32 92.6482 59.6026 92.1546C58.8853 91.6609 58.0431 91.3785 57.1723 91.3396C48.4783 91.0918 32.0388 97.0342 32.0388 97.0342Z" fill="#263238"/>
<path d="M57.4103 120.711L53.1578 120.512L54.0153 123.834L57.5678 124.001L57.4103 120.711Z" fill="#7F3E3B"/>
<path opacity="0.2" d="M57.4104 120.711L53.1544 120.512L53.6339 122.372L57.4979 122.553L57.4104 120.711Z" fill="black"/>
<path d="M53.3608 125.579H53.8158C53.9479 125.58 54.0782 125.548 54.1954 125.488C54.3125 125.427 54.4129 125.338 54.4878 125.23L54.7328 125.418C54.8742 125.53 55.0495 125.59 55.2298 125.589H61.4073C61.4408 125.17 61.3623 124.75 61.1798 124.371C61.1798 124.371 58.4673 124.225 57.8513 123.433C57.83 123.402 57.8 123.378 57.7651 123.365C57.7302 123.351 57.692 123.348 57.6553 123.356C57.1303 123.464 55.0758 123.851 53.9033 123.464C53.8669 123.453 53.8282 123.45 53.7905 123.456C53.7527 123.462 53.7169 123.477 53.686 123.499C53.655 123.522 53.6298 123.551 53.6122 123.585C53.5946 123.619 53.5853 123.656 53.5848 123.694C53.5559 124.327 53.481 124.957 53.3608 125.579Z" fill="#37ED81"/>
<path d="M57.7253 123.563C57.7139 123.566 57.7018 123.566 57.6903 123.563C57.68 123.556 57.6719 123.547 57.6669 123.535C57.662 123.524 57.6604 123.512 57.6623 123.5C57.7148 123.113 58.0368 122.432 58.3238 122.362C58.367 122.351 58.4127 122.354 58.4542 122.37C58.4957 122.386 58.531 122.415 58.5548 122.453C58.5769 122.483 58.5923 122.518 58.6001 122.555C58.608 122.591 58.608 122.629 58.6003 122.666C58.5338 123.043 57.7918 123.542 57.7603 123.563C57.7489 123.566 57.7367 123.566 57.7253 123.563ZM58.3763 122.471H58.3553C58.1733 122.516 57.9178 122.983 57.8198 123.346C58.0648 123.168 58.4323 122.851 58.4743 122.628C58.4784 122.608 58.4783 122.588 58.4741 122.569C58.4698 122.55 58.4616 122.532 58.4498 122.516C58.4419 122.504 58.431 122.494 58.4181 122.487C58.4053 122.48 58.3908 122.477 58.3763 122.478V122.471Z" fill="#37ED81"/>
<path d="M58.6458 123.755C58.3242 123.734 58.0072 123.669 57.7043 123.559C57.6925 123.555 57.6823 123.548 57.6748 123.538C57.6673 123.528 57.663 123.516 57.6623 123.503C57.6611 123.491 57.6634 123.479 57.669 123.467C57.6746 123.456 57.6832 123.447 57.6938 123.44C58.0438 123.256 58.7823 123.116 59.0063 123.304C59.0417 123.332 59.067 123.371 59.0784 123.414C59.0898 123.458 59.0866 123.504 59.0693 123.545C59.057 123.58 59.0376 123.613 59.0123 123.64C58.9871 123.668 58.9564 123.69 58.9223 123.706C58.8347 123.742 58.7404 123.758 58.6458 123.755ZM57.9003 123.489C58.2071 123.61 58.541 123.645 58.8663 123.591C58.9029 123.574 58.9317 123.544 58.9468 123.507C58.9643 123.447 58.9468 123.42 58.9258 123.402C58.7998 123.283 58.2538 123.35 57.9003 123.489Z" fill="#37ED81"/>
<path d="M29.6064 95.6523L29.6344 99.3406C29.6799 104.781 34.2999 106.361 39.8299 106.776C43.0534 107.014 47.4109 107.087 49.9239 107.038C50.2914 110.849 51.4849 118.612 52.6854 121.865L58.1174 121.488C58.261 116.871 58.4674 110.322 58.6459 105.981C58.6529 105.114 58.4116 104.262 57.9504 103.527C57.4892 102.791 56.8271 102.202 56.0419 101.829C47.8974 97.8227 29.6064 95.6523 29.6064 95.6523Z" fill="#263238"/>
<path opacity="0.2" d="M55.3665 101.862C56.2966 103.724 57.3757 105.509 58.5935 107.198C58.5655 107.958 58.5375 108.768 58.506 109.605C56.5845 106.58 55.356 101.855 55.356 101.855L55.3665 101.862Z" fill="black"/>
<path d="M47.3304 74.3478L47.6804 74.5257L48.1144 74.7421C48.4119 74.8781 48.7129 75.0177 49.0174 75.1398C49.6104 75.3858 50.2183 75.5944 50.8374 75.7644C51.4106 75.9187 51.9961 76.0226 52.5874 76.075C53.1124 76.1155 53.6404 76.0897 54.1589 75.9982L53.1089 76.6263C53.4348 76.3807 53.7104 76.0751 53.9209 75.7261C54.2433 75.2323 54.5332 74.7183 54.7889 74.1872C55.0724 73.622 55.3349 73.0253 55.5939 72.4146L56.3639 70.5688L56.4024 70.4815C56.5319 70.1732 56.7611 69.9169 57.0537 69.7535C57.3462 69.5901 57.6852 69.529 58.0165 69.58C58.3479 69.631 58.6526 69.7911 58.8822 70.0348C59.1117 70.2785 59.2528 70.5918 59.2829 70.9247C59.3486 71.6883 59.3603 72.4555 59.3179 73.2207C59.2787 73.9921 59.1898 74.7601 59.0519 75.5202C58.905 76.332 58.6836 77.1286 58.3904 77.8999C58.0428 78.8439 57.5177 79.7132 56.8434 80.4611C56.6234 80.6977 56.3515 80.8805 56.0489 80.995L55.7899 81.0892C54.7707 81.4663 53.6982 81.6807 52.6119 81.7243C51.5924 81.7678 50.5713 81.6893 49.5704 81.4905C48.6221 81.3069 47.693 81.0359 46.7949 80.681C46.3539 80.503 45.9164 80.332 45.4929 80.1052C45.2794 79.9971 45.0694 79.8889 44.8559 79.7563L44.5339 79.5679L44.1629 79.341C43.5125 78.9416 43.0421 78.3069 42.8501 77.5697C42.658 76.8325 42.7592 76.0499 43.1325 75.3853C43.5058 74.7208 44.1223 74.2258 44.8531 74.0038C45.5838 73.7819 46.3724 73.8501 47.0539 74.1942L47.3304 74.3478Z" fill="#803E3C"/>
<path d="M57.5259 72.2816L56.3499 71.0289C55.6709 69.368 57.9669 68.869 57.9669 68.869L58.9749 68.1711C59.1606 68.063 59.3786 68.0237 59.5905 68.0601C59.8024 68.0965 59.9947 68.2062 60.1334 68.37L60.9559 69.2389C61.1357 69.4074 61.2422 69.6394 61.2527 69.8852C61.2632 70.1311 61.1768 70.3712 61.0119 70.5543L60.2454 71.2871C60.0222 71.5006 59.7492 71.6553 59.4509 71.7372L57.5259 72.2816Z" fill="#7F3E3B"/>
<path d="M41.2999 71.8349C42.0209 70.8684 44.2294 71.1161 46.4764 73.3005C47.0329 73.276 48.4749 74.5776 50.1479 74.9998C51.8209 75.422 52.3704 78.4194 52.0659 79.6162C51.7474 80.8724 51.1174 81.7099 49.5564 81.8739C47.9954 82.0379 45.9409 81.0329 44.2854 79.7802C42.6299 78.5276 40.0154 73.5482 41.2999 71.8349Z" fill="#37ED81"/>
<path d="M40.4773 71.0664C37.3472 71.0836 34.2251 71.3849 31.1498 71.9667C30.6429 72.072 30.1629 72.2794 29.7392 72.5762C29.3155 72.8729 28.957 73.2528 28.6857 73.6925C28.4144 74.1322 28.236 74.6224 28.1614 75.1333C28.0868 75.6441 28.1176 76.1648 28.2518 76.6634C30.5548 85.3868 29.2528 94.9372 29.4348 96.6854C29.4348 96.6854 47.7678 99.3163 50.5783 93.8939C52.0728 86.6569 47.9358 83.7293 45.7343 75.0931C45.4022 73.9514 44.7133 72.9452 43.7677 72.2209C42.8222 71.4966 41.6695 71.0922 40.4773 71.0664Z" fill="#37ED81"/>
<path opacity="0.8" d="M40.4773 71.0664C37.3472 71.0836 34.2251 71.3849 31.1498 71.9667C30.6429 72.072 30.1629 72.2794 29.7392 72.5762C29.3155 72.8729 28.957 73.2528 28.6857 73.6925C28.4144 74.1322 28.236 74.6224 28.1614 75.1333C28.0868 75.6441 28.1176 76.1648 28.2518 76.6634C30.5548 85.3868 29.2528 94.9372 29.4348 96.6854C29.4348 96.6854 47.7678 99.3163 50.5783 93.8939C52.0728 86.6569 47.9358 83.7293 45.7343 75.0931C45.4022 73.9514 44.7133 72.9452 43.7677 72.2209C42.8222 71.4966 41.6695 71.0922 40.4773 71.0664Z" fill="white"/>
<g opacity="0.2">
<path d="M31.8882 96.0971C31.8771 96.0959 31.8664 96.0924 31.8567 96.0869C31.847 96.0815 31.8385 96.0741 31.8317 96.0654C31.8248 96.0566 31.8198 96.0466 31.8169 96.0359C31.814 96.0251 31.8132 96.0139 31.8147 96.0029C31.8147 95.9006 31.8252 95.7924 31.8462 95.6784C31.8488 95.6565 31.8597 95.6364 31.8766 95.6222C31.8934 95.608 31.9151 95.6006 31.9372 95.6017C31.9481 95.6025 31.9587 95.6056 31.9684 95.6107C31.9781 95.6157 31.9867 95.6227 31.9935 95.6312C32.0004 95.6397 32.0055 95.6495 32.0084 95.66C32.0114 95.6706 32.0122 95.6816 32.0107 95.6924C32.0107 95.8075 32.0107 95.9192 31.9792 96.0239C31.9766 96.0455 31.9656 96.0652 31.9486 96.0789C31.9316 96.0926 31.9099 96.0991 31.8882 96.0971Z" fill="#37ED81"/>
<path d="M31.9618 95.0953C31.9401 95.0935 31.92 95.0834 31.9056 95.0671C31.8913 95.0509 31.8838 95.0297 31.8848 95.008C31.8848 94.7952 31.8848 94.5719 31.8848 94.3346C31.8857 94.3127 31.8948 94.2919 31.9104 94.2763C31.9259 94.2608 31.9468 94.2517 31.9688 94.2508C31.9908 94.2526 32.0113 94.2626 32.0262 94.2787C32.0411 94.2949 32.0494 94.3161 32.0493 94.3381C32.0493 94.5754 32.0493 94.8022 32.0283 95.015C32.0286 95.0341 32.0221 95.0526 32.0099 95.0674C31.9977 95.0821 31.9806 95.092 31.9618 95.0953ZM31.9898 93.7449C31.9675 93.7449 31.9462 93.7361 31.9304 93.7204C31.9146 93.7047 31.9058 93.6834 31.9058 93.6611V93.6228C31.9058 93.4134 31.9058 93.204 31.9058 92.9842C31.9053 92.9734 31.9071 92.9626 31.9109 92.9524C31.9147 92.9423 31.9206 92.933 31.9281 92.9252C31.9356 92.9174 31.9447 92.9111 31.9547 92.9069C31.9647 92.9026 31.9754 92.9004 31.9863 92.9005C31.9975 92.9 32.0086 92.9018 32.019 92.9058C32.0294 92.9099 32.0389 92.916 32.0468 92.9239C32.0547 92.9318 32.0609 92.9412 32.0649 92.9516C32.069 92.962 32.0708 92.9731 32.0703 92.9842C32.0703 93.2006 32.0703 93.4134 32.0703 93.6193V93.6611C32.0703 93.6828 32.0619 93.7036 32.0469 93.7192C32.0319 93.7348 32.0115 93.744 31.9898 93.7449ZM31.9723 92.391C31.9509 92.391 31.9305 92.3826 31.9154 92.3675C31.9003 92.3525 31.8918 92.332 31.8918 92.3108C31.8918 92.0874 31.8918 91.8641 31.8743 91.6338C31.8738 91.6228 31.8755 91.6118 31.8793 91.6015C31.8831 91.5912 31.8889 91.5817 31.8964 91.5736C31.9039 91.5655 31.9129 91.5589 31.9229 91.5543C31.9329 91.5497 31.9438 91.547 31.9548 91.5466C31.9771 91.5466 31.9984 91.5554 32.0142 91.5711C32.0299 91.5868 32.0388 91.6081 32.0388 91.6303C32.0388 91.8606 32.0388 92.084 32.0388 92.3073C32.0393 92.3181 32.0375 92.3289 32.0337 92.3391C32.0299 92.3492 32.024 92.3585 32.0165 92.3663C32.009 92.3741 31.9999 92.3803 31.9899 92.3846C31.9799 92.3888 31.9692 92.391 31.9583 92.391H31.9723ZM31.9338 91.0406C31.9121 91.0406 31.8913 91.0323 31.8756 91.0173C31.8599 91.0024 31.8507 90.982 31.8498 90.9604C31.8498 90.737 31.8498 90.5102 31.8218 90.2834C31.8217 90.2615 31.83 90.2403 31.8449 90.2241C31.8598 90.2079 31.8803 90.198 31.9023 90.1962C31.924 90.1962 31.9448 90.2045 31.9605 90.2195C31.9761 90.2344 31.9854 90.2549 31.9863 90.2765C31.9863 90.5068 31.9863 90.7301 32.0143 90.9534C32.0144 90.9754 32.0061 90.9966 31.9912 91.0127C31.9763 91.0289 31.9558 91.0389 31.9338 91.0406ZM31.8743 89.6763C31.8535 89.6763 31.8336 89.6683 31.8186 89.654C31.8036 89.6397 31.7947 89.6202 31.7938 89.5995C31.7938 89.3762 31.7693 89.1494 31.7588 88.9226C31.7578 88.9009 31.7653 88.8797 31.7796 88.8635C31.794 88.8472 31.8141 88.8371 31.8358 88.8353C31.8572 88.8361 31.8776 88.8447 31.8931 88.8595C31.9086 88.8743 31.9181 88.8943 31.9198 88.9156L31.9513 89.589C31.9523 89.5999 31.951 89.6108 31.9476 89.6211C31.9442 89.6314 31.9387 89.6409 31.9315 89.6491C31.9243 89.6573 31.9156 89.6639 31.9057 89.6686C31.8959 89.6732 31.8852 89.6759 31.8743 89.6763ZM31.8043 88.3259C31.7834 88.3252 31.7635 88.3171 31.748 88.303C31.7326 88.2889 31.7228 88.2698 31.7203 88.2491C31.7203 88.0258 31.6958 87.799 31.6818 87.5722C31.6818 87.55 31.6906 87.5287 31.7064 87.513C31.7222 87.4973 31.7435 87.4884 31.7658 87.4884C31.7881 87.4884 31.8094 87.4973 31.8252 87.513C31.8409 87.5287 31.8498 87.55 31.8498 87.5722C31.8498 87.799 31.8743 88.0258 31.8883 88.2491C31.8893 88.2708 31.8818 88.292 31.8674 88.3082C31.8531 88.3245 31.833 88.3346 31.8113 88.3364L31.8043 88.3259ZM31.7238 86.979C31.7021 86.979 31.6813 86.9707 31.6656 86.9557C31.6499 86.9408 31.6407 86.9203 31.6398 86.8987C31.6398 86.6754 31.6118 86.4486 31.5943 86.2253C31.5933 86.2142 31.5947 86.203 31.5983 86.1924C31.6019 86.1819 31.6077 86.1722 31.6152 86.164C31.6228 86.1558 31.632 86.1492 31.6423 86.1448C31.6525 86.1403 31.6636 86.138 31.6748 86.1381C31.6857 86.1371 31.6966 86.1384 31.7069 86.1417C31.7173 86.1451 31.7269 86.1506 31.735 86.1578C31.7432 86.1649 31.7499 86.1737 31.7545 86.1835C31.7592 86.1933 31.7619 86.204 31.7623 86.2148C31.7623 86.4381 31.7903 86.665 31.8078 86.8883C31.8083 86.8993 31.8066 86.9103 31.8028 86.9206C31.799 86.9309 31.7932 86.9404 31.7857 86.9485C31.7782 86.9566 31.7692 86.9632 31.7592 86.9678C31.7492 86.9724 31.7383 86.9751 31.7273 86.9755L31.7238 86.979ZM31.6328 85.6286C31.6111 85.6286 31.5903 85.6203 31.5746 85.6053C31.5589 85.5904 31.5497 85.57 31.5488 85.5484C31.5488 85.325 31.5173 85.0982 31.4998 84.8749C31.4998 84.8527 31.5086 84.8314 31.5244 84.8157C31.5402 84.8 31.5615 84.7912 31.5838 84.7912C31.6061 84.7912 31.6274 84.8 31.6432 84.8157C31.6589 84.8314 31.6678 84.8527 31.6678 84.8749C31.6678 85.0982 31.6993 85.3215 31.7168 85.5484C31.7178 85.5709 31.7099 85.593 31.6949 85.6099C31.6799 85.6268 31.6589 85.6373 31.6363 85.6391L31.6328 85.6286ZM31.5313 84.2782C31.5105 84.2782 31.4906 84.2703 31.4756 84.256C31.4606 84.2417 31.4517 84.2221 31.4508 84.2015L31.3983 83.528C31.3958 83.5158 31.396 83.5032 31.3989 83.4912C31.4019 83.4791 31.4075 83.4678 31.4154 83.4581C31.4233 83.4485 31.4332 83.4407 31.4445 83.4354C31.4557 83.43 31.4681 83.4273 31.4805 83.4273C31.493 83.4273 31.5053 83.43 31.5166 83.4354C31.5279 83.4407 31.5378 83.4485 31.5457 83.4581C31.5536 83.4678 31.5592 83.4791 31.5622 83.4912C31.5651 83.5032 31.5653 83.5158 31.5628 83.528L31.6153 84.2015C31.6163 84.2125 31.615 84.2235 31.6117 84.2341C31.6083 84.2446 31.6029 84.2544 31.5957 84.2628C31.5886 84.2712 31.5798 84.2782 31.57 84.2832C31.5601 84.2882 31.5493 84.2913 31.5383 84.2922L31.5313 84.2782ZM31.4263 82.9313C31.4052 82.9314 31.3848 82.9235 31.3692 82.9093C31.3537 82.8951 31.3441 82.8755 31.3423 82.8546L31.2863 82.1811C31.2843 82.1594 31.2909 82.1378 31.3046 82.1209C31.3183 82.104 31.3381 82.093 31.3598 82.0904C31.3709 82.0889 31.3822 82.0898 31.393 82.0929C31.4038 82.0961 31.4138 82.1015 31.4223 82.1087C31.4309 82.1159 31.4379 82.1249 31.4428 82.1349C31.4477 82.145 31.4504 82.156 31.4508 82.1672L31.5068 82.8406C31.5088 82.8623 31.5022 82.8839 31.4885 82.9008C31.4748 82.9177 31.455 82.9287 31.4333 82.9313H31.4263ZM31.3108 81.5809C31.29 81.5819 31.2696 81.5748 31.254 81.5612C31.2383 81.5475 31.2286 81.5283 31.2268 81.5077C31.2058 81.2774 31.1848 81.054 31.1638 80.8342C31.1615 80.812 31.1681 80.7898 31.1822 80.7724C31.1963 80.7551 31.2168 80.7441 31.239 80.7417C31.2613 80.7394 31.2836 80.746 31.301 80.7601C31.3184 80.7742 31.3295 80.7946 31.3318 80.8168C31.3528 81.0401 31.3738 81.2634 31.3913 81.4937C31.3923 81.5042 31.3911 81.5149 31.3879 81.525C31.3848 81.5351 31.3796 81.5445 31.3728 81.5526C31.3659 81.5607 31.3576 81.5674 31.3481 81.5722C31.3387 81.5771 31.3284 81.5801 31.3178 81.5809H31.3108ZM31.1848 80.255C31.1644 80.2544 31.1449 80.2468 31.1296 80.2334C31.1142 80.22 31.104 80.2018 31.1008 80.1817C31.0798 79.9514 31.0588 79.7246 31.0343 79.5082C31.0333 79.4972 31.0346 79.4862 31.0379 79.4756C31.0413 79.4651 31.0467 79.4553 31.0539 79.4469C31.061 79.4385 31.0698 79.4315 31.0796 79.4265C31.0895 79.4215 31.1002 79.4184 31.1113 79.4175C31.1221 79.4161 31.1332 79.4168 31.1437 79.4198C31.1543 79.4227 31.1641 79.4278 31.1726 79.4346C31.1811 79.4415 31.1882 79.45 31.1933 79.4597C31.1984 79.4693 31.2014 79.4799 31.2023 79.4908C31.2233 79.7106 31.2478 79.934 31.2688 80.1642C31.2698 80.1753 31.2685 80.1863 31.2652 80.1969C31.2618 80.2074 31.2564 80.2172 31.2492 80.2256C31.2421 80.234 31.2333 80.241 31.2235 80.246C31.2136 80.2511 31.2028 80.2541 31.1918 80.255H31.1848ZM31.0518 78.9116C31.0412 78.912 31.0307 78.9104 31.0207 78.9068C31.0108 78.9032 31.0016 78.8977 30.9938 78.8906C30.986 78.8834 30.9797 78.8748 30.9752 78.8653C30.9708 78.8557 30.9682 78.8453 30.9678 78.8348C30.9421 78.6022 30.9176 78.3789 30.8943 78.1648C30.8922 78.1428 30.8987 78.1207 30.9124 78.1032C30.926 78.0857 30.9458 78.0741 30.9678 78.0706C30.9788 78.0697 30.99 78.0709 31.0005 78.0742C31.0111 78.0776 31.0209 78.083 31.0293 78.0901C31.0378 78.0973 31.0447 78.106 31.0498 78.1158C31.0549 78.1257 31.0579 78.1364 31.0588 78.1474C31.0833 78.3568 31.1078 78.5836 31.1323 78.8174C31.1338 78.8284 31.133 78.8396 31.1301 78.8503C31.1272 78.861 31.1222 78.871 31.1153 78.8798C31.1085 78.8886 31.1 78.8959 31.0903 78.9014C31.0806 78.9068 31.0699 78.9103 31.0588 78.9116H31.0518Z" fill="#37ED81"/>
<path d="M30.8978 77.5582C30.8792 77.5586 30.861 77.5526 30.8463 77.5412C30.8316 77.5297 30.8214 77.5135 30.8173 77.4954L30.7788 77.1639C30.7802 77.1443 30.7884 77.1257 30.8021 77.1116C30.8158 77.0974 30.8341 77.0885 30.8537 77.0864C30.8733 77.0843 30.8931 77.0892 30.9095 77.1002C30.9259 77.1112 30.9378 77.1275 30.9433 77.1464L30.9818 77.457C30.985 77.4796 30.9796 77.5025 30.9666 77.5212C30.9536 77.54 30.9341 77.5532 30.9118 77.5582H30.8978Z" fill="#37ED81"/>
</g>
<path d="M33.1168 80.5619L32.7003 81.5041L32.2698 82.502C31.9828 83.172 31.7168 83.8489 31.4508 84.5189C31.1848 85.1888 30.9573 85.8728 30.7298 86.5427C30.5023 87.2127 30.3203 87.8861 30.1523 88.5526L30.0543 87.3348C30.075 87.3869 30.0845 87.4428 30.0823 87.4988C30.1286 87.5909 30.1672 87.6866 30.1978 87.7849C30.3211 88.0279 30.4627 88.2612 30.6213 88.4828C31.0064 89.0343 31.4273 89.5599 31.8813 90.0565C32.3538 90.5939 32.8648 91.1277 33.3933 91.6616L34.9998 93.2737L35.0488 93.3226C35.283 93.5651 35.4281 93.8794 35.4607 94.2144C35.4932 94.5495 35.4112 94.8856 35.2281 95.1684C35.0449 95.4512 34.7713 95.664 34.4516 95.7723C34.1319 95.8807 33.7849 95.8781 33.4668 95.7651C32.6786 95.4631 31.9095 95.1135 31.1638 94.7183C30.4128 94.3274 29.6848 93.894 28.9833 93.4203C28.2331 92.9185 27.5302 92.3497 26.8833 91.7209C26.5192 91.364 26.1812 90.9815 25.8718 90.5764C25.7038 90.3426 25.5428 90.0984 25.3923 89.8541C25.2383 89.554 25.0983 89.247 24.9653 88.9364C24.8496 88.6635 24.8038 88.3661 24.8323 88.0711L24.8673 87.7221C24.9455 86.8563 25.0717 85.9954 25.2453 85.1435C25.4205 84.2966 25.639 83.4593 25.8998 82.6346C26.1448 81.8146 26.4318 81.019 26.7468 80.2305C26.9078 79.8396 27.0688 79.4453 27.2508 79.058C27.3418 78.8661 27.4293 78.6707 27.5273 78.4788L27.8458 77.8647C28.2043 77.1913 28.8096 76.6819 29.5356 76.4426C30.2616 76.2033 31.0522 76.2525 31.7426 76.58C32.4331 76.9076 32.9701 77.4881 33.2418 78.2007C33.5134 78.9133 33.4988 79.7029 33.2008 80.4049L33.1168 80.5619Z" fill="#803E3C"/>
<path d="M34.3244 93.8641L33.7329 94.7678C33.3444 96.5125 35.6894 96.6277 35.6894 96.6277L36.7989 97.1371C36.9994 97.2136 37.2206 97.2166 37.4231 97.1457C37.6257 97.0748 37.7964 96.9345 37.9049 96.7498L38.5699 95.7553C38.7192 95.5593 38.7859 95.3129 38.7558 95.0685C38.7258 94.8242 38.6013 94.6011 38.4089 94.4468L37.5269 93.8536C37.2717 93.6802 36.9768 93.5734 36.6694 93.5431L35.3009 93.4035C35.1115 93.3849 34.9207 93.4179 34.7487 93.499C34.5767 93.5801 34.43 93.7063 34.3244 93.8641Z" fill="#7F3E3B"/>
<path d="M30.4499 72.8701C29.2634 72.6503 27.6499 74.9428 27.3979 77.4761C26.3899 78.5229 26.2954 80.2431 25.4694 81.754C23.7999 84.8526 25.1999 85.875 26.3024 86.4542C28.6544 87.6964 31.2899 87.2358 31.9899 85.8401C32.6899 84.4443 33.4424 82.8043 33.6524 80.7561C33.9499 77.7413 32.5499 73.2783 30.4499 72.8701Z" fill="#37ED81"/>
<path d="M47.8869 80.0701L43.8024 80.3807C43.6986 80.3789 43.5981 80.344 43.5156 80.2812C43.4332 80.2185 43.373 80.131 43.3439 80.0317L42.7804 78.2556C42.7624 78.2153 42.7544 78.1714 42.7568 78.1274C42.7592 78.0834 42.772 78.0405 42.7942 78.0024C42.8164 77.9643 42.8473 77.9319 42.8844 77.908C42.9216 77.8841 42.9639 77.8693 43.0079 77.8648L47.0959 77.5508C47.1998 77.552 47.3005 77.5867 47.3831 77.6495C47.4657 77.7124 47.5258 77.8001 47.5544 77.8997L48.1144 79.6723C48.1337 79.7129 48.1429 79.7576 48.1413 79.8025C48.1396 79.8475 48.127 79.8913 48.1047 79.9304C48.0824 79.9694 48.0509 80.0025 48.013 80.0269C47.975 80.0512 47.9318 80.066 47.8869 80.0701Z" fill="white"/>
<path d="M40.6208 72.0092C40.3442 71.5488 39.9201 71.1948 39.4168 71.0043C39.2042 70.5407 39.1585 70.0181 39.2873 69.5248L33.6173 68.0977C34.1773 69.9052 34.6183 71.3323 33.9918 72.264C35.1258 72.8607 37.1418 74.0087 39.3328 74.1308C40.9778 74.218 41.0233 72.756 40.6208 72.0092Z" fill="#7F3E3B"/>
<path opacity="0.2" d="M39.2522 69.6992H35.0522C36.4522 71.0112 38.4542 71.4125 39.3222 70.7914C39.2072 70.439 39.1832 70.0634 39.2522 69.6992Z" fill="black"/>
<path d="M32.5499 65.12C33.2499 67.6917 33.7644 69.4259 35.5004 70.2214C38.9584 71.8021 40.4809 70.0156 40.5789 67.2834C40.6664 64.8408 39.5289 61.027 36.7569 60.528C36.1435 60.4168 35.5118 60.4627 34.9211 60.6614C34.3304 60.8601 33.7999 61.205 33.3795 61.664C32.959 62.1229 32.6623 62.6807 32.5172 63.2852C32.3721 63.8897 32.3834 64.521 32.5499 65.12Z" fill="#7F3E3B"/>
<path d="M38.5839 67.4455C38.7301 67.4385 38.8753 67.4187 39.0179 67.3862C39.0277 67.3842 39.0369 67.3802 39.045 67.3744C39.053 67.3687 39.0598 67.3612 39.0647 67.3527C39.0697 67.3441 39.0728 67.3345 39.0738 67.3247C39.0748 67.3148 39.0736 67.3049 39.0704 67.2955C39.064 67.2755 39.0505 67.2585 39.0325 67.2476C39.0145 67.2367 38.9932 67.2326 38.9724 67.2361C38.6502 67.3097 38.3155 67.3099 37.9931 67.2368C37.6708 67.1637 37.3691 67.0192 37.1104 66.8139C37.0956 66.8004 37.0763 66.793 37.0562 66.793C37.0361 66.793 37.0168 66.8004 37.0019 66.8139C36.9944 66.8208 36.9884 66.8292 36.9843 66.8385C36.9802 66.8478 36.978 66.8578 36.978 66.868C36.978 66.8782 36.9802 66.8883 36.9843 66.8976C36.9884 66.9069 36.9944 66.9152 37.0019 66.9221C37.4452 67.2874 38.0095 67.4741 38.5839 67.4455Z" fill="#263238"/>
<path opacity="0.2" d="M36.0813 64.9333C35.9249 64.8952 35.7624 64.8882 35.6033 64.9128C35.4441 64.9373 35.2914 64.9929 35.1538 65.0764C35.4694 65.0901 35.7846 65.0415 36.0813 64.9333Z" fill="black"/>
<path opacity="0.2" d="M36.1022 65.1564C35.9539 65.1539 35.8069 65.1839 35.6714 65.2441C35.536 65.3044 35.4154 65.3936 35.3182 65.5053C35.6016 65.4462 35.8689 65.3272 36.1022 65.1564Z" fill="black"/>
<path opacity="0.2" d="M39.6899 64.2426C39.6899 64.2426 39.8789 63.9635 40.0399 64.0856C39.9477 64.1807 39.8225 64.2369 39.6899 64.2426Z" fill="black"/>
<path opacity="0.2" d="M39.7529 64.4479C39.7529 64.4479 39.9034 64.2001 40.0399 64.406C40.0025 64.4421 39.9547 64.4655 39.9032 64.473C39.8517 64.4805 39.7991 64.4717 39.7529 64.4479Z" fill="black"/>
<path opacity="0.2" d="M38.3843 61.9857C37.594 61.9563 36.8039 62.0505 36.0428 62.2649C36.8279 62.2153 37.6097 62.1221 38.3843 61.9857Z" fill="black"/>
<path opacity="0.2" d="M38.7308 62.3594C38.7308 62.3594 36.9318 62.4745 36.0813 62.9735C36.9815 62.8505 37.8685 62.6449 38.7308 62.3594Z" fill="black"/>
<path d="M32.0879 67.768C32.2837 68.0355 32.531 68.2614 32.8152 68.4327C33.0994 68.604 33.4149 68.7173 33.7434 68.766C34.6219 68.8916 34.9544 68.0681 34.6219 67.3074C34.3174 66.6096 33.4949 65.7128 32.6549 65.9431C32.472 65.9952 32.305 66.0919 32.169 66.2245C32.033 66.3572 31.9324 66.5215 31.8761 66.7026C31.8198 66.8838 31.8097 67.076 31.8467 67.2621C31.8837 67.4481 31.9666 67.622 32.0879 67.768Z" fill="#7F3E3B"/>
<path d="M36.8024 64.9298C36.8444 65.1427 36.9949 65.2788 37.1314 65.2613C37.2679 65.2439 37.3484 65.0345 37.3064 64.8251C37.2644 64.6158 37.1174 64.4762 36.9774 64.4937C36.8374 64.5111 36.7499 64.717 36.8024 64.9298Z" fill="#263238"/>
<path d="M39.0669 64.5041C39.1089 64.7169 39.2559 64.853 39.3959 64.8356C39.5359 64.8181 39.6129 64.6123 39.5709 64.3994C39.5289 64.1865 39.3784 64.0505 39.2419 64.0679C39.1054 64.0854 39.0214 64.2912 39.0669 64.5041Z" fill="#263238"/>
<path d="M38.3669 64.8242L38.7169 66.6108C39.098 66.6265 39.4716 66.5024 39.7669 66.2618C39.4391 65.6654 38.9553 65.1686 38.3669 64.8242Z" fill="#630F0F"/>
<path d="M35.9904 64.4308C35.9685 64.436 35.9457 64.436 35.9239 64.4308C35.908 64.426 35.8932 64.4181 35.8804 64.4077C35.8676 64.3972 35.857 64.3843 35.8492 64.3697C35.8414 64.3551 35.8365 64.3391 35.8349 64.3226C35.8333 64.3062 35.835 64.2896 35.8399 64.2738C35.8943 64.078 35.9947 63.898 36.1329 63.7487C36.2711 63.5994 36.443 63.4852 36.6344 63.4154C36.6505 63.4106 36.6673 63.4091 36.684 63.4109C36.7007 63.4127 36.7169 63.4178 36.7315 63.426C36.7462 63.4341 36.7591 63.4451 36.7695 63.4582C36.7798 63.4714 36.7874 63.4865 36.7919 63.5026C36.8006 63.535 36.7963 63.5695 36.78 63.5988C36.7637 63.6281 36.7366 63.6499 36.7044 63.6596C36.5532 63.7189 36.4182 63.8131 36.3105 63.9344C36.2029 64.0557 36.1255 64.2007 36.0849 64.3575C36.0762 64.3764 36.0631 64.3929 36.0466 64.4057C36.0302 64.4185 36.0109 64.4271 35.9904 64.4308Z" fill="#E0E0E0"/>
<path d="M40.1623 63.6164C40.1417 63.6204 40.1204 63.6193 40.1003 63.6132C40.0801 63.6072 40.0618 63.5963 40.0468 63.5816C39.9397 63.4631 39.8055 63.3721 39.6556 63.3163C39.5058 63.2604 39.3447 63.2413 39.1858 63.2605C39.1693 63.2641 39.1522 63.2642 39.1355 63.261C39.1189 63.2578 39.1031 63.2513 39.089 63.2418C39.075 63.2324 39.063 63.2202 39.0537 63.206C39.0445 63.1919 39.0383 63.176 39.0353 63.1593C39.03 63.1262 39.0376 63.0922 39.0564 63.0644C39.0753 63.0365 39.104 63.0168 39.1368 63.0093C39.3405 62.9797 39.5484 63.0001 39.7424 63.0688C39.9364 63.1375 40.1106 63.2525 40.2498 63.4036C40.2616 63.4153 40.2709 63.4291 40.2773 63.4444C40.2836 63.4597 40.2869 63.476 40.2869 63.4926C40.2869 63.5091 40.2836 63.5255 40.2773 63.5407C40.2709 63.556 40.2616 63.5699 40.2498 63.5816C40.2387 63.5934 40.2251 63.6026 40.21 63.6086C40.1948 63.6146 40.1786 63.6173 40.1623 63.6164Z" fill="#E0E0E0"/>
<path d="M40.9883 76.6515C37.9958 76.3618 31.9303 72.3874 34.2648 71.543C35.7628 73.1865 38.4648 73.6157 39.6303 73.6157C40.0643 73.2039 40.4773 72.0385 39.4168 71.0022C40.6348 70.8975 43.0743 74.6311 40.9883 76.6515Z" fill="#37ED81"/>
<path d="M119.606 108.467H143.346C143.717 108.467 144.073 108.32 144.336 108.058C144.599 107.797 144.746 107.442 144.746 107.072C144.746 106.701 144.599 106.346 144.336 106.085C144.073 105.823 143.717 105.676 143.346 105.676H119.606C119.234 105.676 118.878 105.823 118.616 106.085C118.353 106.346 118.206 106.701 118.206 107.072C118.206 107.442 118.353 107.797 118.616 108.058C118.878 108.32 119.234 108.467 119.606 108.467Z" fill="#37ED81"/>
<path d="M146.965 105.666H147.756L150.77 86.0625H149.979L146.965 105.666Z" fill="#263238"/>
<path d="M134.908 105.666H135.699L138.712 86.0625H137.925L134.908 105.666Z" fill="#263238"/>
<path d="M134.876 101.724H150.357C150.875 101.707 151.371 101.512 151.762 101.172C152.152 100.832 152.412 100.367 152.499 99.8575L154.861 83.4923C154.903 83.2608 154.893 83.0227 154.831 82.7956C154.77 82.5684 154.658 82.3577 154.505 82.1789C154.351 82.0002 154.16 81.8577 153.944 81.762C153.728 81.6663 153.494 81.6196 153.258 81.6255H137.778C137.259 81.6419 136.763 81.837 136.373 82.1774C135.983 82.5178 135.724 82.9825 135.639 83.4923L133.273 99.8575C133.231 100.089 133.241 100.327 133.303 100.554C133.364 100.781 133.476 100.992 133.629 101.171C133.783 101.35 133.974 101.492 134.19 101.588C134.406 101.684 134.64 101.73 134.876 101.724Z" fill="#37ED81"/>
<path opacity="0.4" d="M154.861 83.4921L152.499 99.8572C152.436 100.253 152.264 100.624 152.002 100.928C151.435 101.595 150.427 101.232 150.546 100.419L153.073 82.9303C153.188 82.1172 154.301 81.7543 154.676 82.4208C154.854 82.7477 154.919 83.1243 154.861 83.4921Z" fill="white"/>
<path d="M137.165 108.467H148.015C148.386 108.467 148.743 108.32 149.005 108.058C149.268 107.797 149.415 107.442 149.415 107.072C149.415 106.701 149.268 106.346 149.005 106.085C148.743 105.823 148.386 105.676 148.015 105.676H137.165C136.794 105.676 136.438 105.823 136.175 106.085C135.913 106.346 135.765 106.701 135.765 107.072C135.765 107.442 135.913 107.797 136.175 108.058C136.438 108.32 136.794 108.467 137.165 108.467Z" fill="#37ED81"/>
<path opacity="0.4" d="M137.165 108.467H148.015C148.386 108.467 148.743 108.32 149.005 108.058C149.268 107.797 149.415 107.442 149.415 107.072C149.415 106.701 149.268 106.346 149.005 106.085C148.743 105.823 148.386 105.676 148.015 105.676H137.165C136.794 105.676 136.438 105.823 136.175 106.085C135.913 106.346 135.765 106.701 135.765 107.072C135.765 107.442 135.913 107.797 136.175 108.058C136.438 108.32 136.794 108.467 137.165 108.467Z" fill="white"/>
<path d="M131.254 125.35H132.041L135.058 108.469H134.267L131.254 125.35Z" fill="#263238"/>
<path d="M117.558 125.35H118.346L121.359 108.469H120.572L117.558 125.35Z" fill="#263238"/>
<path d="M136.556 125.35H135.765L132.752 108.469H133.543L136.556 125.35Z" fill="#263238"/>
<path d="M150.252 125.35H149.461L146.447 108.469H147.238L150.252 125.35Z" fill="#263238"/>
<path d="M123.848 71.5093C124.695 72.6154 125.136 72.3258 125.706 70.9301C126.056 70.0333 127.064 70.4276 127.299 68.8365C127.393 68.177 125.297 66.9068 124.149 67.2488C123.001 67.5908 123.2 70.6474 123.848 71.5093Z" fill="#263238"/>
<path d="M125.597 78.7007C125.241 78.5978 124.867 78.5661 124.498 78.6074C124.128 78.6488 123.771 78.7623 123.446 78.9415C123.121 79.1208 122.834 79.3622 122.603 79.652C122.372 79.9418 122.2 80.2742 122.097 80.6303L122.041 80.8187L121.894 81.3317L121.723 81.897C121.6 82.2738 121.478 82.6507 121.338 83.017C121.084 83.7233 120.781 84.4112 120.431 85.0758C120.148 85.617 119.795 86.1191 119.381 86.5692C119.263 86.6984 119.132 86.8153 118.989 86.9182C118.779 86.7821 118.566 86.639 118.352 86.4785C117.779 86.0481 117.228 85.5893 116.7 85.1037C116.144 84.6082 115.601 84.0778 115.055 83.5335C114.509 82.9891 113.963 82.4169 113.442 81.8935L113.379 81.8307C113.148 81.6018 112.846 81.4585 112.523 81.4246C112.199 81.3908 111.873 81.4684 111.6 81.6445C111.327 81.8207 111.123 82.0848 111.021 82.3929C110.919 82.701 110.926 83.0345 111.041 83.3381C111.351 84.1384 111.712 84.9181 112.122 85.6725C112.53 86.4288 112.979 87.1626 113.466 87.8708C113.974 88.6091 114.535 89.3089 115.146 89.9644C115.815 90.6949 116.574 91.3385 117.404 91.8801C117.741 92.0913 118.129 92.206 118.527 92.2115H118.737C119.528 92.2157 120.313 92.0676 121.047 91.7754C121.72 91.5063 122.347 91.1356 122.906 90.6762C123.842 89.8969 124.638 88.9648 125.261 87.9196C125.817 87.0078 126.285 86.0464 126.661 85.0479C126.847 84.5628 127.011 84.0813 127.162 83.5893C127.235 83.3416 127.309 83.0938 127.372 82.8426L127.463 82.4622L127.557 82.033C127.716 81.3333 127.602 80.5997 127.238 79.9809C126.874 79.3622 126.287 78.9045 125.597 78.7007Z" fill="black"/>
<path d="M108.399 82.0825L109.281 82.7804C109.631 83.0567 110.037 83.2543 110.471 83.3596L111.678 83.6562C111.952 83.7233 112.24 83.7113 112.508 83.6217C112.775 83.5322 113.012 83.3687 113.19 83.1502C113.435 82.8534 113.554 82.4734 113.523 82.0905C113.491 81.7076 113.312 81.3518 113.022 81.0985C112.57 80.7395 112.068 80.4491 111.531 80.2366L110.296 79.5143C110.092 79.3958 109.853 79.3531 109.621 79.394C109.389 79.4349 109.179 79.5567 109.029 79.7376L108.252 80.6763C108.168 80.7778 108.105 80.8949 108.066 81.0209C108.028 81.1469 108.016 81.2792 108.029 81.4101C108.043 81.541 108.083 81.6679 108.146 81.7834C108.209 81.8988 108.295 82.0005 108.399 82.0825Z" fill="#FFB573"/>
<path d="M132.461 76.8365C129.567 77.0703 126.312 77.4367 123.858 78.5812C123.265 78.8716 122.78 79.3424 122.473 79.9258C122.166 80.5091 122.053 81.1747 122.15 81.8263C122.518 84.555 122.805 86.6695 123.473 88.9167C124.919 93.8018 121.415 95.9408 124.674 99.7163C126.102 101.332 134.855 102.857 141.054 100.822C141.859 97.4831 141.481 90.7381 140.48 83.2988C140.229 81.4021 139.257 79.6738 137.765 78.4711C136.273 77.2684 134.374 76.6832 132.461 76.8365Z" fill="#263238"/>
<path d="M138.761 86.9141C140.375 94.4616 139.16 96.468 136.038 98.5721C131.656 99.249 129.899 97.445 129.899 97.445L138.761 86.9141Z" fill="black"/>
<path d="M128.692 88.0256L132.489 88.0501C132.579 88.0502 132.665 88.0158 132.731 87.9541C132.796 87.8924 132.835 87.8081 132.839 87.7186L132.941 86.096C132.946 86.0533 132.942 86.0099 132.93 85.9686C132.918 85.9274 132.897 85.8891 132.869 85.8563C132.841 85.8235 132.806 85.7968 132.767 85.778C132.729 85.7592 132.686 85.7487 132.643 85.7471L128.846 85.7227C128.756 85.7225 128.669 85.7569 128.604 85.8186C128.539 85.8803 128.5 85.9647 128.496 86.0541L128.394 87.6767C128.388 87.7195 128.391 87.7631 128.403 87.8046C128.416 87.8461 128.436 87.8846 128.464 87.9175C128.493 87.9505 128.527 87.9771 128.566 87.9958C128.606 88.0144 128.648 88.0246 128.692 88.0256Z" fill="white"/>
<g opacity="0.2">
<path d="M126.637 82.8381C126.611 82.8379 126.587 82.8302 126.565 82.8159C126.544 82.8016 126.528 82.7814 126.518 82.7578C126.508 82.7263 126.51 82.6921 126.524 82.6622C126.539 82.6324 126.564 82.6091 126.595 82.5973C128.748 81.8366 131.807 79.8721 132.766 78.6299C132.774 78.6144 132.786 78.6009 132.801 78.5904C132.815 78.5799 132.832 78.5726 132.85 78.569C132.867 78.5654 132.885 78.5655 132.903 78.5695C132.92 78.5734 132.937 78.581 132.951 78.5917C132.965 78.6025 132.977 78.6162 132.986 78.6319C132.994 78.6475 132.999 78.6649 133.001 78.6827C133.002 78.7005 133 78.7184 132.993 78.7352C132.987 78.7519 132.978 78.7672 132.965 78.78C131.866 80.2001 128.685 82.1228 126.665 82.8311C126.656 82.835 126.647 82.8373 126.637 82.8381Z" fill="white"/>
<path d="M128.769 83.0492H128.73C126.683 82.4176 125.836 80.3345 125.657 79.2109C125.654 79.1946 125.654 79.1778 125.658 79.1616C125.662 79.1455 125.669 79.1302 125.679 79.1168C125.688 79.1035 125.701 79.0922 125.715 79.0838C125.73 79.0753 125.746 79.0699 125.762 79.0678C125.778 79.0654 125.795 79.0661 125.81 79.0701C125.826 79.074 125.841 79.0811 125.854 79.0908C125.867 79.1006 125.878 79.1128 125.886 79.1269C125.895 79.1409 125.9 79.1564 125.902 79.1725C126.074 80.2472 126.875 82.2222 128.804 82.8189C128.819 82.8233 128.834 82.8308 128.847 82.8409C128.86 82.8511 128.87 82.8637 128.878 82.878C128.886 82.8923 128.891 82.908 128.892 82.9242C128.894 82.9405 128.892 82.9568 128.888 82.9724C128.878 82.9956 128.861 83.0154 128.84 83.0291C128.819 83.0428 128.794 83.0498 128.769 83.0492Z" fill="white"/>
</g>
<path d="M130.655 72.8711C130.599 74.3087 130.981 76.4965 132.083 77.327C132.205 77.4172 132.302 77.5357 132.367 77.672C132.433 77.8084 132.464 77.9586 132.457 78.1095C132.451 78.2605 132.408 78.4076 132.332 78.5382C132.256 78.6688 132.149 78.7789 132.02 78.8589C131.219 79.3683 129.038 80.4744 127.95 80.4744C126.861 80.4744 126.231 79.2741 126.354 78.6844C126.425 78.4029 126.585 78.1512 126.809 77.9656C127.544 77.2991 127.005 76.6117 126.704 76.1127L130.655 72.8711Z" fill="#FFB573"/>
<path opacity="0.2" d="M129.469 74.8754C129.443 74.7876 129.413 74.7014 129.378 74.6172L126.7 76.1141C126.966 76.4471 127.131 76.8491 127.176 77.2726C128.524 76.7318 129.71 75.6989 129.469 74.8754Z" fill="black"/>
<path d="M113.096 117.891C113.537 117.431 116.403 116.555 116.403 116.555C117.153 118.7 117.771 120.888 118.255 123.108L114.552 123.478C114.552 123.478 113.943 119.737 113.096 117.891Z" fill="#FFB573"/>
<path d="M130.55 97.9102C119.84 98.0602 105.746 97.4879 109.067 107.22C110.488 111.386 109.295 109.969 110.957 115.012C111.657 117.185 111.916 117.824 112.434 119.331C113.001 120.678 116.41 120.427 117.684 119.9C119.196 119.098 117.915 116.931 117.74 115.713C116.879 109.757 118.458 110.43 116.582 106.525C119.998 107.021 130.89 106.675 132.332 100.82C132.3 100.82 134.274 98.4859 130.55 97.9102Z" fill="#37ED81"/>
<path opacity="0.4" d="M130.55 97.9102C119.84 98.0602 105.746 97.4879 109.067 107.22C110.488 111.386 109.295 109.969 110.957 115.012C111.657 117.185 111.916 117.824 112.434 119.331C113.001 120.678 116.41 120.427 117.684 119.9C119.196 119.098 117.915 116.931 117.74 115.713C116.879 109.757 118.458 110.43 116.582 106.525C119.998 107.021 130.89 106.675 132.332 100.82C132.3 100.82 134.274 98.4859 130.55 97.9102Z" fill="black"/>
<path d="M113.306 120.035L113.764 120.935C113.791 120.989 113.835 121.034 113.889 121.061C113.943 121.088 114.005 121.096 114.065 121.085C114.67 120.98 116.48 120.691 117.53 120.82C117.568 120.824 117.606 120.821 117.643 120.81C117.679 120.799 117.713 120.78 117.742 120.756C117.772 120.731 117.795 120.701 117.812 120.667C117.829 120.633 117.839 120.596 117.841 120.558C117.862 120.209 117.859 119.741 117.841 119.455C117.84 119.382 117.809 119.311 117.756 119.26C117.703 119.208 117.632 119.18 117.558 119.18C116.188 119.194 114.824 119.345 113.484 119.63C113.443 119.641 113.405 119.662 113.373 119.689C113.341 119.717 113.316 119.751 113.299 119.79C113.282 119.829 113.273 119.871 113.275 119.913C113.276 119.955 113.286 119.997 113.306 120.035Z" fill="#263238"/>
<path d="M119.06 125.448L118.65 122.852C118.636 122.792 118.601 122.739 118.551 122.702C118.5 122.666 118.439 122.648 118.377 122.653L114.58 122.671C114.274 122.651 113.97 122.732 113.715 122.901C112.861 123.599 111.535 124.297 109.61 124.646C109.001 124.764 109.26 125.968 110.688 125.961C113.05 125.961 112.952 125.877 114.965 125.87C116.687 125.87 117.117 125.947 118.486 125.961C118.558 125.969 118.631 125.962 118.701 125.94C118.77 125.919 118.834 125.882 118.888 125.834C118.943 125.785 118.986 125.726 119.016 125.659C119.045 125.593 119.06 125.521 119.06 125.448Z" fill="#263238"/>
<path d="M131.103 69.4379C131.103 72.0549 131.236 73.5763 129.966 75.0767C128.055 77.3343 124.677 76.5562 123.876 74.0299C123.155 71.7688 123.281 67.8677 125.836 66.5103C128.391 65.1529 131.107 66.8243 131.103 69.4379Z" fill="#FFB573"/>
<path d="M126.263 70.5919C126.245 70.8291 126.357 71.028 126.511 71.0385C126.665 71.049 126.809 70.8675 126.826 70.6302C126.844 70.393 126.732 70.1906 126.578 70.1801C126.424 70.1696 126.28 70.3546 126.263 70.5919Z" fill="#263238"/>
<path d="M123.806 70.5376C123.785 70.7749 123.897 70.9773 124.051 70.9877C124.205 70.9982 124.348 70.8133 124.366 70.576C124.383 70.3387 124.275 70.1398 124.121 70.1293C123.967 70.1189 123.823 70.3003 123.806 70.5376Z" fill="#263238"/>
<path d="M130.571 71.6551C129.28 72.1855 129.045 71.7144 129.262 70.221C129.399 69.2649 128.342 69.1044 128.947 67.6075C129.199 66.9933 131.653 66.9445 132.447 67.8098C133.242 68.6752 131.579 71.2434 130.571 71.6551Z" fill="#263238"/>
<path d="M32.7039 65.8215C33.7012 66.2717 33.8822 65.8719 33.7147 64.6044C33.6093 63.7929 34.4254 63.6567 33.9579 62.3863C33.7633 61.865 31.8689 61.8236 31.2554 62.558C30.642 63.2925 31.9256 65.4721 32.7039 65.8215Z" fill="#263238"/>
<path d="M130.036 68.2855C127.082 68.5403 123.288 68.5542 122.756 66.3908C122.406 64.9253 124.177 62.7305 126.907 64.8659C128.807 66.3454 130.652 65.4312 131.579 65.7488C132.423 66.0384 134.05 67.9366 130.036 68.2855Z" fill="#263238"/>
<path d="M32.4523 62.9215C35.1412 63.0942 38.5946 63.1036 39.0789 61.6369C39.3974 60.6432 37.7854 59.1551 35.3005 60.603C33.5705 61.6061 31.8916 60.9863 31.0474 61.2015C30.2796 61.3979 28.7982 62.6849 32.4523 62.9215Z" fill="#263238"/>
<path d="M131.95 67.9094C131.815 67.9082 131.68 67.8954 131.548 67.871C131.526 67.8671 131.506 67.8591 131.488 67.8473C131.469 67.8356 131.454 67.8203 131.441 67.8025C131.429 67.7847 131.42 67.7646 131.416 67.7434C131.411 67.7223 131.411 67.7004 131.415 67.6791C131.418 67.6578 131.427 67.6375 131.438 67.6193C131.45 67.6011 131.465 67.5854 131.483 67.573C131.501 67.5607 131.521 67.5521 131.543 67.5475C131.564 67.5429 131.586 67.5426 131.607 67.5465C131.785 67.5966 131.972 67.6056 132.154 67.573C132.336 67.5403 132.508 67.4668 132.657 67.3581C132.735 67.2937 132.797 67.2125 132.839 67.1206C132.881 67.0287 132.901 66.9286 132.899 66.8277C132.898 66.806 132.901 66.7844 132.909 66.7641C132.916 66.7438 132.928 66.7253 132.943 66.7096C132.958 66.694 132.976 66.6815 132.996 66.673C133.016 66.6645 133.038 66.6602 133.06 66.6602C133.081 66.6597 133.102 66.6635 133.122 66.6714C133.142 66.6793 133.16 66.691 133.176 66.706C133.191 66.7209 133.203 66.7388 133.211 66.7585C133.22 66.7782 133.224 66.7993 133.224 66.8207C133.231 66.9702 133.203 67.1191 133.142 67.2559C133.081 67.3927 132.989 67.5137 132.874 67.6093C132.614 67.8192 132.285 67.9261 131.95 67.9094Z" fill="#263238"/>
<path d="M126.599 73.2768C126.474 73.3132 126.346 73.3378 126.217 73.3501C126.208 73.351 126.199 73.3503 126.191 73.3478C126.183 73.3453 126.175 73.3412 126.168 73.3357C126.161 73.3302 126.155 73.3234 126.151 73.3157C126.147 73.308 126.144 73.2995 126.144 73.2908C126.142 73.2818 126.142 73.2726 126.145 73.2638C126.147 73.2549 126.151 73.2467 126.157 73.2395C126.162 73.2323 126.169 73.2263 126.177 73.2219C126.185 73.2175 126.194 73.2148 126.203 73.214C126.487 73.1897 126.761 73.0998 127.004 72.9514C127.247 72.803 127.452 72.6002 127.603 72.3591C127.607 72.3509 127.612 72.3436 127.619 72.3376C127.626 72.3315 127.633 72.3269 127.642 72.324C127.65 72.321 127.659 72.3198 127.668 72.3205C127.677 72.3211 127.686 72.3236 127.694 72.3277C127.709 72.3365 127.721 72.3508 127.726 72.3676C127.731 72.3844 127.73 72.4026 127.722 72.4184C127.475 72.8406 127.072 73.1489 126.599 73.2768Z" fill="#263238"/>
<path d="M127.019 69.1651C127.043 69.1619 127.067 69.1662 127.088 69.1774C127.11 69.1887 127.127 69.2064 127.138 69.2279C127.208 69.3664 127.31 69.4866 127.435 69.5787C127.56 69.6708 127.705 69.7323 127.859 69.7583C127.877 69.7572 127.895 69.76 127.912 69.7665C127.928 69.773 127.944 69.7831 127.956 69.796C127.969 69.8089 127.979 69.8243 127.985 69.8413C127.991 69.8582 127.993 69.8763 127.992 69.8943C127.99 69.9122 127.985 69.9297 127.976 69.9454C127.967 69.9611 127.955 69.9747 127.94 69.9853C127.926 69.9959 127.909 70.0032 127.891 70.0068C127.873 70.0104 127.855 70.0101 127.838 70.0061C127.643 69.9763 127.459 69.901 127.299 69.7863C127.14 69.6717 127.01 69.521 126.921 69.3466C126.913 69.3324 126.908 69.3168 126.906 69.3006C126.904 69.2845 126.905 69.2682 126.91 69.2526C126.914 69.237 126.922 69.2224 126.932 69.2098C126.943 69.1972 126.955 69.1867 126.97 69.1791C126.984 69.1697 127.001 69.1648 127.019 69.1651Z" fill="#263238"/>
<path d="M124.292 69.2266C124.321 69.2291 124.347 69.2429 124.366 69.2649C124.377 69.2763 124.386 69.2899 124.393 69.3049C124.399 69.3198 124.402 69.3359 124.402 69.3522C124.402 69.3684 124.399 69.3845 124.393 69.3995C124.386 69.4145 124.377 69.428 124.366 69.4394C124.227 69.5804 124.056 69.6857 123.868 69.7465C123.679 69.8073 123.479 69.8216 123.284 69.7883C123.252 69.7809 123.225 69.7613 123.208 69.7338C123.191 69.7063 123.186 69.6733 123.193 69.6418C123.201 69.6095 123.221 69.5814 123.249 69.5637C123.277 69.5461 123.311 69.5403 123.344 69.5476C123.497 69.5729 123.655 69.5608 123.803 69.5122C123.951 69.4636 124.085 69.3799 124.194 69.2684C124.207 69.2553 124.222 69.2448 124.239 69.2376C124.256 69.2304 124.274 69.2266 124.292 69.2266Z" fill="#263238"/>
<path d="M132.174 71.994C131.881 72.5582 131.379 72.9862 130.774 73.1873C129.962 73.4386 129.532 72.7198 129.724 71.9451C129.906 71.2472 130.55 70.2737 131.376 70.3609C131.556 70.3836 131.726 70.4504 131.873 70.5554C132.02 70.6604 132.139 70.8002 132.218 70.9623C132.297 71.1244 132.335 71.3036 132.327 71.4837C132.319 71.6638 132.267 71.8392 132.174 71.994Z" fill="#FFB573"/>
<path d="M124.999 70.6211C124.814 71.2898 124.538 71.9298 124.177 72.5228C124.332 72.6114 124.505 72.6653 124.683 72.681C124.861 72.6966 125.041 72.6736 125.209 72.6135L124.999 70.6211Z" fill="#ED893E"/>
<path d="M123.792 117.692C124.184 117.189 126.942 116.027 126.942 116.027C127.903 118.086 128.74 120.201 129.448 122.361L125.801 123.1C125.801 123.1 124.821 119.443 123.792 117.692Z" fill="#FFB573"/>
<path d="M131.922 97.1953C121.398 97.9106 113.257 97.9316 117.901 107.109C119.889 111.034 119.207 110.193 121.37 115.043C122.301 117.137 122.609 117.744 123.281 119.189C123.981 120.473 127.348 119.887 128.531 119.231C129.955 118.278 128.461 116.251 128.181 115.043C126.721 109.206 128.377 110.082 126.144 106.365C129.591 106.543 141.355 107.698 141.04 100.807C141.05 100.821 139.325 97.1953 131.922 97.1953Z" fill="#37ED81"/>
<path opacity="0.4" d="M131.922 97.1953C121.398 97.9106 113.257 97.9316 117.901 107.109C119.889 111.034 119.207 110.193 121.37 115.043C122.301 117.137 122.609 117.744 123.281 119.189C123.981 120.473 127.348 119.887 128.531 119.231C129.955 118.278 128.461 116.251 128.181 115.043C126.721 109.206 128.377 110.082 126.144 106.365C129.591 106.543 141.355 107.698 141.04 100.807C141.05 100.821 139.325 97.1953 131.922 97.1953Z" fill="black"/>
<path d="M124.219 119.813L124.765 120.664C124.797 120.715 124.846 120.754 124.903 120.775C124.959 120.797 125.021 120.8 125.08 120.783C125.675 120.619 127.442 120.148 128.503 120.169C128.541 120.17 128.579 120.162 128.614 120.148C128.649 120.133 128.681 120.111 128.708 120.084C128.735 120.056 128.755 120.024 128.769 119.988C128.782 119.952 128.788 119.914 128.786 119.876C128.786 119.527 128.72 119.066 128.685 118.78C128.676 118.707 128.639 118.64 128.581 118.594C128.524 118.548 128.45 118.526 128.377 118.532C127.015 118.685 125.673 118.974 124.369 119.394C124.328 119.408 124.291 119.43 124.26 119.46C124.23 119.49 124.206 119.527 124.192 119.567C124.177 119.608 124.172 119.651 124.177 119.693C124.181 119.736 124.196 119.777 124.219 119.813Z" fill="#263238"/>
<path d="M130.491 124.437L129.731 121.809C129.71 121.751 129.667 121.703 129.613 121.674C129.558 121.645 129.494 121.637 129.434 121.652L125.678 122.217C125.373 122.241 125.084 122.363 124.856 122.566C123.904 123.674 122.594 124.414 121.153 124.66C120.544 124.778 120.803 125.982 122.231 125.975C124.59 125.975 124.488 125.668 126.48 125.375C127.988 125.155 128.625 125.148 129.98 125.026C130.054 125.026 130.127 125.01 130.194 124.979C130.262 124.948 130.321 124.903 130.37 124.847C130.418 124.792 130.454 124.726 130.475 124.655C130.496 124.584 130.501 124.51 130.491 124.437Z" fill="#263238"/>
<path d="M121.506 96.6353L122.602 96.3806C123.039 96.2846 123.491 96.2846 123.928 96.3806L125.143 96.6283C125.419 96.6845 125.674 96.8175 125.878 97.012C126.081 97.2065 126.226 97.4546 126.294 97.7275C126.389 98.1002 126.334 98.4951 126.141 98.8281C125.948 99.1611 125.633 99.406 125.262 99.5105C124.701 99.6449 124.122 99.6943 123.547 99.6571L122.119 99.7792C121.884 99.7992 121.65 99.7359 121.458 99.6005C121.266 99.4651 121.128 99.2664 121.069 99.0395L120.768 97.8601C120.733 97.7312 120.724 97.5967 120.743 97.4645C120.761 97.3323 120.806 97.2053 120.875 97.0909C120.944 96.9765 121.036 96.8772 121.144 96.7989C121.252 96.7206 121.376 96.665 121.506 96.6353Z" fill="#FFB573"/>
<path d="M138.88 83.9929C138.807 83.0159 138.719 82.0808 138.569 81.0723C138.46 80.3458 138.072 79.69 137.487 79.244C136.902 78.798 136.165 78.5971 135.433 78.6838C134.702 78.7706 134.033 79.1382 133.569 79.7086C133.105 80.279 132.882 81.0073 132.948 81.7388V81.7807L133.179 84.4326C133.259 85.3259 133.326 86.2227 133.385 87.1055C133.413 87.5486 133.438 87.9883 133.455 88.4245C133.473 88.8606 133.494 89.2968 133.497 89.7225C133.497 90.2494 133.497 90.7693 133.497 91.2718C133.102 91.5509 132.682 91.8336 132.255 92.1092C131.457 92.6187 130.627 93.1351 129.78 93.6306C128.933 94.1261 128.076 94.632 127.215 95.131C126.354 95.63 125.465 96.136 124.632 96.6489H124.607C124.372 96.8065 124.2 97.041 124.12 97.3117C124.04 97.5825 124.058 97.8726 124.17 98.1319C124.411 98.8751 124.887 99.409 125.65 99.2415C126.683 99.0147 127.666 98.739 128.66 98.4424C129.654 98.1458 130.631 97.8144 131.607 97.4515C132.584 97.0886 133.56 96.7047 134.53 96.2441C135.559 95.7838 136.551 95.2424 137.494 94.6251C137.976 94.2969 138.314 93.7977 138.439 93.2293L138.485 93.0199C138.702 91.9845 138.846 90.9351 138.915 89.8795C138.996 88.8676 139.01 87.8836 139.006 86.8996C139.003 85.9156 138.95 84.9595 138.88 83.9929Z" fill="#263238"/>
<path d="M90.4294 83.3957C90.2789 82.4327 88.5044 82.0279 88.5044 82.0279L87.4544 81.5987C87.2837 81.5276 87.0931 81.5198 86.9172 81.5768C86.7412 81.6338 86.5916 81.7517 86.4954 81.9093L85.9879 82.7223C85.9334 82.8102 85.8971 82.9081 85.8809 83.0102C85.8648 83.1124 85.8693 83.2166 85.894 83.317C85.9188 83.4174 85.9634 83.5119 86.0252 83.5949C86.087 83.6779 86.1647 83.7478 86.2539 83.8005L87.2164 84.3658C87.3875 84.4671 87.5785 84.5302 87.7764 84.5507L88.5814 84.6345C88.9202 84.6695 89.262 84.6077 89.5669 84.4563C89.8718 84.305 90.1273 84.0702 90.3034 83.7796L90.3524 83.7028C90.4128 83.6124 90.44 83.5039 90.4294 83.3957Z" fill="#FF8B7B"/>
<path d="M102.466 75.7891C102.081 77.464 101.654 80.5346 102.798 81.6931C100.6 82.1521 98.5658 83.1908 96.9077 84.7009C95.7912 82.4677 97.5517 81.5291 97.5517 81.5291C99.4487 81.1417 99.4452 79.746 99.1582 78.4305L102.466 75.7891Z" fill="#FF8B7B"/>
<path d="M96.5333 83.0959C97.1178 81.3163 95.7108 80.9604 98.1188 80.2277C100.002 79.6519 103.509 79.8089 104.307 80.444C104.751 80.7929 104.072 81.8712 104.072 81.8712L96.5333 83.0959Z" fill="#E0E0E0"/>
<path d="M105.395 84.7325L105.276 84.8791L105.175 85.0047L104.972 85.235C104.839 85.385 104.699 85.5246 104.562 85.6677C104.286 85.9433 104.002 86.2085 103.708 86.4667C103.125 86.9805 102.501 87.4472 101.843 87.8625C101.517 88.0753 101.174 88.2603 100.838 88.4522C100.502 88.6441 100.138 88.8011 99.7883 88.9582C99.0714 89.272 98.3305 89.5287 97.5728 89.7258L97.4748 89.7502C97.3351 89.7904 97.189 89.8035 97.0443 89.7886C96.5166 89.7374 96.0009 89.5995 95.5183 89.3804C95.1337 89.2111 94.7597 89.0188 94.3983 88.8046C93.7308 88.407 93.087 87.9712 92.4698 87.4996C91.8678 87.0344 91.2845 86.5563 90.7198 86.0655C90.1633 85.563 89.6243 85.064 89.0958 84.5127C88.9478 84.3614 88.8601 84.1615 88.8493 83.9504C88.8384 83.7394 88.9051 83.5316 89.0369 83.366C89.1686 83.2004 89.3564 83.0884 89.5651 83.0509C89.7737 83.0134 89.9889 83.053 90.1703 83.1623H90.1878C90.8003 83.5113 91.4198 83.8986 92.0393 84.2475C92.6588 84.5965 93.2783 84.9454 93.8943 85.2943C94.5103 85.6433 95.1298 85.9399 95.7318 86.205C96.0144 86.3324 96.3042 86.4431 96.5998 86.5365C96.7892 86.6025 96.9874 86.6402 97.1878 86.6482L96.6593 86.711C97.239 86.492 97.8037 86.2356 98.3498 85.9433C98.8975 85.6542 99.426 85.3302 99.9318 84.9733C100.441 84.618 100.93 84.2335 101.395 83.8218C101.629 83.6194 101.853 83.4101 102.07 83.1937L102.385 82.8692L102.532 82.7122L102.651 82.5831L102.746 82.4784C103.057 82.1689 103.474 81.9875 103.913 81.9701C104.352 81.9528 104.781 82.1008 105.116 82.3848C105.451 82.6688 105.666 83.068 105.719 83.503C105.772 83.9379 105.659 84.3769 105.402 84.7325H105.395Z" fill="#FF8B7B"/>
<path d="M92.3122 85.3359C92.3122 86.4699 90.4502 89.0311 92.6132 90.6188C92.8022 92.9148 93.0577 95.1759 93.5512 98.9479L105.101 99.2969C103.999 95.1096 104.947 92.3426 106.708 85.0951C106.805 84.6985 106.817 84.2861 106.743 83.8845C106.67 83.4829 106.512 83.1013 106.281 82.7643C106.05 82.4273 105.751 82.1426 105.402 81.9285C105.053 81.7145 104.664 81.576 104.258 81.522C103.799 81.4627 103.309 81.4069 102.812 81.3685C101.069 81.1871 99.314 81.1311 97.5622 81.201C96.9952 81.2359 96.4072 81.2882 95.8472 81.351C94.866 81.457 93.9598 81.9242 93.306 82.6612C92.6522 83.3983 92.2978 84.3521 92.3122 85.3359Z" fill="#37ED81"/>
<path opacity="0.4" d="M92.3122 85.3359C92.3122 86.4699 90.4502 89.0311 92.6132 90.6188C92.8022 92.9148 93.0577 95.1759 93.5512 98.9479L105.101 99.2969C103.999 95.1096 104.947 92.3426 106.708 85.0951C106.805 84.6985 106.817 84.2861 106.743 83.8845C106.67 83.4829 106.512 83.1013 106.281 82.7643C106.05 82.4273 105.751 82.1426 105.402 81.9285C105.053 81.7145 104.664 81.576 104.258 81.522C103.799 81.4627 103.309 81.4069 102.812 81.3685C101.069 81.1871 99.314 81.1311 97.5622 81.201C96.9952 81.2359 96.4072 81.2882 95.8472 81.351C94.866 81.457 93.9598 81.9242 93.306 82.6612C92.6522 83.3983 92.2978 84.3521 92.3122 85.3359Z" fill="black"/>
<path d="M96.5998 73.1687C96.5683 73.3746 96.4283 73.5177 96.2918 73.5177C96.1553 73.5177 96.0713 73.3083 96.1063 73.0989C96.1413 72.8896 96.2778 72.75 96.4143 72.75C96.5508 72.75 96.6488 72.9594 96.5998 73.1687Z" fill="#263238"/>
<path d="M96.4878 72.7702L96.0083 72.5469C96.0083 72.5469 96.2008 72.9796 96.4878 72.7702Z" fill="#263238"/>
<path d="M96.4948 73.3672C96.2323 73.8137 95.9096 74.2223 95.5358 74.5815C95.63 74.6751 95.7438 74.7467 95.8691 74.7914C95.9943 74.836 96.1279 74.8525 96.2603 74.8397L96.4948 73.3672Z" fill="#FF5652"/>
<path d="M96.3162 71.948C96.3007 71.9432 96.2863 71.9351 96.2743 71.9243C96.2622 71.9134 96.2526 71.9001 96.2462 71.8852C96.2385 71.8709 96.2339 71.8551 96.2326 71.8389C96.2312 71.8227 96.2333 71.8065 96.2385 71.7911C96.2438 71.7757 96.2521 71.7616 96.2631 71.7496C96.274 71.7375 96.2874 71.7279 96.3022 71.7212C96.4778 71.6298 96.6729 71.582 96.8709 71.582C97.069 71.582 97.2641 71.6298 97.4397 71.7212C97.4671 71.7391 97.4867 71.7667 97.4945 71.7984C97.5023 71.8302 97.4977 71.8637 97.4817 71.8922C97.465 71.9199 97.4379 71.9399 97.4064 71.9478C97.3749 71.9556 97.3416 71.9507 97.3137 71.934C97.1727 71.8668 97.0177 71.8336 96.8614 71.8372C96.7052 71.8409 96.5519 71.8812 96.4142 71.955C96.3983 71.9608 96.3813 71.9633 96.3644 71.9621C96.3475 71.9609 96.3311 71.9561 96.3162 71.948Z" fill="#263238"/>
<path d="M103.645 73.5838C103.082 76.1241 102.896 77.2093 101.412 78.3259C99.1793 80.0008 96.2358 78.7586 96.0433 76.1032C95.8683 73.7129 96.8203 69.9619 99.4558 69.3338C102.091 68.7057 104.212 71.0436 103.645 73.5838Z" fill="#FF8B7B"/>
<path d="M97.5938 74.1576C98.0733 76.5269 100.394 78.4775 102.144 78.4042C103.894 78.3309 106.473 75.023 106.4 72.5455C106.326 70.0681 104.587 67.8802 101.748 68.0093C98.9098 68.1385 95.2803 68.299 97.5938 74.1576Z" fill="#263238"/>
<path d="M100.8 68.9564C98.6438 66.7337 95.6548 68.3214 95.2383 70.6662C96.4948 70.422 97.5378 72.1806 99.1688 72.0829C101.038 71.9712 101.997 70.1986 100.8 68.9564Z" fill="#263238"/>
<path d="M103.292 69.418C103.586 67.3034 105.742 67.7082 106.62 68.8073C107.499 69.9065 107.894 73.2737 105.738 72.5444C103.582 71.8152 103.145 70.4857 103.292 69.418Z" fill="#37ED81"/>
<path d="M105.28 70.1729C104.895 67.7618 106.641 62.5172 110.932 64.5341C114.481 66.202 109.602 75.086 114.481 76.6981C112.63 79.514 106.277 76.4189 105.28 70.1729Z" fill="#263238"/>
<path d="M114.964 77.8162H114.933C112.332 76.7868 112.259 72.7217 112.199 69.4417C112.157 67.3167 112.126 65.4813 111.429 65.0381C111.291 64.966 111.137 64.9304 110.982 64.9347C110.826 64.9389 110.674 64.983 110.54 65.0625C110.53 65.0671 110.52 65.0697 110.509 65.0701C110.498 65.0704 110.487 65.0686 110.477 65.0647C110.467 65.0608 110.458 65.0549 110.45 65.0473C110.442 65.0397 110.436 65.0307 110.432 65.0207C110.423 65.0002 110.423 64.9773 110.431 64.9566C110.438 64.9358 110.454 64.9188 110.474 64.909C110.634 64.8201 110.815 64.7734 110.999 64.7734C111.182 64.7734 111.363 64.8201 111.524 64.909C112.294 65.401 112.329 67.2783 112.367 69.4452C112.427 72.6659 112.5 76.6717 114.996 77.6592C115.006 77.663 115.016 77.6689 115.024 77.6764C115.032 77.684 115.038 77.693 115.043 77.7031C115.047 77.7131 115.05 77.724 115.05 77.735C115.051 77.746 115.049 77.757 115.045 77.7673C115.037 77.7823 115.026 77.7948 115.012 77.8035C114.997 77.8121 114.981 77.8165 114.964 77.8162Z" fill="#263238"/>
<path d="M98.7277 74.4993C98.3777 75.0716 98.2202 75.3193 97.7757 75.4728C97.6376 75.5309 97.4855 75.5473 97.3381 75.52C97.1907 75.4927 97.0546 75.423 96.9466 75.3194C96.8386 75.2158 96.7634 75.0829 96.7304 74.9371C96.6974 74.7914 96.7079 74.6391 96.7607 74.4993C96.9427 73.9061 97.5097 73.0687 98.1607 73.128C98.3099 73.1484 98.451 73.2075 98.5701 73.2993C98.6892 73.3911 98.7821 73.5125 98.8395 73.6512C98.8968 73.79 98.9167 73.9413 98.8971 74.0901C98.8775 74.2389 98.8191 74.38 98.7277 74.4993Z" fill="#FF8B7B"/>
<path d="M97.1633 75.728L96.8133 76.4713L96.4633 75.728L96.8133 74.9883L97.1633 75.728Z" fill="white"/>
<path d="M97.8772 99.1266C97.8772 99.1266 88.1437 98.6276 81.7317 101.52C79.7367 102.421 79.4287 103.924 79.0752 106.077C77.6017 115.118 75.3092 124.222 75.3092 124.222L77.4932 124.868C77.4932 124.868 85.6377 112.938 84.5212 106.465C99.6377 109.661 104.419 104.654 104.419 104.654L97.8772 99.1266Z" fill="#FF8B7B"/>
<path d="M75.4143 123.823C75.2918 123.785 75.1904 123.858 75.0819 123.917C74.2909 124.343 74.2943 124.367 72.1663 124.584C71.4663 124.657 71.3753 125.306 73.1043 125.847L77.3394 127.173C77.7559 127.302 78.5153 126.315 77.9378 124.678C77.9172 124.622 77.8808 124.573 77.833 124.537C77.7852 124.501 77.728 124.48 77.6684 124.476C76.8825 124.402 76.1178 124.18 75.4143 123.823Z" fill="#263238"/>
<path d="M103.6 99.9252C103.6 99.9252 95.8578 98.6377 89.4528 101.502C88.477 101.937 87.6695 102.676 87.1523 103.608C86.6352 104.541 86.4365 105.615 86.5863 106.67C87.8883 115.743 91.1363 126.396 91.1363 126.396L93.4148 126.361C93.4148 126.361 93.2468 113.694 92.1303 107.222C93.4183 107.64 95.6128 107.651 96.7503 107.598C100.95 107.399 104.38 106.269 103.859 102.113L103.6 99.9252Z" fill="#FF8B7B"/>
<path d="M91.0208 125.968C90.8948 125.968 90.8213 126.066 90.7338 126.156C90.1108 126.802 90.1178 126.819 88.1508 127.667C87.4928 127.95 87.6153 128.588 89.4283 128.588H93.8663C94.3003 128.588 94.7308 127.416 93.6878 126.031C93.6514 125.983 93.6019 125.947 93.5453 125.928C93.4887 125.908 93.4275 125.905 93.3693 125.919C92.5963 126.081 91.7999 126.097 91.0208 125.968Z" fill="#263238"/>
<path d="M93.5513 98.9476C93.5513 98.9476 87.3563 98.9093 82.6803 100.825C82.6803 107.395 85.4138 110.026 85.4138 110.026C85.4138 110.026 110.866 114.486 105.101 99.3105C102.116 98.4033 93.6178 98.679 93.5513 98.9476Z" fill="#263238"/>
<path d="M87.0449 100.017C86.6949 100.928 84.8749 100.945 84.8749 100.945L83.7654 101.144C83.5831 101.176 83.3952 101.143 83.2351 101.051C83.0749 100.958 82.9528 100.812 82.8904 100.638L82.5719 99.7344C82.5378 99.6368 82.5234 99.5335 82.5296 99.4303C82.5358 99.3272 82.5625 99.2263 82.608 99.1335C82.6536 99.0407 82.7172 98.9578 82.7951 98.8897C82.873 98.8215 82.9637 98.7694 83.0619 98.7364L84.1119 98.3875C84.3017 98.3277 84.5019 98.3075 84.6999 98.3282L85.5049 98.4189C85.8428 98.4572 86.163 98.5899 86.4286 98.8016C86.6943 99.0134 86.8945 99.2956 87.0064 99.6158L87.0344 99.703C87.0744 99.8033 87.0781 99.9143 87.0449 100.017Z" fill="#FF8B7B"/>
<path d="M96.2778 85.179C96.1448 86.0409 95.9733 86.8539 95.7983 87.6844C95.6233 88.5148 95.4238 89.3348 95.1998 90.1548C94.7643 91.8291 94.2051 93.4689 93.5268 95.0609L93.4813 95.1621C93.4424 95.2539 93.3906 95.3397 93.3273 95.4168C92.8634 95.9656 92.3528 96.4734 91.8013 96.9347C91.2868 97.3848 90.7513 97.7826 90.2123 98.1699C89.6733 98.5573 89.1203 98.9132 88.5603 99.2551C88.0003 99.5971 87.4368 99.9181 86.8348 100.218C86.6495 100.307 86.4387 100.327 86.2396 100.277C86.0405 100.226 85.8657 100.107 85.7459 99.94C85.626 99.7735 85.5688 99.5703 85.5843 99.3659C85.5997 99.1616 85.6868 98.9692 85.8303 98.8224L87.1743 97.507C87.6223 97.0673 88.0668 96.6311 88.4973 96.188C88.9278 95.7448 89.3513 95.3052 89.7468 94.8655C90.1243 94.4507 90.475 94.0125 90.7968 93.5535L90.5973 93.9024C90.8458 93.1836 91.0593 92.4264 91.2693 91.6623C91.4793 90.8981 91.6578 90.1165 91.8398 89.3314C92.0218 88.5463 92.1898 87.7577 92.3543 86.9656C92.5188 86.1735 92.6763 85.3709 92.8303 84.6033V84.5823C92.9261 84.1414 93.1895 83.7546 93.5653 83.5032C93.941 83.2517 94.3998 83.1551 94.8454 83.2337C95.291 83.3122 95.6888 83.5598 95.9552 83.9245C96.2216 84.2892 96.336 84.7425 96.2743 85.1895L96.2778 85.179Z" fill="#FF8B7B"/>
<path d="M106.75 84.2916C105.987 86.1933 103.95 87.5891 101.069 88.0637C99.8057 87.7496 98.0732 83.5275 98.0732 83.5275C98.0732 83.5275 106.379 79.0681 106.75 84.2916Z" fill="#37ED81"/>
<path opacity="0.4" d="M106.75 84.2916C105.987 86.1933 103.95 87.5891 101.069 88.0637C99.8057 87.7496 98.0732 83.5275 98.0732 83.5275C98.0732 83.5275 106.379 79.0681 106.75 84.2916Z" fill="black"/>
<path d="M93.9889 81.9031C92.6414 82.7301 91.1643 84.5306 90.9543 87.692C91.4758 88.8818 96.7153 89.8798 96.7153 89.8798C96.7153 89.8798 98.6649 79.6629 93.9889 81.9031Z" fill="#37ED81"/>
<path opacity="0.4" d="M93.9889 81.9031C92.6414 82.7301 91.1643 84.5306 90.9543 87.692C91.4758 88.8818 96.7153 89.8798 96.7153 89.8798C96.7153 89.8798 98.6649 79.6629 93.9889 81.9031Z" fill="black"/>
<path d="M80.2794 112.016H104.02C104.797 112.016 105.427 111.388 105.427 110.613C105.427 109.838 104.797 109.21 104.02 109.21H80.2794C79.5023 109.21 78.8724 109.838 78.8724 110.613C78.8724 111.388 79.5023 112.016 80.2794 112.016Z" fill="#37ED81"/>
<path d="M94.0798 105.271H109.55C110.068 105.254 110.564 105.059 110.955 104.719C111.345 104.379 111.606 103.914 111.692 103.404L114.054 87.0358C114.097 86.8046 114.088 86.5668 114.026 86.3398C113.965 86.1127 113.854 85.9022 113.701 85.7236C113.547 85.545 113.356 85.4028 113.14 85.3074C112.925 85.2121 112.69 85.166 112.455 85.1725H96.9813C96.4635 85.1881 95.9673 85.3825 95.5773 85.7223C95.1872 86.0621 94.9276 86.5264 94.8428 87.0358L92.4768 103.404C92.4346 103.636 92.4447 103.874 92.5063 104.101C92.5679 104.328 92.6796 104.539 92.8331 104.718C92.9866 104.897 93.1781 105.039 93.3938 105.135C93.6094 105.23 93.8438 105.277 94.0798 105.271Z" fill="#37ED81"/>
<path opacity="0.4" d="M94.8499 87.0377L92.4839 103.406C92.4262 103.782 92.4964 104.167 92.6834 104.499C92.7741 104.647 92.9085 104.763 93.0682 104.833C93.2278 104.902 93.4051 104.921 93.5757 104.886C93.7463 104.851 93.9021 104.765 94.0217 104.639C94.1414 104.513 94.2192 104.353 94.2444 104.181L96.7679 86.7097C96.7934 86.525 96.7569 86.337 96.6641 86.1752C96.5712 86.0133 96.4272 85.8867 96.2546 85.815C96.082 85.7432 95.8904 85.7305 95.7097 85.7787C95.529 85.827 95.3695 85.9335 95.2559 86.0816C95.0422 86.3613 94.9026 86.6901 94.8499 87.0377Z" fill="white"/>
<path d="M107.639 109.213H108.43L111.443 89.6094H110.652L107.639 109.213Z" fill="#263238"/>
<path d="M95.5847 109.213H96.3722L99.3857 89.6094H98.5982L95.5847 109.213Z" fill="#263238"/>
<path d="M97.8389 112.016H108.703C109.48 112.016 110.11 111.388 110.11 110.613C110.11 109.838 109.48 109.21 108.703 109.21H97.8389C97.0618 109.21 96.4319 109.838 96.4319 110.613C96.4319 111.388 97.0618 112.016 97.8389 112.016Z" fill="#37ED81"/>
<path opacity="0.4" d="M95.0248 109.211H80.2793C79.5022 109.211 78.8723 109.839 78.8723 110.614C78.8723 111.388 79.5022 112.016 80.2793 112.016H95.0248C95.8019 112.016 96.4318 111.388 96.4318 110.614C96.4318 109.839 95.8019 109.211 95.0248 109.211Z" fill="white"/>
<path d="M91.9272 128.901H92.7147L95.7282 112.016H94.9407L91.9272 128.901Z" fill="#263238"/>
<path d="M78.2318 128.901H79.0193L82.0328 112.016H81.2453L78.2318 128.901Z" fill="#263238"/>
<path d="M97.2298 128.901H96.4388L93.4253 112.016H94.2163L97.2298 128.901Z" fill="#263238"/>
<path d="M110.925 128.901H110.134L107.121 112.016H107.912L110.925 128.901Z" fill="#263238"/>
<path d="M43.526 22.0529C39.9587 22.6347 36.7238 24.4858 34.4205 27.2632C32.1172 30.0406 30.9017 33.5561 30.9991 37.1586C31.0965 40.761 32.5002 44.2062 34.9502 46.8559C37.4002 49.5056 40.7305 51.1802 44.324 51.5695C44.1711 52.6756 43.93 53.7677 43.603 54.8356C43.603 54.8356 45.906 53.5236 47.187 51.6009C47.579 51.5695 47.9745 51.5242 48.37 51.4579C50.3145 51.1494 52.1786 50.461 53.8553 49.4321C55.532 48.4032 56.9883 47.0541 58.1405 45.4624C59.2926 43.8707 60.118 42.0677 60.5691 40.157C61.0202 38.2464 61.0881 36.2656 60.769 34.3287C60.45 32.3917 59.7501 30.5367 58.7098 28.8703C57.6694 27.2038 56.309 25.7587 54.7067 24.618C53.1044 23.4772 51.2918 22.6634 49.3731 22.2232C47.4543 21.783 45.4673 21.7252 43.526 22.0529Z" fill="#37ED81"/>
<path opacity="0.5" d="M43.526 22.0529C39.9587 22.6347 36.7238 24.4858 34.4205 27.2632C32.1172 30.0406 30.9017 33.5561 30.9991 37.1586C31.0965 40.761 32.5002 44.2062 34.9502 46.8559C37.4002 49.5056 40.7305 51.1802 44.324 51.5695C44.1711 52.6756 43.93 53.7677 43.603 54.8356C43.603 54.8356 45.906 53.5236 47.187 51.6009C47.579 51.5695 47.9745 51.5242 48.37 51.4579C50.3145 51.1494 52.1786 50.461 53.8553 49.4321C55.532 48.4032 56.9883 47.0541 58.1405 45.4624C59.2926 43.8707 60.118 42.0677 60.5691 40.157C61.0202 38.2464 61.0881 36.2656 60.769 34.3287C60.45 32.3917 59.7501 30.5367 58.7098 28.8703C57.6694 27.2038 56.309 25.7587 54.7067 24.618C53.1044 23.4772 51.2918 22.6634 49.3731 22.2232C47.4543 21.783 45.4673 21.7252 43.526 22.0529Z" fill="white"/>
<path d="M47.6456 50.3834C44.8928 50.8346 42.0676 50.4617 39.5273 49.3121C36.9871 48.1624 34.8458 46.2876 33.3743 43.9247C31.9029 41.5617 31.1673 38.8168 31.2606 36.0371C31.3539 33.2574 32.2719 30.5677 33.8986 28.3081C35.5252 26.0486 37.7874 24.3207 40.3991 23.3429C43.0108 22.3652 45.8546 22.1815 48.571 22.8151C51.2874 23.4487 53.7544 24.8712 55.6598 26.9026C57.5653 28.934 58.8238 31.4831 59.2761 34.2276C59.8768 37.9068 58.9899 41.6734 56.8098 44.7018C54.6296 47.7302 51.3341 49.7733 47.6456 50.3834ZM43.0956 22.8174C40.3777 23.263 37.8535 24.502 35.842 26.3779C33.8304 28.2537 32.422 30.6821 31.7948 33.3559C31.1676 36.0297 31.3497 38.8289 32.3182 41.3995C33.2867 43.9702 34.998 46.1968 37.2358 47.7978C39.4735 49.3988 42.1372 50.3023 44.89 50.394C47.6428 50.4858 50.3611 49.7617 52.7011 48.3133C55.0412 46.8649 56.8978 44.7572 58.0364 42.2569C59.175 39.7565 59.5442 36.9756 59.0976 34.266C58.4967 30.6331 56.4747 27.3863 53.4753 25.238C50.476 23.0897 46.7443 22.2154 43.0991 22.8069L43.0956 22.8174Z" fill="white"/>
<path d="M44.2331 43.214C42.6312 43.4763 40.9874 43.2591 39.5094 42.5899C38.0313 41.9207 36.7855 40.8296 35.9295 39.4546C35.0735 38.0795 34.6457 36.4823 34.7002 34.8649C34.7547 33.2474 35.2891 31.6824 36.2357 30.3677C37.1824 29.0531 38.4988 28.0478 40.0186 27.479C41.5383 26.9102 43.1931 26.8035 44.7737 27.1724C46.3542 27.5412 47.7896 28.3691 48.8983 29.5512C50.0069 30.7333 50.739 32.2167 51.0021 33.8137C51.3529 35.9549 50.8371 38.1474 49.568 39.9098C48.2989 41.6723 46.3802 42.8606 44.2331 43.214ZM41.6011 27.2397C40.0344 27.4965 38.5792 28.2106 37.4195 29.2918C36.2598 30.373 35.4477 31.7727 35.0859 33.314C34.724 34.8553 34.8286 36.4689 35.3865 37.9509C35.9444 39.4329 36.9305 40.7167 38.2202 41.6401C39.5099 42.5634 41.0452 43.0848 42.632 43.1383C44.2189 43.1919 45.786 42.7751 47.1353 41.9408C48.4846 41.1065 49.5556 39.8921 50.2127 38.4511C50.8698 37.0101 51.0836 35.4072 50.8271 33.8451C50.4777 31.7517 49.3109 29.8814 47.5819 28.6435C45.8529 27.4056 43.7024 26.9009 41.6011 27.2397Z" fill="white"/>
<path d="M109.386 18.6475C108.933 17.58 108.364 16.5654 107.688 15.6222L107.996 15.4023C108.693 16.3675 109.28 17.4067 109.746 18.5009L109.386 18.6475Z" fill="#37ED81"/>
<path d="M105.588 13.2317C103.627 11.4009 101.232 10.096 98.6267 9.43878L98.7212 9.08984C101.387 9.76525 103.838 11.1011 105.847 12.9735L105.588 13.2317Z" fill="#37ED81"/>
<path d="M109.69 24.8042C109.691 21.9022 108.843 19.0629 107.248 16.6349C105.654 14.2068 103.383 12.2957 100.715 11.1361C98.0465 9.97644 95.0966 9.61874 92.2272 10.1069C89.3578 10.595 86.6937 11.9078 84.5621 13.884C82.4304 15.8602 80.9239 18.4139 80.2273 21.2316C79.5308 24.0494 79.6746 27.0085 80.6411 29.7459C81.6077 32.4833 83.3548 34.8799 85.6681 36.6414C87.9814 38.4029 90.7603 39.4527 93.6636 39.6619C94.8431 41.6055 96.9956 43.0013 96.9956 43.0013C96.7223 41.8853 96.5432 40.7484 96.4601 39.6026C100.102 39.1832 103.462 37.4437 105.902 34.7152C108.341 31.9866 109.689 28.4593 109.69 24.8042Z" fill="#37ED81"/>
<path d="M96.6491 23.6717C96.6498 24.0481 96.5384 24.4162 96.3291 24.7295C96.1198 25.0428 95.8219 25.2871 95.4732 25.4314C95.1245 25.5758 94.7407 25.6137 94.3703 25.5405C94 25.4672 93.6598 25.286 93.3928 25.0199C93.1258 24.7537 92.9441 24.4145 92.8706 24.0453C92.7971 23.6761 92.8352 23.2934 92.98 22.9458C93.1248 22.5981 93.3698 22.3012 93.684 22.0925C93.9983 21.8838 94.3675 21.7728 94.7451 21.7734C95.2501 21.7734 95.7344 21.9734 96.0914 22.3294C96.4485 22.6854 96.6491 23.1682 96.6491 23.6717Z" fill="white"/>
<path d="M103.25 25.9408C103.25 26.3169 103.138 26.6846 102.929 26.9973C102.719 27.31 102.421 27.5538 102.073 27.6977C101.724 27.8417 101.34 27.8793 100.97 27.8059C100.6 27.7326 100.261 27.5514 99.9938 27.2855C99.727 27.0195 99.5453 26.6807 99.4717 26.3118C99.3981 25.9429 99.4359 25.5605 99.5803 25.213C99.7246 24.8655 99.9691 24.5685 100.283 24.3596C100.597 24.1506 100.965 24.0391 101.343 24.0391C101.848 24.0391 102.334 24.2394 102.691 24.5961C103.049 24.9527 103.25 25.4364 103.25 25.9408Z" fill="white"/>
<path d="M90.0586 24.8041C90.0579 25.1793 89.9457 25.546 89.736 25.8577C89.5264 26.1694 89.2288 26.4121 88.8808 26.5553C88.5328 26.6984 88.1501 26.7355 87.781 26.6619C87.4119 26.5882 87.073 26.4072 86.807 26.1416C86.5411 25.876 86.3601 25.5377 86.2869 25.1696C86.2138 24.8015 86.2517 24.42 86.3959 24.0733C86.5401 23.7267 86.7841 23.4304 87.0972 23.222C87.4102 23.0136 87.7782 22.9023 88.1546 22.9023C88.4049 22.9023 88.6528 22.9516 88.884 23.0472C89.1153 23.1428 89.3253 23.2829 89.5022 23.4596C89.679 23.6362 89.8192 23.8459 89.9147 24.0766C90.0102 24.3073 90.0591 24.5545 90.0586 24.8041Z" fill="white"/>
<path d="M125.65 45.8321C125.457 43.3994 125.97 40.9627 127.127 38.8126C128.285 36.6625 130.039 34.8898 132.179 33.706C134.32 32.5223 136.757 31.9774 139.199 32.1364C141.642 32.2954 143.987 33.1516 145.955 34.6029C147.922 36.0541 149.43 38.0391 150.297 40.321C151.165 42.6029 151.355 45.0855 150.846 47.4725C150.338 49.8594 149.151 52.0501 147.427 53.783C145.704 55.5159 143.517 56.718 141.127 57.2458C140.424 58.5709 139.488 59.7588 138.362 60.7527C138.48 59.688 138.515 58.6159 138.467 57.5459C135.241 57.5718 132.124 56.3776 129.746 54.204C127.368 52.0303 125.904 49.0388 125.65 45.8321Z" fill="#37ED81"/>
<path opacity="0.4" d="M125.65 45.8321C125.457 43.3994 125.97 40.9627 127.127 38.8126C128.285 36.6625 130.039 34.8898 132.179 33.706C134.32 32.5223 136.757 31.9774 139.199 32.1364C141.642 32.2954 143.987 33.1516 145.955 34.6029C147.922 36.0541 149.43 38.0391 150.297 40.321C151.165 42.6029 151.355 45.0855 150.846 47.4725C150.338 49.8594 149.151 52.0501 147.427 53.783C145.704 55.5159 143.517 56.718 141.127 57.2458C140.424 58.5709 139.488 59.7588 138.362 60.7527C138.48 59.688 138.515 58.6159 138.467 57.5459C135.241 57.5718 132.124 56.3776 129.746 54.204C127.368 52.0303 125.904 49.0388 125.65 45.8321Z" fill="black"/>
<path d="M134.155 45.9354L142.678 45.2654C142.879 45.2459 143.066 45.1485 143.196 44.994C143.327 44.8395 143.392 44.6401 143.378 44.4384C143.358 44.2365 143.26 44.0504 143.104 43.9199C142.948 43.7894 142.747 43.725 142.545 43.7406L134.05 44.4001C133.847 44.4187 133.66 44.5163 133.529 44.6718C133.398 44.8273 133.334 45.0281 133.35 45.2305C133.366 45.4292 133.459 45.6139 133.609 45.7454C133.76 45.877 133.955 45.9451 134.155 45.9354Z" fill="white"/>
<path d="M134.4 48.9347L142.923 48.2613C143.125 48.2426 143.312 48.1455 143.443 47.9907C143.573 47.836 143.638 47.6361 143.623 47.4343C143.602 47.2328 143.504 47.0471 143.348 46.9168C143.193 46.7865 142.992 46.7218 142.79 46.7364L134.267 47.4064C134.065 47.4267 133.879 47.5249 133.748 47.68C133.617 47.835 133.552 48.0348 133.567 48.2368C133.588 48.4384 133.686 48.624 133.842 48.7543C133.997 48.8847 134.197 48.9494 134.4 48.9347Z" fill="white"/>
<path d="M133.917 42.9352L142.45 42.2653C142.652 42.2449 142.839 42.1467 142.969 41.9917C143.1 41.8366 143.165 41.6368 143.15 41.4348C143.132 41.2328 143.035 41.0461 142.88 40.9154C142.724 40.7846 142.523 40.7205 142.321 40.7369L133.798 41.4069C133.596 41.4255 133.409 41.5227 133.278 41.6774C133.147 41.8321 133.083 42.032 133.098 42.2338C133.116 42.4341 133.212 42.6195 133.365 42.7506C133.518 42.8816 133.716 42.9478 133.917 42.9352Z" fill="white"/>
</svg>
