<svg width="155" height="130" viewBox="0 0 155 130" fill="none" xmlns="http://www.w3.org/2000/svg">
<path d="M22.5851 118.202C52.7003 133.934 101.525 133.934 131.637 118.202C161.748 102.47 161.752 76.9643 131.637 61.2322C101.521 45.5001 52.7003 45.5036 22.5851 61.2253C-7.53009 76.947 -7.52664 102.474 22.5851 118.202Z" fill="#F5F5F5"/>
<path d="M95.836 111.634L24.7657 70.5994C24.2689 70.313 24.2689 69.8507 24.7657 69.5644L66.4004 45.5143C66.6786 45.3739 66.9859 45.3008 67.2975 45.3008C67.609 45.3008 67.9163 45.3739 68.1945 45.5143L139.265 86.5695C139.762 86.8524 139.762 87.3182 139.265 87.6045L97.6162 111.651C97.3387 111.787 97.0332 111.857 96.724 111.854C96.4149 111.851 96.1108 111.775 95.836 111.634Z" fill="#E6E6E6"/>
<path d="M23.8583 100.487C34.216 100.487 42.6126 96.4852 42.6126 91.5484C42.6126 86.6115 34.216 82.6094 23.8583 82.6094C13.5006 82.6094 5.104 86.6115 5.104 91.5484C5.104 96.4852 13.5006 100.487 23.8583 100.487Z" fill="#EBEBEB"/>
<path d="M81.056 52.4734C81.9323 52.4906 83.3813 51.3556 83.6021 49.948C83.8229 48.5404 84.2404 47.4294 86.2448 46.6704C88.2493 45.9114 89.3774 45.5664 90.0191 43.8207C90.6609 42.075 89.6741 40.1085 89.3947 38.6216C89.1152 37.1346 90.4918 35.4027 92.4997 33.7674C94.5076 32.1321 95.6668 30.4071 93.8797 29.3721C92.0926 28.3371 89.8639 28.7718 87.9146 30.0241C85.9654 31.2765 84.437 32.9187 82.0496 32.7013C79.6622 32.484 78.3133 33.5052 77.844 35.3854C77.3748 37.2657 78.0545 39.6497 76.2743 40.2396V48.2264L81.056 52.4734Z" fill="#37ED81"/>
<path d="M77.4404 48.8722H77.4024C77.3582 48.8623 77.3197 48.8354 77.2952 48.7973C77.2706 48.7592 77.2621 48.713 77.2713 48.6686C79.0964 40.7681 87.335 32.0223 91.7855 30.2076C91.8068 30.1963 91.8302 30.1896 91.8542 30.1879C91.8781 30.1862 91.9022 30.1896 91.9248 30.1977C91.9475 30.2059 91.9681 30.2186 91.9855 30.2353C92.0029 30.2519 92.0167 30.2719 92.0258 30.2941C92.035 30.3164 92.0394 30.3403 92.0388 30.3643C92.0382 30.3884 92.0326 30.412 92.0223 30.4337C92.0121 30.4555 91.9973 30.4748 91.9791 30.4906C91.9609 30.5063 91.9397 30.518 91.9166 30.525C87.5317 32.3156 79.4104 40.9441 77.6094 48.7445C77.599 48.7813 77.5768 48.8136 77.5463 48.8367C77.5158 48.8597 77.4786 48.8722 77.4404 48.8722Z" fill="white"/>
<path d="M82.029 39.4308C81.9883 39.4305 81.9489 39.4158 81.918 39.3893C81.887 39.3628 81.8665 39.3261 81.86 39.2859C81.6193 37.948 81.1439 36.6632 80.4558 35.4909C80.4324 35.4518 80.425 35.4051 80.4353 35.3607C80.4456 35.3163 80.4728 35.2776 80.511 35.2528C80.5302 35.2408 80.5517 35.2327 80.5741 35.2289C80.5965 35.2252 80.6194 35.2259 80.6415 35.231C80.6636 35.2361 80.6845 35.2456 80.703 35.2588C80.7214 35.272 80.7371 35.2888 80.7491 35.308C81.4662 36.5217 81.9572 37.8555 82.1981 39.2445C82.2025 39.2668 82.2023 39.2898 82.1975 39.312C82.1927 39.3342 82.1834 39.3551 82.1701 39.3736C82.1568 39.392 82.1399 39.4076 82.1204 39.4192C82.1009 39.4308 82.0792 39.4383 82.0566 39.4412L82.029 39.4308Z" fill="white"/>
<path d="M80.6042 41.832C80.5659 41.832 80.5288 41.8195 80.4983 41.7965C80.4678 41.7735 80.4456 41.7411 80.4351 41.7044C80.4294 41.6824 80.4281 41.6595 80.4312 41.637C80.4344 41.6145 80.442 41.5929 80.4535 41.5734C80.4651 41.5538 80.4803 41.5367 80.4985 41.5231C80.5166 41.5095 80.5373 41.4995 80.5593 41.4939C83.271 40.7763 86.6969 41.4629 86.8418 41.4939C86.8644 41.4984 86.886 41.5074 86.9052 41.5202C86.9244 41.5331 86.9408 41.5496 86.9536 41.5688C86.9665 41.5881 86.9754 41.6096 86.9798 41.6323C86.9843 41.6549 86.9843 41.6783 86.9798 41.7009C86.9752 41.7236 86.9663 41.7451 86.9534 41.7643C86.9406 41.7835 86.9241 41.8 86.9049 41.8128C86.8856 41.8256 86.8641 41.8345 86.8414 41.839C86.8188 41.8435 86.7954 41.8434 86.7728 41.8389C86.7383 41.8389 83.2779 41.1489 80.6456 41.8389C80.6314 41.8401 80.6172 41.8377 80.6042 41.832Z" fill="white"/>
<path d="M111.095 6.06303L112.417 6.57018V3.65837C112.417 1.34686 114.259 0.791407 116.26 1.93336C118.261 3.08912 119.882 5.89743 119.882 8.20894V8.64709C120.164 8.55947 120.462 8.53723 120.754 8.58207C121.046 8.6269 121.324 8.73763 121.566 8.90584C122.324 9.40105 122.956 10.068 123.408 10.8526C123.861 11.6372 124.122 12.5175 124.171 13.4219V13.6151L126.017 14.6812C126.518 15.0061 126.935 15.4448 127.235 15.9616C127.535 16.4784 127.708 17.0586 127.742 17.6551C127.742 18.7487 126.976 19.1938 126.017 18.6452L111.095 10.0202C110.594 9.69526 110.176 9.25655 109.877 8.73978C109.577 8.22301 109.403 7.64278 109.37 7.04628C109.377 5.95953 110.146 5.51448 111.095 6.06303Z" fill="#EBEBEB"/>
<path d="M126.086 7.03004L128.501 8.41005C128.501 8.3031 128.48 8.19959 128.48 8.09264V7.40609C128.48 6.17099 129.349 5.68109 130.419 6.28829C130.87 6.57553 131.254 6.95683 131.544 7.40609C131.72 5.85013 132.924 5.27053 134.421 6.12614C136.022 7.05074 137.322 9.30015 137.322 11.1494V12.1844C137.332 12.599 137.249 13.0106 137.077 13.3884L139.068 14.5373C139.381 14.7413 139.642 15.0163 139.829 15.34C140.016 15.6637 140.124 16.027 140.145 16.4003C140.145 17.0903 139.662 17.3628 139.068 17.0213L126.086 9.51405C125.772 9.31004 125.512 9.03501 125.325 8.71131C125.138 8.3876 125.03 8.02434 125.009 7.65104C124.996 6.96449 125.479 6.68849 126.086 7.03004Z" fill="#EBEBEB"/>
<path d="M77.1401 8.07823L89.7258 0.8125L92.5272 2.43056L89.7258 7.28473L77.1401 14.5505V8.07823Z" fill="#455A64"/>
<path d="M89.7257 0.810753L88.3216 0L75.7118 7.28298L77.1401 8.07648L89.7257 0.810753Z" fill="#37474F"/>
<path d="M78.9653 11.3314C78.8559 11.3763 78.7384 11.3974 78.6203 11.3935C78.5892 11.3935 78.5789 11.3935 78.5789 11.3693C78.5756 11.3534 78.5756 11.337 78.5789 11.321L78.6858 11.0933C78.6934 11.0738 78.7052 11.0561 78.7203 11.0416H78.7652C78.8588 11.0398 78.9517 11.0247 79.0412 10.9967C79.1535 10.9628 79.2612 10.9153 79.362 10.8553C79.4908 10.7877 79.6074 10.6991 79.707 10.5931C79.7768 10.5085 79.8158 10.4026 79.8174 10.2929C79.8203 10.2694 79.8181 10.2455 79.811 10.2229C79.8038 10.2003 79.7919 10.1794 79.776 10.1618C79.7391 10.1383 79.6952 10.1286 79.6518 10.1342C79.5637 10.1412 79.4761 10.1538 79.3896 10.1722H79.3172C79.2034 10.1941 79.088 10.2067 78.9722 10.2101C78.89 10.2139 78.8093 10.1882 78.7445 10.1377C78.7116 10.1044 78.6865 10.0642 78.671 10.0201C78.6555 9.97592 78.65 9.9289 78.6548 9.88237C78.6626 9.66849 78.7415 9.46333 78.879 9.29932C79.0407 9.09528 79.2412 8.92527 79.469 8.79906C79.5915 8.72668 79.721 8.66658 79.8554 8.61966C79.946 8.58755 80.0426 8.57578 80.1383 8.58516C80.1624 8.58516 80.1762 8.58516 80.1762 8.61966C80.1797 8.63324 80.1797 8.64749 80.1762 8.66106L80.0727 8.88877C80.0649 8.90635 80.0544 8.92263 80.0417 8.93707C80.0281 8.94073 80.0138 8.94073 80.0003 8.93707C79.8166 8.94189 79.6382 8.99937 79.4862 9.10267C79.3682 9.16549 79.2638 9.25109 79.1792 9.35452C79.1123 9.43766 79.0758 9.54109 79.0757 9.64777C79.0706 9.67106 79.0716 9.69528 79.0787 9.71805C79.0858 9.74082 79.0986 9.76138 79.116 9.77771C79.1333 9.79404 79.1547 9.80559 79.1778 9.81124C79.201 9.81688 79.2252 9.81643 79.2482 9.80992C79.3386 9.80126 79.4284 9.78743 79.5173 9.76852H79.6001C79.7204 9.74303 79.8428 9.72917 79.9658 9.72712C80.0038 9.72573 80.0418 9.73204 80.0774 9.74567C80.1129 9.75931 80.1454 9.77999 80.1728 9.80647C80.2283 9.88071 80.2541 9.97296 80.2452 10.0652C80.2391 10.2697 80.165 10.4664 80.0348 10.6241C79.8742 10.8293 79.6734 10.9995 79.4448 11.1244C79.2922 11.2091 79.1316 11.2784 78.9653 11.3314Z" fill="white"/>
<path d="M80.7558 10.0477C80.5626 9.95798 80.4694 9.73028 80.4694 9.35768C80.4667 9.00034 80.566 8.64964 80.7558 8.34682C80.9614 8.02675 81.2452 7.76434 81.5803 7.58437C81.9253 7.38082 82.2048 7.32217 82.3945 7.41187C82.5843 7.50157 82.6843 7.72927 82.6843 8.10187C82.6863 8.46067 82.5857 8.81257 82.3945 9.11618C82.1911 9.43349 81.9111 9.69451 81.5803 9.87518C81.2353 10.0822 80.9455 10.1374 80.7558 10.0477ZM82.0875 9.06098C82.2104 8.83713 82.2723 8.58489 82.2669 8.32957C82.2669 8.05357 82.2082 7.88107 82.0875 7.80517C81.9667 7.72927 81.7977 7.76032 81.5734 7.89142C81.3571 8.01182 81.1772 8.18818 81.0525 8.40202C80.9376 8.62701 80.8818 8.8775 80.8903 9.12998C80.8903 9.40598 80.949 9.57848 81.0663 9.65438C81.1836 9.73028 81.3595 9.69923 81.5872 9.56813C81.797 9.44778 81.97 9.27242 82.0875 9.06098Z" fill="white"/>
<path d="M83.4433 8.69486C83.3833 8.70825 83.321 8.70775 83.2612 8.6934C83.2014 8.67905 83.1457 8.65123 83.0983 8.61206C83.054 8.56201 83.0205 8.50345 82.9997 8.43996C82.979 8.37648 82.9714 8.30942 82.9775 8.24291V6.94226C82.9755 6.90461 82.9851 6.86726 83.0051 6.8353C83.0272 6.80027 83.0581 6.77171 83.0948 6.7525L83.2673 6.6559C83.2799 6.64472 83.2947 6.63644 83.3108 6.63167C83.3269 6.6269 83.3439 6.62575 83.3605 6.6283C83.3605 6.6283 83.3881 6.6628 83.3881 6.7042V8.01176C83.3881 8.18081 83.4364 8.28086 83.5364 8.30846C83.6106 8.31808 83.686 8.31297 83.7582 8.29343C83.8304 8.2739 83.8981 8.24032 83.9573 8.19461C84.1224 8.10438 84.265 7.97822 84.3748 7.82546C84.472 7.68969 84.5239 7.5267 84.5231 7.35971V6.0487C84.5228 6.01125 84.5323 5.97437 84.5507 5.94175C84.575 5.90741 84.6069 5.87909 84.6439 5.85895L84.8129 5.76235C84.8957 5.71405 84.9371 5.72785 84.9371 5.8072V7.10786C84.9363 7.28503 84.895 7.45968 84.8164 7.61846C84.7274 7.7976 84.611 7.96174 84.4714 8.10491C84.3204 8.25921 84.1485 8.3916 83.9608 8.49821C83.8036 8.59857 83.6274 8.66551 83.4433 8.69486Z" fill="white"/>
<path d="M85.8825 7.31221C85.8618 7.31221 85.8515 7.28116 85.8515 7.23976V5.48025L85.2857 5.80455C85.2443 5.8287 85.2167 5.83905 85.1994 5.8287C85.1822 5.81835 85.1753 5.79765 85.1753 5.75625V5.68035C85.1735 5.64427 85.1819 5.60841 85.1994 5.57685C85.2222 5.5446 85.2516 5.51756 85.2857 5.4975L86.8313 4.6074C86.8438 4.59748 86.8582 4.59022 86.8736 4.58606C86.8891 4.58191 86.9052 4.58095 86.921 4.58325C86.921 4.58325 86.9451 4.61775 86.9451 4.6557V4.7454C86.947 4.78039 86.9386 4.81517 86.921 4.84545C86.8977 4.87855 86.867 4.90573 86.8313 4.9248L86.2655 5.2491V7.01206C86.2654 7.04836 86.2559 7.08402 86.2379 7.11556C86.2148 7.15232 86.1811 7.1812 86.1413 7.19836L85.9757 7.29841C85.9308 7.31221 85.8998 7.31911 85.8825 7.31221Z" fill="white"/>
<path d="M87.2245 6.53314C87.2072 6.53314 87.2003 6.49864 87.2003 6.46069V4.50108C87.199 4.46394 87.2073 4.42708 87.2245 4.39413C87.25 4.36176 87.2816 4.33479 87.3176 4.31478L87.4901 4.21473C87.5315 4.19058 87.5626 4.18023 87.5833 4.19058C87.604 4.20093 87.6109 4.22163 87.6109 4.26303V5.07723L88.67 4.46658V3.65238C88.6697 3.61492 88.6792 3.57805 88.6976 3.54543C88.7225 3.51022 88.7557 3.48176 88.7942 3.46263L88.9599 3.36603C89.0047 3.33843 89.0357 3.33153 89.053 3.33843C89.0702 3.34533 89.084 3.37293 89.084 3.41433V5.37394C89.0843 5.4092 89.0748 5.44385 89.0565 5.47399C89.0318 5.51017 88.9986 5.53978 88.9599 5.56024L88.7942 5.65684C88.7494 5.68099 88.7183 5.69134 88.6976 5.68099C88.6769 5.67064 88.67 5.64993 88.67 5.61198V4.77708L87.6109 5.39118V6.22264C87.6124 6.25914 87.6028 6.29525 87.5833 6.32614C87.5598 6.36121 87.5277 6.3897 87.4901 6.40894L87.3176 6.50899C87.3045 6.51901 87.2895 6.52631 87.2735 6.53045C87.2575 6.5346 87.2408 6.53551 87.2245 6.53314Z" fill="white"/>
<path d="M75.6842 15.3478L63.0986 8.08203L60.2937 9.70009L63.0986 14.5543L75.6842 21.82V15.3478Z" fill="#455A64"/>
<path d="M63.0985 8.08465L64.4992 7.27734L77.1125 14.5569L75.6842 15.3504L63.0985 8.08465Z" fill="#37474F"/>
<path d="M64.2888 13.269C64.2682 13.244 64.254 13.2144 64.2474 13.1827L63.6609 10.8056C63.6588 10.7954 63.6588 10.7848 63.6609 10.7746C63.6609 10.7435 63.6816 10.7401 63.7299 10.7746L64.0335 10.9505C64.0618 10.966 64.0874 10.9858 64.1094 11.0092C64.1245 11.0297 64.1351 11.0533 64.1405 11.0782L64.5131 12.7135L64.9616 11.7199C64.9631 11.7116 64.9673 11.7041 64.9735 11.6985C64.9798 11.6929 64.9877 11.6895 64.9961 11.6889C64.9961 11.6889 65.0306 11.6889 65.0651 11.713L65.2376 11.8131C65.2645 11.8259 65.2881 11.8448 65.3066 11.8683C65.3221 11.8903 65.3337 11.9148 65.3411 11.9407L65.793 13.4518L66.1587 12.2443C66.1587 12.2236 66.176 12.2133 66.1932 12.2133C66.2207 12.2145 66.2472 12.2241 66.2691 12.2409L66.5727 12.4168C66.621 12.4444 66.6452 12.4755 66.6452 12.5065C66.6474 12.5156 66.6474 12.525 66.6452 12.5341L66.0552 14.2039C66.0552 14.2281 66.0311 14.2419 66.0138 14.2419C65.9842 14.2402 65.9557 14.2307 65.931 14.2143L65.7309 14.097C65.7013 14.0806 65.6745 14.0597 65.6516 14.0349C65.6312 14.008 65.616 13.9776 65.6067 13.9452L65.1582 12.3927L64.7097 13.4277C64.7097 13.4518 64.6856 13.4656 64.6683 13.4656C64.6391 13.4624 64.6108 13.453 64.5855 13.438L64.382 13.3173C64.3477 13.3083 64.3159 13.2918 64.2888 13.269Z" fill="white"/>
<path d="M67.0419 14.8304C67.0213 14.7986 67.0105 14.7614 67.0109 14.7235V12.7639C67.0109 12.7225 67.0212 12.6983 67.0419 12.6914C67.0626 12.6914 67.0971 12.6914 67.1489 12.7259L68.6979 13.6195C68.7384 13.6402 68.7737 13.6697 68.8014 13.7057C68.8202 13.7369 68.8298 13.7728 68.829 13.8092V13.8955C68.829 13.9369 68.829 13.961 68.8014 13.9679C68.7738 13.9748 68.7497 13.9679 68.6979 13.9369L67.487 13.2469V13.8748L68.3667 14.3819C68.4073 14.4025 68.4426 14.432 68.4702 14.4682C68.4916 14.4983 68.5025 14.5347 68.5013 14.5717V14.6476C68.5013 14.6855 68.5013 14.7097 68.4702 14.7166C68.4331 14.7189 68.3964 14.7079 68.3667 14.6855L67.487 14.1784V14.8063L68.6945 15.4963C68.737 15.5169 68.7737 15.5477 68.8014 15.586C68.8202 15.6172 68.8298 15.6531 68.829 15.6895V15.7757C68.829 15.8171 68.829 15.8378 68.8014 15.8447C68.7632 15.8437 68.7261 15.8317 68.6945 15.8102L67.1489 14.9167C67.1068 14.897 67.07 14.8674 67.0419 14.8304Z" fill="white"/>
<path d="M69.5432 16.2996C69.3945 16.1891 69.258 16.0631 69.1361 15.9236C69.1016 15.8856 69.0878 15.8615 69.0878 15.8442C69.0854 15.8394 69.0841 15.8341 69.0841 15.8287C69.0841 15.8233 69.0854 15.818 69.0878 15.8132L69.212 15.7166C69.2174 15.7124 69.2241 15.7101 69.231 15.7101C69.2378 15.7101 69.2445 15.7124 69.2499 15.7166C69.2699 15.7281 69.2875 15.7433 69.3017 15.7614C69.3992 15.8688 69.5054 15.9681 69.6191 16.0581C69.7355 16.1535 69.8589 16.24 69.9883 16.3169C70.1037 16.3934 70.2343 16.444 70.3712 16.4652C70.4575 16.4652 70.4989 16.4135 70.4989 16.3031C70.5001 16.2388 70.4834 16.1755 70.4506 16.1202C70.4116 16.0544 70.364 15.9941 70.3091 15.9408C70.247 15.8764 70.147 15.7798 70.009 15.651L69.9227 15.5751C69.7606 15.4233 69.626 15.2922 69.5225 15.1818C69.4214 15.0779 69.3333 14.9621 69.2603 14.8368C69.1928 14.7266 69.1559 14.6003 69.1533 14.4711C69.1533 14.2745 69.2396 14.171 69.4121 14.1641C69.659 14.179 69.8973 14.26 70.1021 14.3987C70.2568 14.489 70.4055 14.5892 70.5472 14.6988C70.6668 14.7921 70.7756 14.8986 70.8715 15.0162C70.8946 15.0372 70.9103 15.065 70.9163 15.0956C70.9187 15.0998 70.92 15.1045 70.92 15.1094C70.92 15.1142 70.9187 15.119 70.9163 15.1232L70.7956 15.2232C70.7903 15.2262 70.7844 15.2278 70.7783 15.2278C70.7723 15.2278 70.7663 15.2262 70.7611 15.2232C70.7418 15.2094 70.7244 15.1932 70.7093 15.1749C70.5389 14.9861 70.3398 14.8255 70.1194 14.6988C70.0166 14.6286 69.8981 14.5848 69.7744 14.5712C69.695 14.5712 69.6571 14.6298 69.6571 14.7368C69.6558 14.8032 69.6725 14.8688 69.7054 14.9265C69.7468 14.9946 69.7966 15.0572 69.8537 15.1128C69.9158 15.1784 70.0228 15.275 70.1677 15.4061L70.2574 15.4923C70.4402 15.6579 70.5817 15.7994 70.6852 15.9098C70.778 16.0141 70.8569 16.1301 70.9198 16.2548C70.9748 16.3615 71.0043 16.4796 71.006 16.5998C71.006 16.7861 70.9232 16.8861 70.7645 16.8999C70.517 16.8885 70.2777 16.8072 70.0745 16.6653C69.8896 16.5551 69.7121 16.433 69.5432 16.2996Z" fill="white"/>
<path d="M71.9203 17.649C71.8967 17.6185 71.8844 17.5807 71.8858 17.5421V15.7791L71.2303 15.4031C71.1907 15.3824 71.1556 15.3543 71.1268 15.3203C71.108 15.2891 71.0984 15.2532 71.0992 15.2168V15.1305C71.0992 15.0891 71.0992 15.065 71.1268 15.0546C71.1544 15.0443 71.182 15.0546 71.2303 15.0891L73.0139 16.1241C73.0538 16.1458 73.0889 16.1751 73.1174 16.2104C73.1374 16.2423 73.1471 16.2797 73.145 16.3173V16.4036C73.145 16.445 73.145 16.4691 73.1174 16.4726C73.0898 16.476 73.0622 16.4726 73.0139 16.4381L72.3584 16.062V17.825C72.3584 17.8629 72.3584 17.8871 72.3274 17.894C72.2875 17.8968 72.2481 17.8844 72.217 17.8595L72.0238 17.7491C71.9822 17.7239 71.9468 17.6897 71.9203 17.649Z" fill="white"/>
<path d="M77.1367 1.36465C77.1218 1.24194 77.0755 1.12513 77.0024 1.02545C76.9293 0.925761 76.8318 0.846543 76.7193 0.7954C76.4064 0.637144 76.0607 0.554688 75.7101 0.554688C75.3596 0.554687 75.0139 0.637144 74.701 0.7954C74.5885 0.846543 74.491 0.925761 74.4179 1.02545C74.3448 1.12513 74.2985 1.24194 74.2836 1.36465V77.3202H77.1436V1.36465H77.1367Z" fill="#455A64"/>
<path d="M102.339 58.7482L85.5202 53.894L68.0942 39.1901C67.8562 39.0076 67.5713 38.8965 67.2726 38.8697C66.974 38.8428 66.6738 38.9013 66.4071 39.0383L24.7516 63.0883C24.6433 63.1398 24.5502 63.2186 24.4816 63.317C24.413 63.4154 24.3713 63.53 24.3605 63.6495C24.3497 63.769 24.3702 63.8892 24.42 63.9983C24.4699 64.1074 24.5473 64.2016 24.6447 64.2717L42.0742 78.9757L58.893 83.8298L77.0953 99.2031L95.7253 105.354C96.3547 105.522 97.0234 105.453 97.6056 105.161L99.5135 104.057L139.261 81.1112C139.754 80.8283 139.716 80.4488 139.175 80.2694L120.545 74.1215L102.339 58.7482Z" fill="#455A64"/>
<path d="M85.5203 53.8945L42.0742 78.9761L58.893 83.8303L102.339 58.7487L85.5203 53.8945Z" fill="#455A64"/>
<path d="M77.0953 99.2027L95.7254 105.354C96.355 105.522 97.0244 105.452 97.6057 105.157L139.261 81.1108C139.755 80.8279 139.717 80.4484 139.175 80.269L120.545 74.1211L77.0953 99.2027Z" fill="#455A64"/>
<path d="M82.7154 55.5107L66.7763 42.0625L28.9365 63.908L44.879 77.3562L82.7154 55.5107Z" fill="#E0E0E0"/>
<path d="M99.5342 60.3659L61.6978 82.2114L44.879 77.3572L82.7153 55.5117L99.5342 60.3659Z" fill="#E0E0E0"/>
<g style="mix-blend-mode:multiply" opacity="0.5">
<path d="M99.5342 60.3659L61.6978 82.2114L44.879 77.3572L82.7153 55.5117L99.5342 60.3659Z" fill="#E0E0E0"/>
</g>
<path d="M117.75 75.7405L79.914 97.586L61.6979 82.2127L99.5342 60.3672L117.75 75.7405Z" fill="#E0E0E0"/>
<path d="M133.807 81.0341L95.967 102.88L79.9141 97.5838L117.75 75.7383L133.807 81.0341Z" fill="#E0E0E0"/>
<g style="mix-blend-mode:multiply" opacity="0.5">
<path d="M133.807 81.0341L95.967 102.88L79.9141 97.5838L117.75 75.7383L133.807 81.0341Z" fill="#E0E0E0"/>
</g>
<path d="M38.1653 71.697L43.4783 68.4609L35.0706 60.3672L28.9365 63.9104L38.1653 71.697Z" fill="#F0F0F0"/>
<path d="M44.879 67.6509L36.4713 59.5606L49.0846 52.25L57.4923 60.3679L44.879 67.6509Z" fill="#F0F0F0"/>
<path d="M50.4854 51.4679L58.893 59.5581L63.0986 57.1293L61.6979 44.9922L50.4854 51.4679Z" fill="#F0F0F0"/>
<path d="M64.4992 56.3214L63.0985 44.1843L66.7762 42.0625L80.4383 53.589L64.4992 56.3214Z" fill="#F0F0F0"/>
<path d="M49.785 74.5273L45.5794 70.4805L40.3251 73.513L44.8791 77.3564L49.785 74.5273Z" fill="#F0F0F0"/>
<path d="M46.9801 69.6702L51.1857 73.717L63.7851 66.4444L59.5899 62.3906L46.9801 69.6702Z" fill="#F0F0F0"/>
<path d="M65.1996 65.628L60.994 61.5812L64.8442 59.3594L72.9069 57.9414V61.1775L65.1996 65.628Z" fill="#F0F0F0"/>
<path d="M74.3077 60.3668V57.693L80.9697 56.5234L74.3077 60.3668Z" fill="#F0F0F0"/>
<path d="M81.318 62.7967C79.769 62.3482 77.5713 62.531 76.4121 63.2003C75.2529 63.8696 75.5634 64.777 77.1021 65.222C78.6408 65.6671 80.8454 65.4911 82.008 64.8184C83.1707 64.1456 82.8636 63.2417 81.318 62.7967Z" fill="#E6E6E6"/>
<path d="M76.7504 61.9136C76.4483 62.0115 76.157 62.1398 75.881 62.2966C74.6597 62.9866 74.6286 63.9181 74.6735 64.2803C74.6998 64.4934 74.7665 64.6995 74.8701 64.8875L71.4925 66.8334L65.1859 65.6224L72.8932 61.1719L76.7504 61.9136Z" fill="#E6E6E6"/>
<path d="M74.3077 60.3659L78.6306 61.1145L80.8455 61.4216L88.3217 57.1298L82.7154 55.5117L74.3077 60.3659Z" fill="#E6E6E6"/>
<path d="M99.5205 60.3672L88.9979 66.4427L82.7292 65.5836C83.747 64.8936 83.7643 64.0725 83.7298 63.731C83.7027 63.5196 83.6372 63.315 83.5366 63.1272L92.0477 58.2109L99.5205 60.3672Z" fill="#E6E6E6"/>
<path d="M87.7455 67.1728L82.7188 70.0743L74.287 68.47L77.7853 66.4414L77.8129 66.4242C78.2063 66.4773 78.6028 66.5038 78.9997 66.5035C79.8106 66.5102 80.6181 66.3998 81.3975 66.1758L87.7455 67.1728Z" fill="#E6E6E6"/>
<path d="M63.7851 66.4453L51.1857 73.7179L57.4923 74.9324L70.0952 67.6528L63.7851 66.4453Z" fill="#E6E6E6"/>
<path d="M82.7189 70.079L74.2939 68.4609L61.691 75.7405L70.1056 77.3585L82.7189 70.079Z" fill="#E6E6E6"/>
<path d="M49.7849 74.5273L44.879 77.3564L50.4853 78.9744L56.0916 75.7383L49.7849 74.5273Z" fill="#E6E6E6"/>
<path d="M68.7048 78.1688L60.2903 76.5508L54.2217 80.056L61.6979 82.2122L68.7048 78.1688Z" fill="#E6E6E6"/>
<path d="M91.1265 70.0794L95.8081 78.701L107.942 71.6975L96.7327 66.8398L91.1265 70.0794Z" fill="#F0F0F0"/>
<path d="M68.7049 78.168L70.1056 80.5933L69.6674 88.9389L61.6979 82.2114L68.7049 78.168Z" fill="#F0F0F0"/>
<path d="M70.1056 77.3563L71.5063 79.7851L89.0807 69.6386L87.7455 67.1719L70.1056 77.3563Z" fill="#F0F0F0"/>
<path d="M89.0117 66.4461L90.4262 68.8646L101.811 62.2888L99.5343 60.3672L89.0117 66.4461Z" fill="#F0F0F0"/>
<path d="M89.7258 70.8867L72.2066 81.0022L71.7546 90.7036L73.0829 91.8214L94.4178 79.5049L89.7258 70.8867Z" fill="#F0F0F0"/>
<path d="M98.1335 66.0307L102.95 63.25L110.919 69.9741L109.346 70.8849L98.1335 66.0307Z" fill="#F0F0F0"/>
<path d="M75.36 93.7409L81.3147 90.3047L84.1196 95.1588L79.914 97.5842L75.36 93.7409Z" fill="#F0F0F0"/>
<path d="M88.321 86.26L82.7159 89.4961L85.5191 94.3513L91.1242 91.1152L88.321 86.26Z" fill="#F0F0F0"/>
<path d="M89.7258 85.4528L95.7599 81.9648L98.444 86.888L92.5273 90.307L89.7258 85.4528Z" fill="#F0F0F0"/>
<path d="M99.8241 86.0916L97.1469 81.1649L109.346 74.12L115.477 73.8164L117.75 75.7381L99.8241 86.0916Z" fill="#F0F0F0"/>
<path d="M112.058 70.9375L109.346 72.5038L113.717 72.3348L112.058 70.9375Z" fill="#F0F0F0"/>
<path d="M106.627 88.7365C105.082 88.2915 102.884 88.4709 101.725 89.1402C100.566 89.8095 100.876 90.7169 102.415 91.1654C103.954 91.6139 106.158 91.431 107.321 90.7617C108.484 90.0924 108.177 89.1713 106.627 88.7365Z" fill="#E6E6E6"/>
<path d="M84.1196 95.1602L89.7259 96.7782L85.265 99.3519L79.9141 97.5855L84.1196 95.1602Z" fill="#E6E6E6"/>
<path d="M85.5203 94.3494L91.1265 95.9675L96.7328 92.7313L91.1265 91.1133L85.5203 94.3494Z" fill="#E6E6E6"/>
<path d="M92.5272 90.3071L98.1404 91.932L100.007 90.8522C100.007 90.8522 99.1202 88.8718 101.732 88.0438L98.4371 86.8984L92.5272 90.3071Z" fill="#E6E6E6"/>
<path d="M99.824 86.0918L103.274 87.3338C104.204 87.2212 105.145 87.2212 106.075 87.3338L116.353 81.4032L110.747 79.7852L99.824 86.0918Z" fill="#E6E6E6"/>
<path d="M112.147 78.9744L117.754 80.5925L123.105 77.5047L117.75 75.7383L112.147 78.9744Z" fill="#E6E6E6"/>
<path d="M126.672 78.6836L117.754 83.831L124.761 86.2598L133.807 81.0365L126.672 78.6836Z" fill="#E6E6E6"/>
<path d="M116.353 84.6406L108.984 88.8945C108.984 88.8945 109.888 90.2986 108.732 91.4096L113.562 92.7309L123.374 87.0694L116.536 84.7372" fill="#E6E6E6"/>
<path d="M112.147 93.5435L107.169 92.2773C107.169 92.2773 104.771 93.2157 102.753 92.4843L95.3286 96.7693L93.9279 102.203L95.9668 102.872L112.147 93.5435Z" fill="#E6E6E6"/>
<path d="M93.928 97.5859L92.755 101.823L88.8323 100.529L93.928 97.5859Z" fill="#E6E6E6"/>
<path d="M87.7456 84.651C87.6857 84.651 87.6269 84.6354 87.5748 84.6057C87.5228 84.5761 87.4794 84.5334 87.4489 84.4819C87.4022 84.4032 87.3887 84.3092 87.4114 84.2206C87.434 84.132 87.4909 84.0559 87.5696 84.0093L94.9492 79.6588L88.1009 67.1525L81.6563 66.1382C81.5866 66.1273 81.5218 66.0954 81.4708 66.0466C81.4198 65.9978 81.385 65.9345 81.3711 65.8653C81.3572 65.7961 81.3648 65.7243 81.393 65.6596C81.4212 65.5949 81.4685 65.5404 81.5287 65.5034C82.4843 64.9203 82.9639 64.3683 82.9087 63.9026C82.8535 63.4368 82.3152 62.9918 81.4251 62.6468C80.1003 62.1362 77.361 62.3018 76.1777 63.2229C75.8888 63.4132 75.6866 63.7098 75.6149 64.0482C75.5432 64.3866 75.6078 64.7396 75.7947 65.0307C75.8205 65.0696 75.8381 65.1133 75.8464 65.1592C75.8548 65.205 75.8538 65.2521 75.8435 65.2976C75.8332 65.343 75.8138 65.3859 75.7864 65.4237C75.759 65.4614 75.7243 65.4932 75.6843 65.5172L72.1308 67.6666C72.059 67.7084 71.9749 67.7242 71.8928 67.7114L64.4235 66.3728C64.3547 66.3583 64.2914 66.3249 64.2406 66.2762L56.7058 58.6862C56.6415 58.6215 56.6055 58.5341 56.6055 58.4429C56.6055 58.3518 56.6415 58.2643 56.7058 58.1997C56.7379 58.1674 56.776 58.1417 56.8181 58.1242C56.8601 58.1067 56.9052 58.0977 56.9507 58.0977C56.9963 58.0977 57.0414 58.1067 57.0834 58.1242C57.1255 58.1417 57.1636 58.1674 57.1957 58.1997L64.6753 65.7104L71.9204 67.0076L75.0875 65.0928C74.9048 64.6727 74.8738 64.2022 74.9997 63.7617C75.1255 63.3212 75.4004 62.9381 75.7775 62.6778C77.1575 61.6152 80.1797 61.4186 81.6977 61.9878C82.3877 62.25 83.5331 62.8365 83.6194 63.8232C83.6746 64.4097 83.3399 64.9962 82.6223 65.5724L88.3838 66.4797C88.4365 66.4876 88.4867 66.5076 88.5304 66.5381C88.5741 66.5687 88.6101 66.6089 88.6357 66.6557L95.7255 79.6208C95.7683 79.6994 95.7789 79.7916 95.7551 79.8778C95.7313 79.9641 95.6749 80.0377 95.5978 80.0832L87.9319 84.6027C87.8756 84.6361 87.811 84.6529 87.7456 84.651Z" fill="#37ED81"/>
<path d="M59.2311 47.9228L58.0512 47.2328C57.4854 46.8568 56.7057 46.8878 55.8398 47.3708C54.1147 48.361 52.7347 50.8795 52.7347 52.9909V53.4739C52.7347 55.5853 55.5741 57.883 55.5741 57.883L56.7368 58.542C56.7368 58.542 56.0468 57.745 56.1192 57.5829C56.8782 56.02 58.9517 51.6074 58.9517 49.8824V49.4029C58.9554 49.0533 58.9101 48.7049 58.8171 48.3679L58.9517 48.4438L59.2311 47.9228ZM55.8398 52.7701C54.9807 53.2635 54.2838 52.8633 54.2838 51.8731C54.7461 51.8007 55.9088 49.8031 55.8398 49.1786C56.6988 48.6853 57.3923 49.0855 57.3923 50.0756C57.3625 50.6149 57.2065 51.1397 56.9368 51.6077C56.6672 52.0757 56.2914 52.4739 55.8398 52.7701Z" fill="#37ED81"/>
<path d="M59.2311 47.9228L58.0512 47.2328C57.4854 46.8568 56.7057 46.8878 55.8398 47.3708C54.1147 48.361 52.7347 50.8795 52.7347 52.9909V53.4739C52.7347 55.5853 55.5741 57.883 55.5741 57.883L56.7368 58.542C56.7368 58.542 56.0468 57.745 56.1192 57.5829C56.8782 56.02 58.9517 51.6074 58.9517 49.8824V49.4029C58.9554 49.0533 58.9101 48.7049 58.8171 48.3679L58.9517 48.4438L59.2311 47.9228ZM55.8398 52.7701C54.9807 53.2635 54.2838 52.8633 54.2838 51.8731C54.7461 51.8007 55.9088 49.8031 55.8398 49.1786C56.6988 48.6853 57.3923 49.0855 57.3923 50.0756C57.3625 50.6149 57.2065 51.1397 56.9368 51.6077C56.6672 52.0757 56.2914 52.4739 55.8398 52.7701Z" fill="#37ED81"/>
<g opacity="0.2">
<path d="M59.2311 47.9228L58.0512 47.2328C57.4854 46.8568 56.7057 46.8878 55.8398 47.3708C54.1147 48.361 52.7347 50.8795 52.7347 52.9909V53.4739C52.7347 55.5853 55.5741 57.883 55.5741 57.883L56.7368 58.542C56.7368 58.542 56.0468 57.745 56.1192 57.5829C56.8782 56.02 58.9517 51.6074 58.9517 49.8824V49.4029C58.9554 49.0533 58.9101 48.7049 58.8171 48.3679L58.9517 48.4438L59.2311 47.9228ZM55.8398 52.7701C54.9807 53.2635 54.2838 52.8633 54.2838 51.8731C54.7461 51.8007 55.9088 49.8031 55.8398 49.1786C56.6988 48.6853 57.3923 49.0855 57.3923 50.0756C57.3625 50.6149 57.2065 51.1397 56.9368 51.6077C56.6672 52.0757 56.2914 52.4739 55.8398 52.7701Z" fill="black"/>
</g>
<path d="M60.1903 50.1353C60.1903 48.0239 58.8102 47.1131 57.0852 48.1033C55.3602 49.0934 53.9802 51.612 53.9802 53.7268V54.2064C53.9802 55.8348 55.8225 57.7219 56.6712 58.5051C56.7194 58.5493 56.7772 58.5817 56.8401 58.5997C56.903 58.6177 56.9692 58.6208 57.0335 58.6088C57.0978 58.5967 57.1584 58.5699 57.2105 58.5303C57.2626 58.4907 57.3048 58.4396 57.3336 58.3809C58.065 56.8836 60.1972 52.3675 60.1972 50.6183L60.1903 50.1353ZM57.0852 53.4888C56.2262 53.9856 55.5327 53.5819 55.5327 52.5918C55.5625 52.0525 55.7185 51.5277 55.9882 51.0597C56.2578 50.5917 56.6336 50.1935 57.0852 49.8973C57.9443 49.4039 58.6412 49.8041 58.6412 50.7978C58.6105 51.3368 58.4537 51.861 58.1835 52.3284C57.9132 52.7958 57.5371 53.1932 57.0852 53.4888Z" fill="#37ED81"/>
<path d="M89.9362 74.1435L88.7563 73.4535C88.1905 73.0774 87.4108 73.0912 86.5448 73.5915C84.8198 74.5816 83.4398 77.1002 83.4398 79.2116V79.6946C83.4398 81.806 86.2792 84.1037 86.2792 84.1037L87.4418 84.7626C87.4418 84.7626 86.7518 83.9657 86.8243 83.8035C87.5833 82.2407 89.6567 77.8281 89.6567 76.1031V75.6236C89.6605 75.274 89.6152 74.9256 89.5222 74.5886L89.6567 74.6645L89.9362 74.1435ZM86.5448 78.9908C85.6858 79.4841 84.9889 79.0839 84.9889 78.0938C85.4512 78.0213 86.6138 76.0237 86.5448 75.3993C87.4039 74.9059 88.0973 75.3061 88.0973 76.2963C88.0675 76.8356 87.9115 77.3604 87.6419 77.8284C87.3722 78.2964 86.9965 78.6945 86.5448 78.9908Z" fill="#37ED81"/>
<path d="M89.9362 74.1435L88.7563 73.4535C88.1905 73.0774 87.4108 73.0912 86.5448 73.5915C84.8198 74.5816 83.4398 77.1002 83.4398 79.2116V79.6946C83.4398 81.806 86.2792 84.1037 86.2792 84.1037L87.4418 84.7626C87.4418 84.7626 86.7518 83.9657 86.8243 83.8035C87.5833 82.2407 89.6567 77.8281 89.6567 76.1031V75.6236C89.6605 75.274 89.6152 74.9256 89.5222 74.5886L89.6567 74.6645L89.9362 74.1435ZM86.5448 78.9908C85.6858 79.4841 84.9889 79.0839 84.9889 78.0938C85.4512 78.0213 86.6138 76.0237 86.5448 75.3993C87.4039 74.9059 88.0973 75.3061 88.0973 76.2963C88.0675 76.8356 87.9115 77.3604 87.6419 77.8284C87.3722 78.2964 86.9965 78.6945 86.5448 78.9908Z" fill="#37ED81"/>
<g opacity="0.2">
<path d="M89.9362 74.1435L88.7563 73.4535C88.1905 73.0774 87.4108 73.0912 86.5448 73.5915C84.8198 74.5816 83.4398 77.1002 83.4398 79.2116V79.6946C83.4398 81.806 86.2792 84.1037 86.2792 84.1037L87.4418 84.7626C87.4418 84.7626 86.7518 83.9657 86.8243 83.8035C87.5833 82.2407 89.6567 77.8281 89.6567 76.1031V75.6236C89.6605 75.274 89.6152 74.9256 89.5222 74.5886L89.6567 74.6645L89.9362 74.1435ZM86.5448 78.9908C85.6858 79.4841 84.9889 79.0839 84.9889 78.0938C85.4512 78.0213 86.6138 76.0237 86.5448 75.3993C87.4039 74.9059 88.0973 75.3061 88.0973 76.2963C88.0675 76.8356 87.9115 77.3604 87.6419 77.8284C87.3722 78.2964 86.9965 78.6945 86.5448 78.9908Z" fill="black"/>
</g>
<path d="M90.8953 76.3541C90.8953 74.2427 89.5153 73.3319 87.7903 74.322C86.0653 75.3122 84.6853 77.8307 84.6853 79.9456V80.4251C84.6853 82.0535 86.5276 83.9407 87.3763 84.7238C87.4245 84.7681 87.4823 84.8005 87.5452 84.8185C87.6081 84.8365 87.6743 84.8396 87.7386 84.8275C87.8029 84.8155 87.8635 84.7886 87.9156 84.749C87.9677 84.7095 88.0098 84.6583 88.0387 84.5996C88.7701 83.1023 90.9022 78.5863 90.9022 76.8371L90.8953 76.3541ZM87.7903 79.7075C86.9313 80.2043 86.2378 79.8007 86.2378 78.8105C86.2676 78.2712 86.4236 77.7464 86.6933 77.2784C86.9629 76.8104 87.3387 76.4123 87.7903 76.1161C88.6494 75.6227 89.3463 76.0229 89.3463 77.0165C89.3156 77.5555 89.1588 78.0798 88.8885 78.5472C88.6183 79.0146 88.2421 79.412 87.7903 79.7075Z" fill="#37ED81"/>
<path d="M113.769 33.7508L113.693 33.706L111.326 32.3467C110.778 31.9847 110.134 31.796 109.477 31.805C108.512 31.8388 107.572 32.1255 106.752 32.6365C103.198 34.6858 100.321 39.8815 100.321 44.263V45.2566C100.321 49.6278 106.186 54.3784 106.186 54.3784L108.577 55.7309C108.497 55.6377 107.138 54.0783 107.3 53.7505C108.873 50.5213 113.165 41.396 113.165 37.8287V36.8351C113.173 36.1141 113.081 35.3956 112.893 34.6996L113.169 34.8583L113.769 33.7508ZM109.322 45.2566C107.745 46.1674 106.438 45.6189 106.162 44.0491C104.668 44.5942 103.536 43.7351 103.536 41.917C104.492 41.7652 106.893 37.6631 106.752 36.3487C108.325 35.4379 109.632 35.9864 109.908 37.5562C111.406 37.0111 112.537 37.8701 112.537 39.6883C112.537 41.7376 111.099 44.232 109.322 45.2566Z" fill="#263238"/>
<path d="M113.769 33.7522L113.693 33.7073C112.544 33.0622 111.009 33.1484 109.322 34.1213C106.779 35.591 104.578 38.6788 103.536 41.9183C103.125 43.1538 102.907 44.4457 102.891 45.7479V46.7346C102.891 50.1018 106.703 54.0072 108.459 55.6253C108.499 55.6615 108.542 55.6938 108.587 55.7219C108.689 55.7855 108.803 55.8272 108.922 55.8442C109.041 55.8613 109.162 55.8533 109.277 55.8208C109.393 55.7883 109.501 55.7321 109.593 55.6556C109.686 55.5792 109.761 55.4842 109.815 55.3769C111.33 52.2718 115.742 42.9361 115.742 39.317V38.32C115.753 36.0775 114.994 34.487 113.769 33.7522ZM106.162 44.0505C106.123 43.8364 106.105 43.6193 106.107 43.4018C106.107 41.3525 107.545 38.8582 109.322 37.8335C109.509 37.7253 109.706 37.633 109.908 37.5575C111.406 37.0124 112.537 37.8715 112.537 39.6896C112.537 41.7389 111.099 44.2333 109.322 45.258C107.745 46.1688 106.438 45.6202 106.162 44.0505Z" fill="#455A64"/>
<path d="M110.374 36.7288C110.135 36.8245 109.904 36.9399 109.684 37.0738C107.535 38.3124 105.796 41.3242 105.796 43.8013C105.793 44.0652 105.816 44.3286 105.865 44.5879C106.21 46.4855 107.78 47.1479 109.684 46.0473C111.83 44.8087 113.572 41.7934 113.572 39.3163C113.555 37.1049 112.185 36.0664 110.374 36.7288Z" fill="#263238"/>
<path d="M109.936 37.6966L110.585 39.0766C110.592 39.0971 110.604 39.1157 110.619 39.1313C110.634 39.1469 110.652 39.159 110.673 39.1668C110.693 39.1747 110.715 39.1781 110.736 39.1768C110.758 39.1755 110.779 39.1696 110.799 39.1594L112.258 38.6005C112.489 38.5143 112.579 38.8386 112.413 39.1525L111.357 41.1328C111.293 41.2483 111.265 41.3807 111.278 41.5123L111.527 43.3029C111.564 43.5892 111.323 43.9618 111.116 43.9377L109.812 43.7755C109.759 43.7776 109.708 43.7925 109.662 43.8189C109.616 43.8454 109.578 43.8826 109.55 43.9273L108.246 45.5937C108.039 45.8593 107.797 45.7627 107.838 45.435L108.087 43.365C108.098 43.3141 108.097 43.2613 108.082 43.2112C108.068 43.1612 108.041 43.1156 108.004 43.0786L106.969 42.3162C106.8 42.1954 106.893 41.7642 107.124 41.5848L108.58 40.4601C108.686 40.3704 108.761 40.2497 108.794 40.1151L109.446 37.9795C109.525 37.6483 109.833 37.4758 109.936 37.6966Z" fill="#37ED81"/>
<path d="M128.783 42.3992L128.708 42.3544L126.341 40.9951C125.793 40.6331 125.148 40.4444 124.492 40.4534C123.526 40.4873 122.586 40.774 121.766 41.2849C118.213 43.3342 115.335 48.5299 115.335 52.9114V53.905C115.335 58.2762 121.2 63.0269 121.2 63.0269L123.591 64.3793C123.512 64.2861 122.153 62.7267 122.315 62.399C123.888 59.1698 128.18 50.0445 128.18 46.4772V45.4836C128.187 44.7626 128.095 44.044 127.907 43.348L128.183 43.5067L128.783 42.3992ZM124.336 53.905C122.76 54.8158 121.452 54.2673 121.176 52.6975C119.682 53.2426 118.551 52.3836 118.551 50.5654C119.506 50.4136 121.908 46.3116 121.766 44.9971C123.339 44.0863 124.647 44.6349 124.923 46.2046C126.42 45.6595 127.552 46.5186 127.552 48.3367C127.552 50.386 126.113 52.8804 124.336 53.905Z" fill="#263238"/>
<path d="M128.783 42.4006L128.708 42.3557C127.559 41.7106 126.023 41.7968 124.336 42.7697C121.794 44.2395 119.593 47.3272 118.551 50.5668C118.139 51.8023 117.921 53.0941 117.906 54.3963V55.3934C117.906 58.7606 121.701 62.666 123.474 64.284C123.513 64.3203 123.556 64.3526 123.601 64.3806C123.703 64.4443 123.817 64.486 123.936 64.503C124.055 64.52 124.176 64.5121 124.292 64.4796C124.407 64.4471 124.515 64.3909 124.608 64.3144C124.7 64.238 124.776 64.143 124.83 64.0356C126.344 60.9306 130.757 51.5949 130.757 47.9758V46.9788C130.767 44.7259 130.008 43.1355 128.783 42.4006ZM121.176 52.6989C121.138 52.4849 121.119 52.2677 121.121 52.0503C121.121 50.001 122.56 47.5066 124.336 46.482C124.524 46.3737 124.72 46.2814 124.923 46.206C126.42 45.6609 127.552 46.5199 127.552 48.3381C127.552 50.3874 126.113 52.8817 124.336 53.9064C122.76 54.8172 121.452 54.2686 121.176 52.6989Z" fill="#455A64"/>
<path d="M125.396 45.3756C125.15 45.4704 124.914 45.5858 124.688 45.7206C122.539 46.9592 120.8 49.9745 120.8 52.4516C120.797 52.7143 120.821 52.9766 120.869 53.2347C121.214 55.1322 122.784 55.7946 124.688 54.6941C126.834 53.4555 128.576 50.4402 128.576 47.9631C128.57 45.7551 127.2 44.7166 125.396 45.3756Z" fill="#263238"/>
<path d="M127.914 47.9036L124.847 47.0859L121.776 51.4502L122.587 50.981V53.5444L124.371 52.5163V51.0845L125.32 50.536V51.9677L127.103 50.9396V48.3728L127.914 47.9036Z" fill="#37ED81"/>
<path d="M143.798 50.9852L143.722 50.9403L141.355 49.581C140.807 49.2191 140.163 49.0303 139.506 49.0394C138.54 49.0732 137.601 49.3599 136.781 49.8708C133.227 51.9201 130.35 57.1159 130.35 61.4974V62.491C130.35 66.8621 136.215 71.6128 136.215 71.6128L138.606 72.9652C138.526 72.8721 137.167 71.3127 137.329 70.9849C138.902 67.7557 143.194 58.6304 143.194 55.0631V54.0695C143.202 53.3485 143.11 52.6299 142.922 51.9339L143.198 52.0926L143.798 50.9852ZM139.351 62.491C137.774 63.4018 136.467 62.836 136.191 61.2835C134.697 61.8286 133.565 60.9695 133.565 59.1514C134.521 58.9996 136.922 54.8975 136.781 53.583C138.354 52.6722 139.661 53.2208 139.937 54.7905C141.435 54.2454 142.566 55.1045 142.566 56.9227C142.566 58.972 141.128 61.4663 139.351 62.491Z" fill="#263238"/>
<path d="M143.798 50.9865L143.722 50.9417C142.573 50.2965 141.038 50.3828 139.351 51.3557C136.808 52.8254 134.607 55.9132 133.565 59.1527C133.153 60.3882 132.936 61.6801 132.92 62.9822V63.9827C132.92 67.35 136.732 71.2554 138.488 72.8734C138.528 72.9097 138.57 72.942 138.616 72.97C138.718 73.0337 138.832 73.0754 138.951 73.0924C139.07 73.1094 139.191 73.1015 139.306 73.069C139.422 73.0365 139.53 72.9802 139.622 72.9038C139.715 72.8273 139.79 72.7324 139.844 72.625C141.359 69.52 145.771 60.1843 145.771 56.5652V55.5682C145.782 53.3118 145.023 51.7214 143.798 50.9865ZM136.208 61.2848C136.169 61.0708 136.151 60.8537 136.153 60.6362C136.153 58.5869 137.591 56.0926 139.368 55.0679C139.556 54.9597 139.752 54.8674 139.955 54.7919C141.452 54.2468 142.584 55.1059 142.584 56.924C142.584 58.9733 141.145 61.4677 139.368 62.4923C137.774 63.4031 136.467 62.8546 136.191 61.2848H136.208Z" fill="#455A64"/>
<path d="M140.403 53.9791C140.158 54.0737 139.921 54.1892 139.696 54.3241C137.546 55.5627 135.808 58.578 135.808 61.0551C135.805 61.3189 135.828 61.5823 135.877 61.8417C136.222 63.7392 137.788 64.4016 139.696 63.301C141.842 62.0625 143.581 59.0472 143.581 56.5701C143.581 54.3414 142.214 53.2891 140.403 53.9791Z" fill="#263238"/>
<path d="M139.665 55.9159C140.4 55.4916 140.997 55.8366 140.997 56.6853C140.971 57.147 140.838 57.5963 140.606 57.9968C140.375 58.3972 140.052 58.7374 139.665 58.9899C138.93 59.4142 138.333 59.0692 138.333 58.2205C138.358 57.7588 138.492 57.3095 138.724 56.9091C138.955 56.5087 139.277 56.1684 139.665 55.9159Z" fill="#37ED81"/>
<path d="M137.126 63.6393C137.816 63.9394 138.706 63.8428 139.689 63.2943C140.738 62.6431 141.617 61.7514 142.252 60.693V60.4687C142.252 59.0887 141.273 58.5091 140.065 59.206L139.309 59.6407C138.672 60.0566 138.142 60.6171 137.763 61.2766C137.383 61.936 137.165 62.6759 137.126 63.4357V63.6393Z" fill="#37ED81"/>
<path d="M22.0882 30.5586C19.6732 30.6759 17.9999 31.2486 16.2818 32.9736C15.0191 34.2432 12.297 41.6159 13.4838 47.5741C13.6852 48.6304 14.1308 49.625 14.7848 50.4786C15.4389 51.3322 16.2834 52.021 17.251 52.4902C18.2186 52.9595 19.2825 53.196 20.3577 53.1811C21.433 53.1661 22.4899 52.9 23.444 52.4041C26.7181 50.7343 27.3529 45.5627 27.2597 42.5474C27.1666 39.5321 22.0882 30.5586 22.0882 30.5586Z" fill="#263238"/>
<path d="M19.1142 32.7735C19.1142 32.7735 18.4656 31.9247 16.9614 32.3974C16.9614 32.3974 15.3744 34.3087 14.1496 37.9174C14.1496 37.9174 13.7598 37.9174 14.0082 36.8824C14.2566 35.8474 15.2502 33.4324 15.8884 32.5734C16.5267 31.7143 17.4272 31.0105 21.7535 29.4235C25.5485 28.0435 24.3341 31.4935 24.3341 31.4935L19.1142 32.7735Z" fill="#37474F"/>
<path d="M11.7415 81.8534C11.2344 81.5912 10.9135 82.2364 10.4547 82.7504C10.1304 83.1127 9.63012 83.6854 9.55422 84.0994C9.44382 84.71 9.99582 85.6691 10.5892 86.197C11.1826 86.7248 11.9071 87.1078 12.1279 88.267C12.3487 89.4262 12.8179 90.1196 14.0013 90.6371C15.3226 91.2064 17.1063 91.0235 17.6859 90.6371C18.3966 90.1783 17.748 89.678 16.7544 88.2532C15.4572 86.3971 14.4463 85.0688 14.4463 83.3369L11.7415 81.8534Z" fill="#263238"/>
<path d="M12.7766 80.332L11.7139 81.8949C11.4887 82.2163 11.3986 82.6133 11.4631 83.0004C11.5277 83.3876 11.7416 83.7339 12.059 83.9649L12.0935 83.9856C12.4165 84.1803 12.7978 84.2552 13.1706 84.1972C13.5433 84.1392 13.8838 83.9519 14.1324 83.6682L15.7953 81.8535L12.7766 80.332Z" fill="#FFA8A7"/>
<path d="M32.6245 50.3288C32.6935 52.3194 32.3554 59.9336 30.8995 63.7424C30.0947 65.905 29.0826 67.9847 27.8773 69.9524C27.4426 70.6907 14.9742 82.8314 14.9742 82.8314C14.9742 82.8314 12.8593 82.6761 12.5212 80.6233C12.5212 80.6233 17.6307 71.9397 18.7313 70.156C19.8318 68.3723 23.7545 65.6434 23.7545 65.6434L23.4095 48.9453L32.6245 50.3288Z" fill="#37474F"/>
<path d="M29.5998 92.2677L32.2373 91.668L31.3645 87.8295L28.727 88.4292L29.5998 92.2677Z" fill="#FFA8A7"/>
<path d="M27.5426 56.7605C28.4463 55.9318 29.2562 55.0062 29.9576 54.0005C31.9724 51.2163 31.6619 48.7461 31.6619 48.7461H30.8373L18.7002 50.3435C18.3605 52.3223 18.4097 54.3485 18.8451 56.3085C19.9111 61.6871 24.2374 70.8779 24.2374 70.8779C24.1753 71.6197 23.8614 74.742 24.5825 77.5089C25.7003 81.8766 28.7466 89.2665 28.7466 89.2665C28.7466 89.2665 30.6579 89.5391 31.6032 88.4351C31.6032 88.4351 29.9162 73.431 29.4642 69.5876C28.9536 65.4097 27.5426 56.7605 27.5426 56.7605Z" fill="#37474F"/>
<path d="M31.9448 90.3643L31.8585 89.9883C32.1345 90.04 33.3179 92.0031 34.4909 92.8587C35.7777 93.7937 36.9059 94.3457 37.4682 94.7666C38.2376 95.3324 37.1232 96.4916 35.2326 96.5882C34.3456 96.6515 33.4562 96.5025 32.6382 96.1535C31.8137 95.7602 31.3134 95.0253 30.6855 94.3939C30.2267 93.9316 29.5332 93.5935 29.1848 93.0346C29.0261 92.7793 29.0019 92.1549 29.0192 91.6167C29.0364 91.0785 29.0537 90.5817 29.2227 90.5817L29.2883 90.8715C29.7846 91.1187 30.335 91.2373 30.8891 91.2165C31.3341 91.2061 32.1621 91.1026 31.9448 90.3643Z" fill="#263238"/>
<path d="M29.1124 67.0241C29.1124 67.0241 27.8428 57.9954 27.5426 56.7603C27.5426 56.7603 29.7817 55.9082 30.4717 55.125C30.4717 55.125 29.9783 56.2187 28.3775 57.195L29.1124 67.0241Z" fill="#263238"/>
<path d="M24.234 70.8599C23.6923 70.1147 22.3434 66.7578 22.3434 66.7578L23.7234 71.1014C23.3784 72.402 23.406 74.5514 23.406 74.5514L24.096 73.9338C24.0994 73.4163 24.234 70.8599 24.234 70.8599Z" fill="#263238"/>
<path d="M31.2652 46.5605C29.5126 40.6472 29.8852 35.6446 29.5402 34.1094L34.0631 40.4781C34.2599 42.579 34.5743 44.6673 35.005 46.733C35.5225 48.9927 36.2297 51.8114 37.075 53.564C37.2272 53.8775 37.4903 54.1233 37.8133 54.254C38.6689 54.599 39.0656 55.051 39.7522 55.5616C40.2904 55.9652 40.701 56.017 40.6665 56.1791C40.606 56.3616 40.4792 56.5148 40.3111 56.6081C40.143 56.7014 39.946 56.7281 39.7591 56.6828C39.3455 56.5944 38.9437 56.4578 38.5619 56.2757C38.9507 56.9247 39.4411 57.5071 40.0144 58.0007C41.3254 59.1461 41.5117 59.9569 39.3244 60.3467C37.9444 60.5951 36.7127 59.9327 35.1637 57.0796C34.5728 56.0392 34.0574 54.9577 33.6215 53.8435C32.59 50.9282 31.7965 48.351 31.2652 46.5605Z" fill="#FFA8A7"/>
<path d="M28.0153 31.4688C30.1439 31.4895 32.2415 31.969 32.9626 34.2288C33.6526 36.4437 34.5772 42.8538 34.5772 42.8538C34.5772 42.8538 33.6802 44.0406 30.6925 43.8474L28.0153 31.4688Z" fill="#37ED81"/>
<path d="M28.0153 31.4688C30.1439 31.4895 32.2415 31.969 32.9626 34.2288C33.6526 36.4437 34.5772 42.8538 34.5772 42.8538C34.5772 42.8538 33.6802 44.0406 30.6925 43.8474L28.0153 31.4688Z" fill="#37ED81"/>
<g opacity="0.1">
<path d="M28.0153 31.4688C30.1439 31.4895 32.2415 31.969 32.9626 34.2288C33.6526 36.4437 34.5772 42.8538 34.5772 42.8538C34.5772 42.8538 33.6802 44.0406 30.6925 43.8474L28.0153 31.4688Z" fill="black"/>
</g>
<path d="M23.6406 31.5987C22.1433 31.9437 20.4149 32.2542 18.9659 32.9787C17.9585 33.472 19.404 41.8211 19.404 41.8211L18.714 50.3426C20.7012 52.5058 28.305 53.5132 32.6417 50.3426V36.5426C32.6417 34.3345 31.417 31.6849 28.0325 31.4883L23.6406 31.5987Z" fill="#37ED81"/>
<path d="M19.3971 41.6386L20.7081 38.0195L19.1763 44.5263L19.3971 41.6386Z" fill="#37ED81"/>
<path opacity="0.2" d="M19.3971 41.6386L20.7081 38.0195L19.1763 44.5263L19.3971 41.6386Z" fill="black"/>
<path d="M21.2808 23.9215L22.2192 27.6268C22.3164 28.0112 22.5386 28.3523 22.8509 28.5965C23.1631 28.8407 23.5478 28.9741 23.9442 28.9758H25.0413V23.8008L21.2808 23.9215Z" fill="#263238"/>
<path d="M29.3061 26.5008C31.4827 26.232 33.0293 24.2497 32.7605 22.0731C32.4917 19.8965 30.5093 18.35 28.3328 18.6188C26.1562 18.8876 24.6096 20.8699 24.8784 23.0465C25.1472 25.2231 27.1296 26.7696 29.3061 26.5008Z" fill="#263238"/>
<path d="M22.6884 20.3033C22.4603 20.2764 22.2291 20.3023 22.0126 20.3788C21.7961 20.4554 21.6 20.5806 21.4395 20.7449C20.9013 21.29 21.0151 22.3077 21.4395 24.6399L23.0989 24.8297L22.6884 20.3033Z" fill="#263238"/>
<path d="M23.4647 24.8345C23.2197 24.9794 22.8678 24.5068 22.5642 24.1894C22.2606 23.872 21.2705 23.4373 20.7771 24.4792C20.2838 25.5211 21.06 26.9425 21.8121 27.2392C22.0802 27.3725 22.3896 27.3963 22.6748 27.3055C22.9601 27.2147 23.1988 27.0165 23.3405 26.7527L23.6372 31.5828C23.9344 32.233 24.388 32.7996 24.9575 33.2318C25.527 33.664 26.1947 33.9485 26.9009 34.0599C29.2849 34.3807 28.795 32.4177 28.0118 31.4551V29.9785C28.6094 30.0839 29.2178 30.1152 29.8231 30.0717C30.6925 29.9095 31.1203 29.1022 31.5481 28.0706C32.1587 26.5285 32.5348 24.3481 32.0069 21.5812C31.3169 17.9173 27.2493 17.8379 24.924 19.3042C22.5987 20.7704 23.4647 24.8345 23.4647 24.8345Z" fill="#FFA8A7"/>
<path d="M23.4647 25.249C23.3405 25.249 22.8713 24.4693 22.5642 24.1899C22.1399 23.8035 22.6884 20.3052 22.6884 20.3052C22.9023 17.4382 27.132 17.2208 28.3016 17.138C30.9788 16.9448 32.7866 18.4284 32.0725 20.2948C31.5895 21.1435 30.5993 21.3781 29.6575 21.4885C28.0808 21.6817 25.4001 20.8365 25.062 20.7985C24.6066 20.733 24.51 21.178 24.2616 22.3855C24.0615 23.4412 23.8821 25.2387 23.4647 25.249Z" fill="#263238"/>
<path d="M22.6919 20.5786L21.205 19.7817C21.2526 19.6813 21.32 19.5917 21.4033 19.5181C21.4865 19.4446 21.5838 19.3888 21.6893 19.3539C21.7948 19.3191 21.9062 19.306 22.0169 19.3155C22.1275 19.325 22.2351 19.3568 22.3331 19.4091C22.5317 19.5206 22.6797 19.7043 22.7465 19.922C22.8133 20.1398 22.7938 20.3749 22.6919 20.5786Z" fill="#263238"/>
<path d="M28.0118 29.9922C28.0118 29.9922 25.8038 29.5471 25.0345 29.1366C24.5831 28.9054 24.2108 28.5451 23.965 28.1016C24.0821 28.5521 24.2886 28.9744 24.5722 29.3436C25.138 30.0646 28.0222 30.5959 28.0222 30.5959L28.0118 29.9922Z" fill="#F28F8F"/>
<path d="M28.0809 24.7518C28.0775 24.8383 28.0487 24.922 27.9982 24.9923C27.9477 25.0626 27.8776 25.1165 27.7966 25.1473C27.7157 25.1781 27.6275 25.1844 27.543 25.1655C27.4585 25.1465 27.3815 25.1032 27.3214 25.0408C27.2614 24.9784 27.221 24.8997 27.2053 24.8146C27.1896 24.7294 27.1993 24.6415 27.2332 24.5618C27.2671 24.4821 27.3236 24.4142 27.3958 24.3664C27.468 24.3186 27.5527 24.293 27.6393 24.293C27.6985 24.2939 27.7569 24.3065 27.8112 24.3301C27.8655 24.3536 27.9146 24.3878 27.9556 24.4304C27.9967 24.4731 28.0289 24.5234 28.0504 24.5786C28.0719 24.6338 28.0822 24.6926 28.0809 24.7518Z" fill="#263238"/>
<path d="M27.6116 23.0821L26.6663 23.6169C26.5987 23.4867 26.5839 23.3355 26.625 23.1948C26.6662 23.054 26.76 22.9346 26.8871 22.8613C26.949 22.8277 27.017 22.8067 27.0872 22.7996C27.1573 22.7925 27.2281 22.7994 27.2956 22.82C27.363 22.8405 27.4257 22.8743 27.4799 22.9193C27.5342 22.9643 27.5789 23.0196 27.6116 23.0821Z" fill="#263238"/>
<path d="M27.8118 27.707L28.8192 28.0865C28.7986 28.1559 28.7641 28.2203 28.7176 28.2758C28.6711 28.3312 28.6138 28.3765 28.5491 28.4089C28.4844 28.4412 28.4137 28.4599 28.3415 28.4638C28.2692 28.4677 28.197 28.4567 28.1292 28.4315C27.9921 28.3762 27.8821 28.2694 27.8228 28.134C27.7635 27.9986 27.7595 27.8453 27.8118 27.707Z" fill="#F28F8F"/>
<path d="M31.793 23.4512L30.9305 22.7854C30.9716 22.7274 31.0239 22.6783 31.0843 22.641C31.1448 22.6038 31.2121 22.5791 31.2824 22.5684C31.3526 22.5578 31.4242 22.5615 31.493 22.5792C31.5618 22.5969 31.6263 22.6283 31.6826 22.6715C31.7973 22.7627 31.8726 22.8944 31.8931 23.0394C31.9137 23.1844 31.8778 23.3318 31.793 23.4512Z" fill="#263238"/>
<path d="M31.5308 24.4979C31.5274 24.5844 31.4987 24.6681 31.4482 24.7384C31.3976 24.8087 31.3275 24.8626 31.2466 24.8934C31.1657 24.9242 31.0775 24.9305 30.993 24.9116C30.9085 24.8926 30.8314 24.8493 30.7714 24.7869C30.7113 24.7245 30.6709 24.6458 30.6553 24.5607C30.6396 24.4755 30.6493 24.3876 30.6831 24.3079C30.717 24.2282 30.7736 24.1603 30.8458 24.1125C30.918 24.0646 31.0026 24.0391 31.0892 24.0391C31.1484 24.04 31.2068 24.0526 31.2611 24.0762C31.3154 24.0997 31.3645 24.1339 31.4056 24.1765C31.4466 24.2192 31.4788 24.2695 31.5003 24.3247C31.5218 24.3799 31.5322 24.4387 31.5308 24.4979Z" fill="#263238"/>
<path d="M29.6747 24.5742L29.2607 27.2066L30.7166 27.0341L29.6747 24.5742Z" fill="#F28F8F"/>
<path d="M22.1847 31.5078C22.1847 31.5078 25.5312 32.9948 25.89 38.1353C26.6455 48.8855 18.5518 51.3592 18.5518 51.3592C17.8618 50.0033 18.4173 48.1714 18.9831 46.8742C20.2966 46.0173 21.3607 44.8288 22.0676 43.4288C22.7746 42.0288 23.0994 40.467 23.0092 38.9012C22.8229 34.982 20.8771 32.7878 19.9042 32.4911C20.5948 32.021 21.3688 31.6873 22.1847 31.5078Z" fill="#37474F"/>
<path d="M15.8954 51.6664C17.3444 51.1592 17.7066 50.9764 19.5317 49.5032C21.3567 48.0301 22.9023 46.0739 24.3617 44.135C24.5378 43.9084 24.7328 43.6972 24.9447 43.5036C25.3194 43.1741 25.6509 42.7985 25.9314 42.3858C26.5697 41.4164 26.58 40.785 26.6421 39.6258C26.6908 38.4564 26.5283 37.2877 26.1626 36.1758C26.1325 36.051 26.0774 35.9336 26.0004 35.8308C25.96 35.7804 25.9062 35.7423 25.8452 35.721C25.7843 35.6996 25.7185 35.6959 25.6554 35.7101C25.5533 35.7545 25.4693 35.8323 25.4174 35.9309C25.0103 36.5519 24.7274 37.2453 24.3237 37.8767C24.1409 38.163 24.0132 38.2769 23.8476 38.5667C23.8269 38.6012 23.5026 38.9324 23.4405 38.7875C23.3784 38.6426 23.5785 38.1906 23.5061 37.4592C23.4336 36.7278 23.2335 36.4656 23.0093 36.407C22.6643 36.3173 22.6643 36.7037 22.509 37.2867C22.3331 37.9767 22.064 38.5494 22.095 39.5741C22.1097 40.2762 22.0071 40.9758 21.7914 41.6441C21.5948 42.4341 20.6943 44.2143 18.4656 45.5875C17.9792 45.8876 17.8239 45.9325 18.1206 44.7698C18.6087 42.5761 19.3089 40.4351 20.2113 38.3769C21.1014 36.3518 21.7155 34.8027 20.9013 33.9782C19.4765 32.5636 17.4789 33.371 16.3646 35.7791C15.0777 38.5598 14.3739 40.6712 13.8564 45.7841C13.6149 48.0059 13.401 52.5392 15.8954 51.6664Z" fill="#FFA8A7"/>
<path d="M20.056 32.5469C18.3724 32.6228 17.2512 33.3024 16.1368 35.5001C15.0225 37.6977 14.1669 41.5583 14.1669 41.5583C14.1669 41.5583 15.7504 43.2454 18.8244 43.1591C18.8244 43.1591 20.7564 38.0945 21.1255 36.7317C21.5292 35.2448 21.1773 33.0575 20.056 32.5469Z" fill="#37ED81"/>
</svg>
